<?xml version="1.0" standalone="no"?>
<!DOCTYPE svg PUBLIC "-//W3C//DTD SVG 20010904//EN"
 "http://www.w3.org/TR/2001/REC-SVG-20010904/DTD/svg10.dtd">
<svg version="1.0" xmlns="http://www.w3.org/2000/svg"
 width="2160.000000pt" height="1952.000000pt" viewBox="0 0 2160.000000 1952.000000"
 preserveAspectRatio="xMidYMid meet">

<g transform="translate(0.000000,1952.000000) scale(0.100000,-0.100000)"
fill="#000000" stroke="none">
<path d="M11905 18749 c-768 -31 -1292 -104 -1770 -246 -536 -159 -1628 -695
-2584 -1271 l-275 -165 -149 26 -150 25 -386 -39 c-1110 -113 -1769 -224
-2289 -385 -398 -124 -761 -301 -984 -481 -56 -44 -68 -59 -68 -83 0 -22 -7
-33 -29 -45 -36 -18 -71 -61 -71 -86 0 -14 -11 -20 -50 -25 -27 -4 -55 -14
-63 -23 -32 -37 -97 -294 -97 -388 -1 -44 -6 -75 -15 -87 -12 -16 -15 -65 -15
-264 0 -244 5 -282 36 -282 13 0 14 -17 7 -127 -4 -71 -8 -164 -8 -208 l0 -80
88 -5 88 -5 45 -60 44 -60 -32 -2 c-18 -2 -75 -6 -126 -9 l-93 -6 -24 -36
c-34 -49 -32 -59 14 -72 95 -25 507 -100 554 -100 29 0 85 -9 125 -20 59 -15
132 -21 375 -30 166 -6 412 -15 547 -20 135 -5 251 -10 258 -10 6 0 12 11 12
24 0 28 13 31 177 42 l101 6 21 -46 c61 -139 219 -330 362 -436 219 -163 462
-238 739 -227 427 17 790 251 989 639 l47 91 80 -2 c43 -2 106 -6 139 -9 52
-6 60 -10 63 -29 3 -21 9 -23 60 -23 31 0 782 7 1667 15 886 8 2222 19 2970
26 2094 17 2505 23 2506 34 1 17 34 24 151 31 l113 6 40 -88 c55 -122 141
-249 234 -343 318 -320 774 -431 1195 -290 188 63 344 164 486 316 114 122
168 213 260 441 9 20 16 22 92 22 46 0 106 -3 135 -6 43 -6 52 -10 55 -28 l3
-22 130 13 c72 8 322 35 556 62 347 40 433 53 465 70 21 11 102 70 179 130 93
73 153 113 180 120 22 6 47 16 56 23 10 7 29 55 44 107 25 85 27 104 20 185
-10 130 -10 144 5 321 16 189 6 292 -31 331 -49 52 -165 132 -201 139 l-38 7
0 72 c0 50 -6 84 -21 116 -19 43 -119 433 -119 466 0 9 12 30 26 47 35 42 84
141 84 171 0 21 5 25 38 28 32 3 37 7 40 29 4 37 -33 142 -79 220 -64 110
-112 164 -171 192 -29 14 -105 50 -168 80 -79 37 -138 73 -188 115 -208 175
-646 498 -1025 757 -134 92 -213 151 -205 156 7 3 42 12 78 18 118 22 180 43
192 64 25 48 -34 63 -716 177 -1054 177 -2034 270 -3271 310 -343 11 -1178 11
-1460 -1z m1535 -29 c955 -32 1748 -99 2652 -222 84 -11 86 -12 92 -41 11 -52
8 -60 -18 -53 -85 21 -861 114 -1296 155 -845 80 -1904 120 -2688 101 -852
-21 -1382 -91 -1897 -251 l-131 -41 -89 27 -90 28 40 14 c361 127 903 222
1500 263 426 29 1359 39 1925 20z m-85 -90 c981 -36 1883 -113 2690 -230 77
-11 143 -20 148 -20 4 0 7 -6 7 -14 0 -29 82 -176 125 -224 63 -69 102 -96
960 -639 501 -318 576 -359 844 -469 85 -35 158 -67 163 -72 9 -9 -164 -48
-409 -93 -67 -12 -120 -26 -117 -30 2 -4 21 -5 42 -2 44 6 478 91 508 99 15 4
33 -4 59 -28 37 -32 95 -104 95 -118 0 -3 -35 -3 -77 1 -237 23 -1237 44
-2401 52 l-304 2 -23 58 c-13 31 -53 103 -89 158 -36 55 -66 102 -66 104 0 3
96 5 213 6 362 1 607 13 643 32 55 29 59 81 12 153 -37 56 -513 535 -675 678
-193 171 -296 207 -818 280 -1071 150 -2443 210 -3330 145 -880 -64 -1421
-227 -2208 -663 -343 -190 -858 -528 -1124 -738 l-61 -48 -172 2 -171 3 98 65
c53 36 148 100 211 143 255 177 684 441 1003 618 376 208 939 473 1159 545
401 131 923 211 1590 243 243 12 1163 12 1475 1z m3305 -221 c427 -72 617
-107 650 -120 21 -9 22 -12 8 -20 -43 -24 -219 -56 -747 -136 l-175 -26 -50
54 c-28 30 -63 79 -78 109 -28 56 -58 154 -58 191 0 24 -33 28 450 -52z
m-4220 34 c0 -10 -4 -23 -8 -29 -5 -7 -108 -13 -312 -17 -1113 -23 -1655 -136
-2380 -493 -440 -217 -937 -522 -1374 -844 -157 -116 -163 -120 -205 -120 -34
0 -34 0 -15 21 36 41 330 254 569 414 620 415 1171 698 1672 859 453 145 1060
219 1841 224 196 2 212 1 212 -15z m515 7 c645 -25 1224 -70 1735 -135 107
-14 205 -27 217 -30 23 -5 60 -51 50 -61 -2 -3 -83 6 -178 20 -572 83 -1263
135 -2011 152 -307 7 -308 7 -308 29 0 12 3 25 7 28 9 10 194 8 488 -3z
m-2922 -71 c42 -13 77 -25 77 -29 0 -3 -58 -29 -128 -59 -192 -81 -622 -293
-847 -418 -374 -207 -692 -405 -1113 -691 -204 -139 -259 -172 -286 -172 -44
0 -354 39 -385 48 -20 7 -4 19 125 99 707 432 1598 897 2194 1145 85 36 178
74 205 86 55 23 50 23 158 -9z m2390 -6 c2 -5 -7 -66 -20 -138 -132 -723 -195
-1061 -201 -1066 -13 -12 -312 -17 -312 -5 0 5 59 240 131 521 72 280 141 546
152 590 11 44 24 86 30 93 10 13 213 18 220 5z m245 -8 c2 -2 -17 -198 -43
-437 -25 -238 -53 -503 -62 -589 l-16 -157 -45 -6 c-25 -3 -96 -6 -159 -6
-104 0 -114 2 -109 18 5 17 99 527 176 951 22 123 43 228 46 233 5 8 203 1
212 -7z m-498 -1 c0 -4 -24 -99 -54 -213 -51 -190 -235 -910 -250 -973 -5 -20
-13 -28 -29 -28 -105 0 -2109 -102 -2277 -116 l-75 -6 3 94 c4 117 -8 158 -66
220 -120 128 -232 138 -432 40 -52 -26 -98 -48 -102 -50 -16 -7 -7 46 10 60
60 52 495 308 737 434 701 364 1200 487 2165 537 116 6 370 7 370 1z m1000 -4
c453 -19 900 -54 1340 -106 118 -14 218 -28 222 -32 4 -4 75 -155 159 -337
l152 -330 -18 -145 c-9 -80 -20 -148 -24 -152 -3 -3 -186 -11 -406 -18 -490
-13 -1606 -47 -1847 -56 -98 -4 -178 -5 -178 -2 0 2 18 170 40 374 22 203 50
459 61 569 11 110 22 210 24 223 5 21 9 22 118 22 61 0 222 -5 357 -10z m1905
-100 c223 -32 391 -81 485 -141 116 -75 780 -729 814 -802 10 -21 15 -49 12
-61 -11 -45 -37 -48 -475 -59 l-415 -10 -19 24 -19 24 143 6 c79 4 227 7 329
8 154 1 191 4 220 19 46 23 51 59 16 113 -75 112 -447 510 -605 645 -41 35
-97 75 -125 88 -55 25 -230 67 -362 86 -79 12 -82 13 -98 47 -15 33 -15 34 1
29 10 -2 54 -10 98 -16z m-155 -63 l64 -12 104 -220 c57 -121 156 -328 218
-459 63 -132 113 -240 112 -241 -2 -1 -90 -5 -195 -8 -149 -5 -193 -3 -193 6
0 7 9 75 20 152 l19 140 -94 205 c-51 113 -121 263 -154 333 l-60 128 47 -7
c26 -3 76 -11 112 -17z m325 -53 c157 -32 218 -63 340 -172 197 -174 558 -573
579 -638 17 -54 -46 -63 -478 -65 l-240 -2 -148 314 c-82 173 -180 379 -218
458 l-70 143 57 -7 c32 -3 112 -18 178 -31z m1963 -96 c410 -281 762 -538
1009 -737 l133 -106 -53 -7 c-28 -3 -103 -6 -166 -7 l-113 -1 -92 88 c-137
131 -456 405 -751 646 -241 197 -276 245 -177 246 26 0 71 -26 210 -122z
m-284 89 c10 -43 45 -75 340 -321 268 -224 527 -447 666 -574 l55 -51 -71 -1
c-56 0 -80 5 -115 23 -104 56 -1359 856 -1359 866 0 6 394 73 466 80 7 0 14
-10 18 -22z m-7671 -738 c80 -40 186 -161 157 -179 -6 -4 -89 -11 -183 -15
-95 -4 -235 -12 -312 -19 -77 -7 -142 -11 -144 -9 -9 6 74 85 129 123 71 48
132 79 200 101 73 24 102 23 153 -2z m92 -19 c98 -67 132 -144 121 -274 -7
-86 -24 -129 -59 -147 -12 -7 -71 -17 -132 -23 -121 -12 -118 -10 -101 -83 7
-30 5 -34 -21 -44 -38 -15 -204 -4 -248 17 -19 8 -40 30 -48 47 -13 27 -47
144 -47 160 0 2 39 8 88 11 98 8 235 24 271 32 13 3 49 29 80 59 56 54 57 54
126 57 68 3 70 4 67 28 -6 43 -51 109 -103 150 -60 47 -56 53 6 10z m-485 -46
c0 -18 -16 -41 -54 -77 -61 -58 -76 -95 -56 -141 27 -67 42 -117 37 -123 -6
-6 -510 -44 -515 -38 -8 8 559 405 580 405 4 0 8 -12 8 -26z m6588 -118 l11
-24 -112 -6 c-62 -3 -303 -10 -537 -16 -581 -14 -1659 -47 -2151 -65 -224 -8
-416 -15 -427 -15 -15 0 -18 5 -15 24 5 23 10 24 101 30 54 3 315 13 582 21
267 8 620 19 785 25 165 5 482 14 705 21 223 6 513 14 645 18 424 14 400 15
413 -13z m-6188 -35 c0 -18 -82 -79 -113 -85 -53 -9 -208 -25 -277 -27 l-65
-3 -22 40 c-20 36 -21 39 -5 45 9 4 103 12 207 18 105 7 201 14 215 15 52 6
60 6 60 -3z m9178 -30 c31 -16 97 -46 146 -67 l90 -38 -32 -13 c-18 -7 -93
-27 -168 -43 -121 -26 -138 -28 -157 -15 -13 8 -88 41 -169 74 -81 33 -168 71
-195 85 l-48 25 130 2 c108 1 195 6 328 17 10 1 43 -11 75 -27z m-2897 -79
c56 -86 119 -203 119 -220 0 -5 -320 -12 -711 -15 -685 -7 -999 -12 -2247 -38
-315 -7 -575 -9 -579 -5 -10 9 76 266 90 271 11 3 503 20 1647 56 609 19 1605
45 1615 42 6 -2 35 -43 66 -91z m-3341 56 c-1 -38 -8 -39 -471 -59 -623 -26
-1699 -77 -2013 -94 -143 -8 -261 -14 -262 -12 -2 1 5 12 14 23 16 20 40 22
492 48 261 14 759 40 1105 56 347 17 709 34 805 39 277 13 330 13 330 -1z
m-5047 -67 c95 -16 234 -37 309 -47 76 -10 137 -19 135 -20 -1 -1 -65 -7 -142
-13 -77 -6 -185 -16 -240 -21 -55 -5 -197 -17 -315 -25 -662 -48 -1424 -140
-1907 -231 -458 -86 -999 -240 -1300 -369 -133 -58 -308 -149 -362 -189 -36
-26 -61 -33 -61 -17 0 28 242 196 410 285 537 282 1292 461 2515 595 401 45
725 79 758 80 16 0 106 -12 200 -28z m5024 -13 c-3 -7 -24 -70 -47 -140 l-43
-128 -100 0 c-312 0 -3107 -108 -3867 -150 -95 -5 -176 -8 -178 -5 -7 7 20 78
54 145 l34 66 323 23 c177 12 354 25 392 28 l70 6 25 -39 c37 -58 67 -68 202
-72 149 -5 161 1 156 71 l-3 52 40 2 c22 1 92 9 155 18 113 15 369 29 1450 80
1299 62 1345 63 1337 43z m6614 -141 c51 -79 96 -173 87 -182 -2 -3 -49 4
-104 14 -54 10 -139 24 -187 31 -83 11 -88 14 -104 43 -8 17 -37 54 -64 82
l-49 52 125 27 c69 15 142 33 162 40 35 13 40 12 61 -7 12 -12 46 -57 73 -100z
m-10661 73 c0 -5 -4 -10 -9 -10 -33 0 -201 -268 -201 -320 0 -11 -4 -21 -9
-24 -5 -3 -163 -15 -352 -26 -1123 -66 -1775 -127 -2315 -215 -116 -19 -244
-43 -285 -54 -76 -19 -229 -38 -229 -28 0 14 265 89 409 117 291 55 758 113
1286 160 127 11 307 27 400 35 94 9 207 22 253 31 172 31 361 115 569 252 119
79 124 81 190 85 159 8 293 7 293 -3z m-410 -5 c0 -6 -182 -124 -250 -163 -86
-48 -267 -118 -350 -136 -93 -19 -176 -28 -610 -66 -968 -85 -1513 -172 -1789
-284 -50 -20 -99 -29 -230 -41 -326 -31 -929 -109 -1046 -135 -22 -5 -49 -10
-60 -10 -19 0 -19 0 0 14 106 74 384 196 640 281 722 241 1657 394 2995 490
124 9 320 24 435 34 243 21 265 23 265 16z m1082 -25 c0 -5 1 -16 2 -22 1 -10
-94 -20 -369 -40 -203 -14 -372 -24 -374 -22 -3 3 5 15 17 27 21 21 41 23 310
43 337 25 411 28 414 14z m6860 -190 c-6 -114 -34 -165 -313 -578 -145 -215
-306 -453 -357 -529 -51 -76 -181 -275 -289 -443 -253 -393 -290 -446 -363
-514 -116 -107 -266 -155 -545 -175 -151 -11 -1712 -47 -1719 -40 -4 5 -53
269 -62 340 l-6 47 98 6 c510 34 748 60 1002 111 342 69 1281 310 1369 352 44
20 43 36 -1 18 -115 -48 -1140 -308 -1436 -364 -215 -40 -676 -87 -934 -93
l-100 -3 3 55 c1 30 9 102 18 160 12 79 17 243 23 665 7 541 18 737 50 930 5
33 10 60 10 61 0 3 2090 43 2450 47 124 1 423 2 665 2 l440 0 -3 -55z m2114
40 c323 -10 580 -23 672 -36 28 -4 42 -11 42 -22 0 -12 -9 -14 -52 -8 -118 14
-487 28 -654 24 -179 -3 -179 -3 -234 -34 -106 -60 -105 -101 8 -211 95 -93
301 -267 340 -287 32 -16 42 -43 66 -175 19 -99 21 -200 4 -236 -22 -48 -85
-68 -540 -176 l-96 -23 -89 88 c-413 407 -1060 557 -1623 374 -158 -51 -376
-166 -457 -241 -13 -11 -23 -17 -23 -14 0 4 111 172 247 374 262 389 289 440
300 562 l6 64 872 -6 c480 -4 1024 -12 1211 -17z m-5702 -126 c-30 -202 -37
-340 -44 -884 -5 -316 -13 -602 -19 -635 -5 -33 -14 -104 -20 -159 -5 -54 -12
-100 -14 -102 -9 -9 -1935 -115 -3082 -168 -407 -20 -783 -38 -836 -41 l-96
-6 -6 63 c-9 87 -33 422 -49 673 -19 305 -17 930 4 1068 9 59 18 111 21 114 9
9 2076 99 3067 133 173 6 416 15 540 19 124 4 297 9 386 9 l160 2 -12 -86z
m6626 56 c161 -26 184 -33 188 -53 5 -23 -19 -22 -131 7 -52 14 -123 28 -158
32 -35 3 -70 11 -76 17 -23 17 -14 28 20 23 17 -3 88 -15 157 -26z m-766 -78
c45 -43 107 -101 140 -129 l59 -52 -69 -125 c-53 -97 -74 -126 -89 -126 -28 0
-108 54 -218 147 -134 114 -236 213 -253 246 -15 28 -14 29 21 63 48 44 78 52
214 53 l115 1 80 -78z m346 68 c74 -5 156 -12 182 -16 l46 -6 36 -100 c20 -56
35 -102 34 -103 -2 -1 -98 -5 -213 -9 l-210 -6 -115 103 c-63 57 -124 114
-134 125 l-19 22 129 0 c71 0 190 -4 264 -10z m439 -54 c109 -27 116 -38 76
-114 l-30 -57 -82 -3 -82 -3 -9 33 c-5 18 -21 64 -36 102 -14 37 -26 70 -26
73 0 7 104 -10 189 -31z m-10813 -82 c-3 -8 -13 -83 -22 -167 -28 -265 -4
-1114 46 -1611 13 -132 14 -126 -17 -126 -47 0 -103 -12 -103 -22 0 -5 28 -6
64 -2 l64 7 7 -59 c4 -33 13 -93 20 -134 7 -41 12 -76 12 -77 -1 0 -94 -3
-207 -4 l-205 -4 -7 130 c-35 702 -372 1204 -931 1390 -177 59 -251 70 -457
70 -143 0 -204 -4 -270 -19 -240 -52 -448 -152 -622 -299 l-63 -54 -117 -6
c-65 -4 -118 -3 -118 2 0 30 211 225 336 308 382 258 933 324 1387 167 534
-185 882 -623 1012 -1274 15 -74 31 -139 36 -144 13 -14 11 6 -11 123 -80 420
-225 717 -475 967 -212 213 -460 342 -777 406 -163 32 -453 32 -616 0 -318
-64 -577 -198 -793 -412 -41 -41 -89 -91 -106 -111 l-30 -36 -292 -12 c-257
-10 -295 -9 -321 4 -16 8 -32 26 -36 40 -7 26 -2 31 326 335 292 270 268 245
272 292 l3 42 75 18 c114 26 481 85 705 113 485 60 956 99 1925 159 310 19
313 19 306 0z m10844 -111 c-1 -21 -34 -46 -89 -68 l-61 -24 0 44 0 44 73 4
c39 1 73 4 75 5 1 1 2 -1 2 -5z m-170 -47 l0 -44 -85 -59 c-154 -105 -159
-106 -327 -111 -96 -3 -148 -1 -148 6 0 5 29 61 64 123 l63 114 99 6 c54 3
152 6 217 7 l117 2 0 -44z m159 -213 c24 -98 58 -224 77 -280 23 -67 34 -120
34 -157 l0 -56 -27 6 c-85 20 -138 99 -203 304 -28 85 -61 182 -75 215 -19 48
-22 63 -12 73 11 11 143 71 158 72 3 0 25 -80 48 -177z m-219 30 c12 -27 45
-120 74 -208 62 -187 76 -217 125 -268 50 -53 81 -67 148 -67 56 0 60 -2 142
-66 60 -48 80 -69 70 -74 -8 -4 -59 -10 -114 -14 -162 -10 -901 -75 -1148
-101 -209 -21 -248 -28 -236 -39 2 -2 132 9 289 24 251 25 786 72 1120 99 63
5 117 7 120 4 9 -9 3 -345 -8 -412 -7 -49 -5 -87 6 -158 8 -51 13 -95 11 -97
-2 -2 -67 -12 -144 -20 -166 -19 -202 -34 -324 -133 -90 -72 -108 -100 -86
-129 12 -17 19 -17 176 -1 90 9 164 15 166 13 6 -6 -248 -198 -280 -211 -32
-13 -82 -20 -702 -89 -170 -20 -331 -38 -357 -41 l-48 -6 0 88 c-1 465 -137
878 -375 1140 -37 41 -52 65 -43 67 7 3 60 15 117 27 l104 23 24 -30 c49 -59
146 -210 183 -283 52 -106 102 -242 145 -401 20 -74 41 -139 47 -145 7 -7 9
-4 5 10 -3 11 -18 69 -32 129 -66 269 -165 488 -300 661 -25 32 -43 60 -41 63
2 2 107 28 233 58 340 81 392 103 410 172 10 40 -5 212 -25 290 l-19 72 172 0
c195 0 244 10 315 65 25 19 48 35 52 35 4 0 17 -21 28 -47z m-13652 8 c3 -19
-11 -38 -69 -90 -40 -36 -174 -161 -298 -276 l-226 -211 -220 -27 c-121 -15
-226 -27 -233 -27 -15 0 12 56 66 137 51 77 45 79 -135 59 -216 -24 -219 -23
-263 23 -43 45 -147 248 -134 261 37 37 1196 181 1424 177 82 -2 85 -3 88 -26z
m11472 -132 c248 -29 500 -128 710 -278 98 -70 258 -216 248 -226 -3 -4 -56
-18 -117 -32 l-111 -25 -53 48 c-157 141 -381 250 -628 306 -138 31 -427 33
-557 5 -87 -19 -215 -61 -296 -96 -128 -56 -328 -200 -422 -303 -267 -296
-388 -643 -396 -1144 l-3 -172 -460 -6 c-253 -3 -788 -8 -1190 -11 -1021 -8
-3960 -33 -4802 -41 l-703 -7 0 110 0 111 213 6 c116 3 349 8 517 11 515 9
1722 34 1960 40 124 3 655 15 1180 25 2490 51 2534 53 2713 115 163 56 248
134 397 363 58 89 207 316 332 505 244 368 242 365 404 470 312 201 655 274
1064 226z m-12962 -142 c65 -136 112 -193 164 -201 18 -3 103 2 188 13 85 10
156 18 157 17 1 -1 -15 -27 -36 -59 -54 -81 -77 -135 -64 -148 8 -8 71 -3 220
15 114 15 219 29 233 32 22 4 27 0 35 -28 6 -20 22 -39 43 -51 31 -18 44 -18
313 -7 155 6 283 9 286 7 2 -3 -11 -27 -30 -54 -153 -216 -259 -521 -299 -863
-4 -35 -41 -50 -130 -50 -42 0 -80 -4 -83 -10 -10 -16 150 -12 189 4 39 16 41
21 56 136 15 117 65 316 107 430 46 123 87 204 161 316 l60 91 68 6 c38 4 93
7 122 7 l53 0 -51 -60 c-165 -199 -265 -426 -317 -720 -22 -124 -26 -185 -30
-417 -4 -193 -9 -273 -17 -273 -6 0 -128 4 -271 10 -143 5 -384 14 -536 20
-312 11 -337 16 -514 98 l-99 47 49 7 c28 3 90 7 139 7 159 2 508 32 535 46
44 23 239 220 246 248 8 32 -54 226 -129 402 -71 165 -84 186 -136 213 -41 22
-54 23 -145 18 -55 -3 -185 -17 -290 -31 -349 -48 -424 -71 -469 -147 -42 -72
-98 -316 -108 -473 -3 -39 -4 -40 -42 -43 l-39 -3 7 153 c3 84 13 200 22 258
22 153 88 454 135 621 37 132 41 157 46 299 4 124 9 159 22 174 14 16 97 64
113 66 3 0 33 -55 66 -123z m3057 -48 c602 -121 988 -562 1080 -1232 7 -56 17
-196 20 -311 l8 -209 -31 6 c-17 4 -79 9 -137 13 -102 7 -107 8 -102 28 3 12
14 57 26 101 46 171 44 390 -3 579 -29 111 -102 272 -173 378 -102 152 -280
301 -464 387 -423 199 -943 112 -1288 -214 -236 -223 -363 -516 -363 -840 0
-137 12 -224 48 -344 14 -45 23 -85 20 -88 -5 -5 -183 -22 -239 -23 l-29 0 7
198 c8 246 19 365 50 513 40 199 109 367 218 529 62 94 229 260 323 322 305
202 678 277 1029 207z m-3287 -96 c-2 -93 -9 -141 -33 -225 -32 -116 -34 -118
-107 -118 -38 0 -38 0 -40 43 -3 70 1 97 34 229 40 163 54 188 109 188 l41 0
-4 -117z m13063 77 c499 -48 880 -301 1097 -727 112 -221 169 -452 179 -734
l6 -155 -74 7 c-41 4 -101 5 -133 2 -54 -6 -59 -5 -53 12 17 44 37 196 37 284
0 450 -255 864 -651 1059 -175 85 -306 115 -514 115 -160 -1 -236 -12 -376
-58 -282 -94 -535 -316 -673 -593 -118 -235 -148 -577 -73 -824 l15 -46 -57
-6 c-31 -3 -89 -8 -128 -12 l-73 -6 0 63 c1 251 37 519 94 692 170 520 614
879 1145 927 122 10 126 10 232 0z m-9895 -170 c217 -27 420 -118 598 -267
187 -156 331 -414 377 -673 19 -105 16 -306 -5 -413 -84 -432 -415 -780 -845
-890 -73 -19 -113 -22 -271 -22 -171 0 -192 2 -284 28 -258 71 -490 231 -635
437 -333 473 -281 1089 127 1482 255 246 594 361 938 318z m9939 0 c171 -25
355 -95 495 -190 151 -102 287 -262 370 -434 87 -181 120 -320 120 -511 0
-520 -342 -966 -847 -1102 -89 -25 -114 -27 -283 -27 -169 0 -194 2 -285 27
-192 51 -425 190 -549 328 -244 271 -349 621 -291 975 15 95 60 235 100 315
50 97 147 228 227 305 189 181 386 275 668 318 52 7 208 5 275 -4z m-13185
-302 c-5 -17 -28 -124 -50 -237 -23 -113 -43 -216 -46 -229 -3 -13 -10 -22
-17 -19 -9 3 -13 67 -15 248 -1 134 0 249 3 256 3 9 26 13 69 13 l65 0 -9 -32z
m951 -239 c19 -7 41 -18 49 -25 12 -12 3 -14 -62 -14 -132 0 -593 -65 -688
-97 -25 -9 -58 -25 -74 -36 -55 -39 -105 -190 -127 -382 -11 -92 -15 -105 -31
-105 -17 0 -18 6 -13 63 16 155 59 347 95 417 38 75 108 101 375 139 353 50
427 56 476 40z m73 -69 c49 -18 29 -30 -41 -24 -66 6 -249 -14 -335 -37 -55
-14 -94 -52 -107 -104 -22 -87 -42 -316 -31 -350 10 -31 139 -164 211 -218 34
-26 41 -27 160 -28 259 -1 7 -31 -416 -48 l-210 -9 -44 41 c-24 23 -65 71 -92
106 -47 61 -49 67 -49 128 0 68 30 231 56 311 20 58 56 107 93 127 39 19 191
49 406 79 271 38 354 43 399 26z m36 -55 c12 -7 106 -241 145 -360 26 -78 33
-111 25 -124 -5 -10 -50 -57 -99 -103 -99 -93 -111 -98 -250 -98 l-55 0 91 93
c96 97 110 123 98 185 -9 46 -92 339 -105 369 -10 23 -34 24 -123 1 -53 -13
-64 -44 -78 -216 -10 -114 -10 -147 1 -172 7 -17 48 -64 92 -103 l78 -71 -45
-45 -45 -46 -32 18 c-52 27 -204 173 -218 208 -11 25 -11 56 -1 163 20 221 31
247 114 270 95 28 239 45 321 40 44 -2 82 -7 86 -9z m-112 -243 c35 -125 52
-202 48 -218 -4 -14 -27 -48 -53 -75 l-45 -49 -76 68 c-99 89 -104 100 -92
248 16 191 22 207 85 217 80 12 74 22 133 -191z m7975 -22 c5 -30 19 -115 33
-188 14 -73 22 -137 19 -142 -4 -6 -77 -10 -173 -10 -92 0 -471 -7 -842 -15
-371 -8 -1123 -23 -1670 -34 -547 -11 -1077 -23 -1177 -26 l-182 -5 -6 32
c-14 81 -34 232 -31 235 1 2 189 12 417 23 1021 49 1299 63 2004 101 413 22
923 51 1135 63 212 13 403 23 425 22 l40 -1 8 -55z m7111 8 c-9 -31 -18 -35
-88 -43 -128 -14 -272 -34 -291 -40 -11 -4 1 7 26 23 26 17 64 36 85 42 31 9
192 33 262 39 9 1 11 -6 6 -21z m-28 -105 c-11 -45 -15 -49 -62 -65 -64 -21
-415 -61 -428 -48 -24 24 87 98 179 120 47 11 237 36 296 39 l27 1 -12 -47z
m-15817 -377 l22 -23 -32 -7 c-47 -9 -299 -7 -299 2 0 5 8 16 18 25 13 12 43
17 122 20 58 1 114 4 126 5 11 1 31 -9 43 -22z m225 -147 c5 -4 0 -6 -10 -4
-10 2 -120 23 -244 47 l-225 43 150 5 150 5 85 -44 c47 -24 89 -48 94 -52z"/>
<path d="M16318 18363 c7 -3 16 -2 19 1 4 3 -2 6 -13 5 -11 0 -14 -3 -6 -6z"/>
<path d="M16378 18353 c7 -3 16 -2 19 1 4 3 -2 6 -13 5 -11 0 -14 -3 -6 -6z"/>
<path d="M16428 18343 c7 -3 16 -2 19 1 4 3 -2 6 -13 5 -11 0 -14 -3 -6 -6z"/>
<path d="M16488 18333 c7 -3 16 -2 19 1 4 3 -2 6 -13 5 -11 0 -14 -3 -6 -6z"/>
<path d="M14737 16740 c-119 -20 -240 -73 -252 -111 -10 -30 30 -84 78 -107
95 -45 175 -55 365 -49 196 7 283 24 351 71 43 30 75 82 70 111 -6 28 -84 64
-176 80 -85 15 -355 18 -436 5z m351 -19 c31 -19 -21 -35 -146 -44 -143 -10
-284 4 -261 28 19 19 380 34 407 16z m147 -27 c65 -17 96 -39 88 -62 -16 -45
-78 -89 -157 -110 -35 -10 -42 -9 -68 13 -32 27 -55 30 -223 26 -94 -2 -181
-17 -191 -32 -14 -24 -109 3 -151 43 -25 23 -30 53 -12 64 7 4 130 10 274 13
232 6 266 9 291 26 16 10 33 24 37 32 8 14 22 12 112 -13z m-555 -19 c23 -13
21 -14 -45 -14 -67 1 -69 1 -40 14 38 18 54 18 85 0z m401 -152 c7 -7 9 -16 5
-20 -10 -10 -316 -17 -363 -8 -34 6 -35 8 -18 18 34 19 95 25 232 24 89 -1
136 -6 144 -14z"/>
<path d="M11420 16680 c-146 -14 -294 -67 -326 -116 -16 -23 -16 -28 -1 -59
19 -41 44 -58 119 -84 123 -42 392 -35 556 15 95 28 154 74 168 129 15 59 -74
98 -257 115 -116 10 -151 10 -259 0z m280 -29 c0 -5 -23 -18 -50 -30 -43 -18
-71 -22 -183 -23 -182 -2 -249 27 -117 50 70 12 350 15 350 3z m162 -33 c56
-24 62 -36 38 -76 -20 -33 -68 -62 -136 -82 -36 -11 -44 -10 -75 9 -28 17 -50
21 -129 21 -128 0 -269 -17 -298 -36 -22 -14 -28 -14 -67 0 -53 21 -88 57 -83
88 l3 23 250 5 c235 5 253 6 297 28 25 13 52 30 59 38 15 19 72 11 141 -18z
m-582 -12 c24 -14 24 -14 -21 -21 -25 -4 -58 -5 -75 -3 l-29 4 35 16 c44 20
58 21 90 4z m379 -147 c28 -10 43 -29 24 -29 -5 0 -60 -5 -123 -10 -117 -10
-290 -4 -290 11 0 26 326 50 389 28z"/>
<path d="M18635 15395 c-273 -21 -301 -28 -365 -102 -34 -38 -34 -38 -10 -41
26 -4 678 37 698 43 17 6 15 30 -8 75 l-20 40 -63 -1 c-34 -1 -138 -7 -232
-14z m295 -37 l20 -33 -23 -7 c-12 -3 -146 -14 -297 -23 -151 -8 -290 -18
-307 -21 -44 -7 -42 10 6 42 53 35 79 38 564 73 10 0 26 -13 37 -31z"/>
<path d="M18515 15218 c-249 -14 -274 -17 -295 -40 -27 -30 -151 -326 -153
-365 -2 -51 35 -83 95 -83 66 0 105 18 203 94 96 76 131 114 140 155 7 35 -11
181 -25 195 -6 6 -10 13 -10 16 0 4 50 10 112 13 61 4 116 11 122 17 7 7 2 9
-14 8 -14 0 -92 -5 -175 -10z m-55 -58 c18 -33 24 -165 10 -200 -12 -29 -121
-125 -200 -176 -19 -12 -58 -25 -87 -29 -44 -6 -54 -4 -72 14 -12 12 -21 31
-21 42 0 24 109 286 140 337 l20 32 100 0 c88 0 100 -2 110 -20z"/>
<path d="M17925 14750 l-50 -7 45 -1 c25 0 54 3 65 8 23 10 12 10 -60 0z"/>
<path d="M17803 14733 c9 -2 25 -2 35 0 9 3 1 5 -18 5 -19 0 -27 -2 -17 -5z"/>
<path d="M3448 15730 c-77 -8 -96 -20 -139 -95 -32 -55 -37 -90 -14 -99 18 -7
175 11 209 24 28 10 101 142 92 166 -6 15 -34 16 -148 4z m132 -15 c0 -18 -63
-126 -78 -134 -15 -8 -160 -31 -194 -31 -14 0 -9 30 12 68 38 72 54 86 112 93
70 8 148 10 148 4z"/>
<path d="M3388 15463 c-43 -8 -78 -18 -78 -22 0 -7 178 22 205 33 23 10 -55 3
-127 -11z"/>
<path d="M5999 15465 c-241 -48 -475 -225 -587 -444 -74 -144 -105 -273 -104
-436 1 -224 81 -413 246 -583 151 -156 323 -240 539 -262 335 -34 676 149 835
449 119 222 135 510 43 747 -79 204 -269 393 -483 482 -135 56 -342 76 -489
47z m214 -11 l37 -7 0 -318 c0 -206 4 -319 10 -319 6 0 10 113 10 320 0 176 3
320 8 320 4 0 44 -9 89 -20 152 -36 297 -123 414 -248 61 -65 155 -199 146
-208 -1 -1 -144 -50 -317 -107 -193 -65 -309 -108 -298 -112 12 -5 475 140
615 192 13 5 22 -12 46 -94 l15 -51 -226 -77 c-390 -132 -403 -137 -391 -149
3 -3 143 40 312 97 254 85 308 100 312 87 4 -8 9 -60 12 -115 12 -222 -82
-479 -225 -618 l-39 -38 -169 236 c-93 129 -176 248 -184 265 -8 16 -18 30
-22 30 -27 1 13 -66 172 -288 99 -137 180 -254 180 -260 0 -10 -119 -97 -124
-91 -2 2 -74 105 -161 229 -151 216 -218 300 -230 289 -3 -4 12 -28 33 -55 76
-96 325 -458 326 -473 1 -11 -24 -26 -79 -48 -157 -62 -320 -79 -473 -47 -83
17 -198 58 -221 79 -11 11 13 51 150 246 90 128 174 251 186 274 l23 40 -39
-43 c-22 -24 -110 -144 -196 -268 -86 -123 -161 -224 -167 -224 -11 0 -128 80
-128 87 0 3 51 75 113 161 201 277 247 345 247 361 0 13 -2 13 -14 1 -8 -8
-89 -121 -181 -250 -92 -129 -172 -239 -177 -245 -14 -14 -98 82 -159 180 -27
44 -64 123 -81 175 -30 90 -32 103 -33 247 0 89 4 156 10 161 6 6 125 -30 310
-94 164 -57 301 -101 304 -98 12 12 -34 30 -309 124 -162 55 -295 102 -297
103 -4 5 38 136 46 141 8 6 143 -37 376 -118 88 -31 183 -58 210 -61 49 -5 49
-5 20 8 -16 8 -156 56 -310 107 -154 51 -281 94 -283 96 -6 4 29 66 71 129
114 168 339 314 539 350 l38 7 2 -311 c2 -199 7 -311 13 -311 6 0 10 110 9
310 0 305 0 309 20 313 35 7 69 7 109 1z"/>
<path d="M5985 15333 c-47 -12 -145 -59 -210 -101 -118 -75 -265 -246 -238
-273 6 -6 110 -44 232 -86 290 -98 271 -107 271 130 0 212 -9 337 -24 336 -6
-1 -20 -4 -31 -6z m25 -180 c0 -87 3 -187 6 -223 4 -49 2 -70 -9 -85 -15 -19
-19 -18 -218 48 -112 37 -210 71 -218 76 -35 23 149 213 268 275 72 38 136 64
159 65 9 1 12 -37 12 -156z"/>
<path d="M6307 15333 c-4 -3 -7 -118 -7 -255 l0 -248 26 -13 c24 -10 51 -3
247 63 121 41 222 81 225 88 7 20 -11 52 -68 121 -82 99 -212 185 -349 232
-60 21 -65 22 -74 12z m170 -79 c60 -30 114 -66 159 -107 81 -75 148 -157 137
-168 -15 -15 -386 -139 -414 -139 -15 0 -29 7 -33 16 -8 21 -8 267 1 372 l6
83 26 -6 c14 -3 67 -26 118 -51z"/>
<path d="M6120 14870 c-28 -28 -23 -67 12 -93 23 -17 31 -19 53 -9 14 6 31 23
37 37 10 22 8 30 -9 53 -26 35 -65 40 -93 12z m74 -32 c15 -25 -17 -57 -42
-42 -22 14 -28 44 -10 55 18 12 39 7 52 -13z"/>
<path d="M6110 14732 c-98 -49 -108 -185 -17 -241 53 -33 118 -29 162 10 81
71 63 194 -35 233 -51 20 -67 20 -110 -2z m136 -46 c96 -96 -26 -248 -142
-177 -62 38 -69 127 -14 183 23 23 37 28 75 28 40 0 52 -5 81 -34z"/>
<path d="M6337 14722 c-10 -10 -17 -30 -17 -44 0 -51 69 -78 103 -40 20 22 22
73 5 90 -18 18 -73 14 -91 -6z m77 -29 c9 -22 -13 -45 -38 -41 -26 4 -33 38
-11 54 20 15 41 9 49 -13z"/>
<path d="M5906 14714 c-37 -36 -7 -104 45 -104 30 0 43 9 58 38 12 23 1 58
-23 74 -19 13 -64 9 -80 -8z m68 -20 c18 -18 18 -17 10 -38 -9 -22 -51 -20
-64 3 -7 15 -6 23 6 35 19 20 29 20 48 0z"/>
<path d="M5449 14684 c-19 -23 -5 -205 21 -289 42 -134 135 -289 170 -283 15
3 132 150 242 307 71 101 54 124 -142 192 -222 77 -276 91 -291 73z m208 -69
c92 -30 183 -64 201 -75 57 -35 49 -53 -142 -305 -37 -49 -73 -90 -79 -90 -7
0 -31 28 -54 62 -68 102 -110 233 -120 376 -5 75 -4 87 10 87 8 0 91 -25 184
-55z"/>
<path d="M6652 14636 c-106 -36 -202 -72 -213 -82 -40 -36 -27 -68 109 -253
70 -96 135 -179 145 -185 26 -16 66 33 128 159 67 134 109 342 83 409 -10 26
-49 19 -252 -48z m228 -34 c0 -88 -26 -205 -66 -291 -36 -80 -97 -172 -111
-169 -18 4 -263 347 -263 368 0 10 7 23 15 30 15 12 387 138 413 139 8 1 12
-21 12 -77z"/>
<path d="M6267 14479 c-51 -40 -25 -109 41 -109 53 0 79 58 45 98 -28 31 -56
35 -86 11z m57 -25 c9 -8 16 -19 16 -24 0 -10 -29 -40 -39 -40 -13 0 -31 24
-31 40 0 16 18 40 31 40 4 0 15 -7 23 -16z"/>
<path d="M6002 14474 c-46 -32 -18 -114 39 -114 29 0 62 34 62 65 0 31 -33 65
-62 65 -9 0 -27 -7 -39 -16z m69 -30 c17 -21 0 -49 -32 -49 -24 0 -36 23 -25
51 7 19 40 18 57 -2z"/>
<path d="M6119 14313 c-15 -15 -77 -104 -138 -197 -128 -194 -127 -186 -15
-216 100 -26 207 -34 296 -21 98 14 212 51 216 71 1 8 -58 98 -131 200 -125
175 -134 185 -167 188 -28 2 -41 -3 -61 -25z m77 -1 c19 -12 247 -336 248
-351 2 -26 -152 -60 -269 -60 -90 0 -254 25 -271 41 -5 6 200 321 234 361 16
18 39 22 58 9z"/>
<path d="M15953 15469 c-28 -5 -88 -22 -133 -39 -287 -104 -467 -306 -552
-620 -31 -113 -31 -306 0 -420 26 -95 84 -218 137 -290 68 -92 205 -212 301
-262 145 -76 220 -93 409 -93 156 0 163 1 257 34 448 154 685 613 558 1079
-67 244 -280 475 -523 567 -129 48 -317 67 -454 44z m190 -15 l37 -7 0 -313
c0 -181 4 -315 9 -319 6 -3 11 120 13 309 2 173 6 317 10 321 10 11 166 -32
235 -65 91 -42 205 -124 265 -189 47 -51 148 -195 148 -210 0 -3 -139 -53
-310 -111 -170 -58 -305 -109 -301 -113 5 -5 147 37 316 93 168 56 308 100
310 98 3 -3 45 -137 45 -143 0 -1 -136 -49 -302 -105 -167 -57 -307 -107 -312
-111 -26 -23 54 -1 323 89 248 83 294 96 300 83 3 -9 6 -81 5 -161 -1 -127 -4
-156 -28 -235 -15 -49 -45 -124 -68 -165 -37 -70 -142 -210 -157 -210 -3 0
-27 31 -53 68 -221 317 -328 462 -328 442 0 -12 76 -128 173 -263 95 -133 176
-247 180 -254 5 -8 -14 -28 -54 -58 -51 -37 -65 -43 -75 -33 -12 14 -156 218
-262 373 -64 94 -107 143 -118 132 -3 -3 9 -25 28 -49 32 -39 282 -397 322
-459 l16 -26 -57 -25 c-188 -83 -369 -98 -557 -48 -75 20 -176 64 -176 76 0 4
77 116 170 251 175 249 190 273 172 273 -5 0 -90 -115 -188 -255 -97 -140
-181 -255 -186 -255 -9 0 -70 39 -107 68 l-25 20 66 88 c153 209 291 409 295
428 4 18 0 16 -22 -9 -14 -16 -45 -57 -68 -90 -93 -135 -279 -390 -287 -393
-11 -4 -97 94 -138 157 -88 137 -132 283 -133 436 0 77 8 185 15 185 0 0 138
-47 305 -105 168 -57 307 -102 310 -100 12 12 -30 29 -308 124 -162 56 -296
103 -298 105 -7 7 37 146 46 146 4 0 134 -43 288 -95 155 -52 294 -95 310 -95
45 1 20 10 -294 116 -169 57 -293 104 -293 111 0 28 126 196 197 263 60 56
100 83 187 125 94 45 241 94 251 83 1 -2 4 -146 6 -320 2 -175 7 -318 10 -318
16 0 19 50 19 335 0 281 1 304 18 308 27 7 63 7 105 1z"/>
<path d="M15883 15320 c-117 -42 -196 -92 -288 -185 -95 -95 -137 -157 -119
-175 6 -6 109 -44 229 -84 182 -62 222 -72 242 -63 l23 10 -2 256 c-3 289 2
272 -85 241z m61 -102 c3 -50 6 -155 6 -233 0 -121 -2 -144 -16 -149 -14 -5
-391 113 -424 134 -12 7 -12 12 0 35 25 46 120 144 187 192 58 42 202 113 229
113 7 0 14 -35 18 -92z"/>
<path d="M16235 15318 c-3 -13 -4 -126 -3 -253 l3 -230 28 -13 c32 -16 25 -18
277 70 96 34 181 67 188 73 12 10 11 18 -3 44 -24 48 -149 175 -213 218 -61
40 -187 97 -239 108 -28 6 -33 3 -38 -17z m111 -33 c86 -33 170 -84 239 -146
66 -61 131 -147 119 -159 -10 -9 -302 -114 -368 -132 -78 -21 -76 -28 -76 232
0 143 4 230 10 230 5 0 39 -11 76 -25z"/>
<path d="M16059 14880 c-25 -15 -32 -58 -14 -86 19 -30 74 -33 98 -6 48 53
-22 128 -84 92z m69 -46 c4 -25 -22 -49 -43 -40 -22 8 -29 34 -14 52 17 21 53
14 57 -12z"/>
<path d="M16065 14743 c-68 -18 -117 -104 -97 -171 35 -115 191 -139 252 -39
37 61 17 153 -42 191 -27 17 -84 27 -113 19z m101 -42 c37 -22 59 -78 49 -119
-16 -66 -95 -107 -156 -82 -45 19 -69 56 -69 107 0 38 5 50 34 79 40 40 92 46
142 15z"/>
<path d="M16292 14740 c-12 -5 -27 -22 -33 -37 -22 -58 56 -108 100 -64 29 29
27 65 -5 90 -30 23 -30 23 -62 11z m48 -35 c18 -22 8 -50 -19 -50 -32 0 -49
28 -32 49 17 20 35 20 51 1z"/>
<path d="M15836 14708 c-21 -29 -20 -40 5 -72 25 -31 61 -34 89 -6 41 41 13
100 -48 100 -21 0 -36 -7 -46 -22z m82 -41 c-4 -32 -54 -36 -63 -6 -5 16 -2
26 10 35 25 18 57 0 53 -29z"/>
<path d="M15389 14689 c-11 -6 -14 -31 -12 -101 3 -152 58 -310 151 -432 20
-27 42 -51 48 -53 11 -4 76 81 231 296 90 124 76 144 -147 218 -214 72 -255
83 -271 72z m228 -81 c177 -59 213 -78 213 -112 0 -28 -232 -351 -253 -351
-17 0 -98 124 -124 192 -34 89 -53 181 -53 261 l0 74 33 -7 c17 -4 100 -30
184 -57z"/>
<path d="M16575 14633 c-181 -61 -201 -71 -214 -97 -18 -38 -15 -44 135 -251
84 -117 132 -175 144 -175 23 0 98 115 139 213 39 95 63 216 59 303 -3 69 -3
69 -33 72 -17 1 -116 -27 -230 -65z m242 31 c10 -28 -16 -202 -44 -286 -30
-91 -111 -233 -132 -233 -8 0 -70 77 -138 170 -168 232 -174 211 82 297 110
37 206 67 213 67 7 1 15 -6 19 -15z"/>
<path d="M15940 14472 c-42 -34 -15 -112 39 -112 33 0 61 30 61 65 0 57 -56
83 -100 47z m65 -47 c0 -23 -5 -31 -21 -33 -30 -4 -48 21 -34 48 18 33 55 23
55 -15z"/>
<path d="M16204 14482 c-6 -4 -17 -18 -24 -31 -26 -51 57 -105 101 -65 23 21
25 67 3 88 -16 17 -61 21 -80 8z m70 -38 c10 -25 -5 -44 -34 -44 -29 0 -44 19
-34 44 10 27 58 27 68 0z"/>
<path d="M15940 14144 c-153 -228 -152 -219 -17 -250 115 -26 266 -24 377 5
90 24 110 34 110 58 0 9 -48 83 -107 167 -166 235 -149 216 -193 216 l-39 0
-131 -196z m236 116 c102 -135 214 -304 207 -311 -4 -4 -52 -17 -106 -29 -83
-19 -116 -22 -210 -17 -96 5 -209 25 -223 40 -5 5 172 279 219 340 39 50 61
46 113 -23z"/>
<path d="M6840 12964 c-539 -11 -1169 -51 -1581 -102 -141 -17 -239 -130 -412
-469 -136 -269 -298 -661 -438 -1058 -43 -121 -77 -205 -85 -205 -7 0 -23 14
-35 32 -25 34 -25 35 -14 216 6 94 5 120 -9 157 -28 72 -53 85 -158 85 -165 0
-378 -58 -478 -131 -64 -46 -82 -83 -76 -152 7 -88 45 -143 127 -185 58 -30
77 -34 187 -42 129 -9 137 -12 206 -72 l38 -34 -25 -37 c-14 -20 -28 -56 -32
-80 -13 -90 -16 -98 -43 -108 -89 -34 -102 -116 -26 -161 43 -25 42 -27 -21
-169 l-45 -99 0 -118 c0 -64 7 -216 16 -337 13 -180 16 -385 14 -1120 l-1
-900 23 -45 c14 -26 37 -53 58 -65 33 -19 52 -20 380 -20 383 0 384 0 432 67
22 32 23 41 26 260 3 226 3 228 25 232 98 20 286 28 832 36 804 12 2512 12
3115 0 410 -8 508 -13 648 -36 l32 -5 0 -212 c0 -201 1 -215 23 -257 42 -84
44 -85 427 -88 332 -3 335 -3 379 20 25 13 54 36 65 51 21 28 21 39 26 1030 3
551 9 1009 12 1017 4 8 12 117 18 241 l12 226 -51 121 c-28 66 -51 127 -51
135 0 8 16 24 35 35 66 40 60 107 -14 153 -46 29 -49 33 -56 84 -3 30 -17 76
-30 102 l-25 47 28 29 c54 56 84 68 204 77 118 9 154 17 205 43 80 42 137 162
113 241 -24 81 -129 146 -305 192 -120 31 -298 43 -344 24 -71 -29 -93 -126
-71 -305 l13 -104 -27 -36 c-32 -41 -46 -41 -59 1 -70 216 -259 705 -373 961
-155 350 -246 513 -343 615 -98 104 -105 108 -239 124 -597 69 -1566 111
-2252 98z m1190 -44 c247 -12 474 -27 630 -41 221 -19 425 -39 447 -44 14 -3
41 -36 78 -96 60 -98 101 -177 94 -182 -2 -2 -74 2 -159 9 -558 44 -1157 64
-1935 64 -772 0 -1236 -14 -1828 -56 -125 -9 -231 -14 -234 -11 -6 7 65 143
115 217 l37 55 95 12 c251 32 789 69 1200 83 299 10 1180 4 1460 -10z m-2793
-97 c-80 -131 -105 -175 -120 -209 -14 -30 -29 -45 -59 -59 -43 -19 -88 -79
-134 -182 -81 -181 -229 -576 -375 -1003 -68 -199 -96 -249 -239 -430 -37 -47
-73 -96 -80 -109 -20 -38 -5 -99 55 -235 30 -69 55 -127 55 -130 0 -3 -13 -6
-29 -6 -94 0 -131 -230 -87 -533 17 -117 14 -135 -27 -162 -20 -13 -34 -13
-122 3 l-100 17 -7 55 c-12 107 -29 459 -22 487 4 15 26 71 49 123 51 115 50
110 70 290 18 160 27 200 54 224 16 15 19 15 36 -4 10 -11 22 -20 26 -20 17 0
149 133 149 150 0 10 8 20 18 22 11 3 23 22 31 49 48 163 244 675 361 944 108
248 240 492 320 593 49 62 134 132 161 132 11 0 18 -3 16 -7z m4009 -34 c89
-68 161 -174 273 -398 139 -276 300 -665 441 -1061 40 -113 79 -210 86 -216 8
-6 14 -15 14 -20 0 -15 134 -144 149 -144 8 0 22 7 32 16 42 38 66 -23 89
-227 19 -162 22 -176 70 -289 58 -136 58 -135 37 -475 l-12 -190 -100 -16
c-160 -27 -176 -9 -156 170 21 194 23 265 12 336 -22 141 -46 185 -101 185
-17 0 -30 2 -30 4 0 1 20 46 44 98 60 129 87 210 80 245 -3 16 -41 73 -85 128
-113 141 -167 225 -194 302 -14 38 -72 203 -130 367 -126 356 -268 724 -318
821 -41 83 -86 135 -116 135 -15 0 -29 16 -51 60 -17 34 -49 91 -72 128 -22
37 -42 70 -45 75 -13 22 37 2 83 -34z m-1376 -189 c497 -13 969 -36 1344 -67
l78 -6 19 -44 c56 -131 449 -1257 449 -1287 0 -5 -40 -6 -97 -3 -1480 97
-3344 101 -4736 12 -125 -8 -243 -15 -262 -15 l-34 0 148 438 c145 428 226
655 291 818 l32 81 61 7 c98 9 490 34 742 47 543 27 1350 35 1965 19z m-2851
-220 c-73 -189 -184 -508 -315 -902 l-98 -296 -48 -4 c-26 -2 -48 1 -48 5 0
13 173 509 243 697 154 415 230 583 285 631 19 17 36 29 38 27 1 -2 -24 -73
-57 -158z m4377 88 c59 -87 242 -556 434 -1113 27 -77 51 -148 55 -157 6 -16
1 -18 -43 -18 l-49 0 -131 388 c-72 213 -177 511 -232 662 -128 347 -120 319
-89 299 13 -9 38 -36 55 -61z m-5216 -877 c62 -17 90 -122 69 -262 l-12 -82
-176 6 c-184 7 -411 30 -453 46 -53 20 -41 102 23 156 105 88 430 169 549 136z
m6220 -6 c181 -20 366 -100 406 -176 18 -36 18 -83 0 -98 -44 -37 -632 -83
-651 -51 -10 15 -18 204 -11 241 10 50 38 81 82 89 38 8 63 7 174 -5z m-6670
-331 c58 -8 195 -18 305 -22 189 -7 200 -8 204 -27 2 -11 16 -38 32 -59 16
-22 29 -45 29 -51 0 -6 -26 -36 -57 -67 l-58 -57 -82 74 c-90 81 -87 80 -250
94 -148 13 -207 44 -258 130 -6 11 -4 13 11 7 10 -4 66 -14 124 -22z m7051
-23 c-38 -53 -113 -81 -257 -95 -71 -7 -139 -18 -151 -25 -13 -6 -53 -38 -90
-71 -37 -33 -70 -60 -73 -60 -10 0 -100 82 -110 99 -7 14 -3 27 16 52 15 19
32 49 40 67 l14 32 118 0 c137 0 349 16 442 33 36 7 66 9 68 5 2 -4 -6 -21
-17 -37z m-2516 -1 c551 -16 1407 -58 1565 -76 l55 -6 -30 -25 c-197 -162
-702 -502 -1230 -828 l-80 -49 -1350 -1 -1349 0 -78 50 c-42 28 -152 97 -243
155 -413 261 -949 630 -994 684 -15 18 7 21 349 41 455 27 864 44 1390 58 283
8 1703 6 1995 -3z m-3702 -149 c178 -144 676 -480 1167 -785 41 -25 67 -46 58
-46 -23 0 -1412 200 -1416 204 -7 8 -101 227 -116 274 -10 29 -15 63 -12 76 3
13 37 64 76 112 39 49 92 119 118 156 26 37 48 67 50 68 2 0 36 -26 75 -59z
m5413 -36 c32 -43 85 -111 117 -150 56 -68 58 -72 54 -120 -2 -33 -23 -94 -61
-180 -32 -71 -61 -133 -65 -137 -7 -8 -1398 -211 -1413 -206 -5 2 91 66 214
143 401 251 841 549 1008 683 41 33 78 57 81 54 3 -4 32 -43 65 -87z m-5940
-322 c-3 -21 -6 -50 -6 -65 0 -34 -11 -35 -46 -5 -34 29 -28 69 14 91 40 22
45 20 38 -21z m6362 21 c33 -23 45 -50 32 -74 -11 -21 -48 -45 -57 -36 -3 2
-8 32 -12 65 -8 66 -2 73 37 45z m-262 -377 c24 -78 29 -251 10 -396 -8 -69
-21 -128 -27 -132 -17 -10 -389 -83 -395 -77 -3 3 2 32 10 64 24 96 24 139 0
148 -13 5 -184 -11 -420 -38 -23 -3 -59 0 -80 5 -35 10 -429 190 -559 257
l-50 25 155 23 c277 39 1214 176 1260 183 61 10 77 0 96 -62z m-5271 -12 c281
-42 598 -88 705 -104 l195 -28 -195 -95 c-368 -180 -397 -192 -470 -191 -36 0
-144 10 -240 22 -177 23 -214 22 -223 -3 -3 -7 3 -53 14 -102 10 -48 16 -90
13 -93 -7 -8 -388 69 -399 81 -9 8 -35 263 -35 334 0 84 14 165 36 217 15 33
21 37 53 37 20 0 266 -34 546 -75z m3948 -250 c323 -156 395 -187 444 -193 23
-2 137 6 253 18 115 13 213 20 217 17 3 -4 -1 -42 -10 -85 -21 -95 -21 -118
-3 -125 8 -3 106 12 217 35 163 32 204 38 208 27 8 -25 59 -69 79 -69 11 0 56
7 99 15 115 22 106 28 99 -72 -16 -205 -68 -758 -82 -873 -8 -69 -19 -181 -24
-249 -6 -78 -15 -133 -25 -147 -8 -12 -40 -33 -72 -45 -55 -21 -75 -23 -374
-27 l-315 -4 -30 24 c-54 45 -208 145 -274 178 -157 79 -240 131 -246 156 -5
18 9 50 56 132 90 156 170 272 211 304 43 34 141 60 470 122 302 58 409 70
427 47 12 -14 7 -17 -40 -24 -307 -45 -414 -70 -461 -107 -31 -25 -59 -96 -98
-248 -24 -93 -27 -116 -17 -138 14 -31 178 -142 299 -202 l84 -42 74 10 c104
14 152 40 196 105 52 80 75 134 75 185 0 57 -35 270 -61 373 -51 203 -64 209
-328 171 -365 -53 -601 -105 -676 -149 -82 -47 -160 -157 -308 -427 l-69 -127
-51 -5 c-29 -3 -86 -7 -128 -10 l-76 -5 56 107 c188 366 381 884 381 1022 0
32 -6 48 -27 69 -37 36 -238 155 -383 226 l-116 56 -274 10 c-332 12 -1621 13
-1992 1 l-266 -8 -99 -48 c-106 -52 -302 -165 -371 -215 -57 -42 -67 -70 -53
-149 36 -198 281 -819 400 -1013 18 -28 30 -53 28 -55 -8 -8 -252 17 -255 26
-8 24 -190 335 -240 410 -66 98 -118 139 -220 170 -176 55 -744 146 -805 129
-69 -19 -96 -83 -142 -334 -37 -201 -37 -254 1 -335 37 -79 87 -138 131 -157
18 -7 67 -18 108 -24 l76 -10 94 50 c134 72 261 156 281 186 16 24 16 30 0
103 -52 242 -86 300 -195 332 -65 19 -353 70 -399 70 -17 0 -23 5 -20 18 6 31
110 18 530 -64 316 -62 345 -72 405 -138 70 -78 235 -357 231 -392 -3 -31 -15
-39 -233 -156 -74 -39 -177 -102 -229 -140 l-95 -68 -253 0 c-308 0 -407 10
-459 45 -44 29 -54 57 -63 185 -4 47 -11 119 -16 160 -13 102 -99 996 -100
1041 0 3 45 -3 101 -14 82 -15 106 -17 130 -7 16 7 29 15 29 19 0 3 8 16 18
29 l18 23 197 -40 c108 -22 203 -38 212 -35 19 8 19 50 0 129 -8 33 -15 66
-15 73 0 17 46 15 234 -8 88 -11 184 -20 213 -20 62 0 136 31 478 199 l220
108 1388 0 1389 1 231 -113z m-445 7 c98 -8 107 -10 217 -66 190 -96 359 -201
373 -231 10 -21 10 -41 1 -89 -32 -177 -218 -662 -360 -936 -80 -154 -45 -138
-329 -152 -306 -15 -1832 -15 -2154 1 -191 9 -232 13 -248 27 -22 21 -137 246
-208 409 -67 154 -118 288 -168 445 -55 168 -62 197 -62 252 0 45 2 50 48 83
62 45 309 186 397 226 l69 31 296 8 c341 10 1975 3 2128 -8z m-3665 -792 c266
-44 418 -79 482 -110 60 -29 101 -74 171 -187 61 -99 194 -333 194 -343 0 -3
-22 -3 -50 -2 -42 3 -50 7 -50 23 0 23 -150 275 -219 370 -71 97 -97 107 -456
179 -165 33 -346 65 -402 72 -56 7 -99 16 -96 21 22 36 105 31 426 -23z m5398
31 c23 -18 23 -18 -52 -25 -86 -9 -507 -86 -658 -122 -119 -28 -153 -46 -213
-113 -48 -53 -223 -341 -233 -383 -6 -23 -13 -27 -53 -30 -26 -3 -48 -4 -49
-3 -12 7 228 415 275 467 77 86 207 123 682 198 215 34 270 36 301 11z m-6062
-606 c11 -104 23 -220 26 -256 8 -83 30 -120 92 -150 58 -28 172 -37 486 -38
l208 -1 -3 -218 c-3 -241 -6 -253 -71 -292 -30 -19 -53 -20 -365 -20 -368 0
-375 1 -412 63 -19 31 -20 54 -19 752 l1 720 19 -185 c10 -102 27 -270 38
-375z m6372 -875 c-6 -20 -24 -49 -41 -65 l-31 -30 -347 -3 c-330 -2 -349 -1
-379 17 -63 39 -68 62 -69 299 l-1 212 211 1 c323 1 421 9 488 42 69 34 84 62
93 177 3 47 17 186 30 310 13 124 26 259 30 300 16 200 20 103 23 -535 2 -449
-1 -702 -7 -725z m-6067 1370 l41 -1 -27 -14 c-32 -18 -49 -84 -74 -283 l-17
-130 25 -54 c14 -30 51 -85 83 -122 31 -37 55 -70 52 -72 -7 -7 -96 15 -129
32 -36 19 -100 116 -118 179 -8 29 -11 70 -7 110 7 68 41 262 58 329 10 36 12
38 41 32 17 -3 49 -6 72 -6z m5829 -77 c60 -281 63 -355 20 -439 -35 -68 -75
-119 -105 -135 -23 -12 -118 -29 -118 -20 0 3 23 33 51 66 61 74 99 148 99
193 0 58 -41 325 -56 360 -7 17 -18 32 -23 32 -6 0 -11 5 -11 10 0 6 28 10 64
10 l63 0 16 -77z m-5740 60 c-7 -2 -21 -2 -30 0 -10 3 -4 5 12 5 17 0 24 -2
18 -5z m5550 0 c-7 -2 -19 -2 -25 0 -7 3 -2 5 12 5 14 0 19 -2 13 -5z m-5405
-24 c110 -24 162 -47 185 -82 35 -53 101 -311 87 -337 -17 -32 -326 -220 -361
-220 -8 0 -30 15 -48 34 l-33 34 63 33 c94 47 208 127 221 154 18 41 -47 318
-83 351 -10 9 -51 25 -91 35 -102 25 -58 23 60 -2z m5301 3 c-36 -9 -76 -24
-88 -32 -32 -22 -82 -201 -84 -300 l-2 -74 70 -49 c39 -27 100 -64 138 -83 37
-19 67 -38 67 -42 0 -15 -56 -62 -75 -62 -22 0 -117 52 -235 128 -106 68 -130
89 -130 119 0 31 57 238 80 291 23 51 61 71 191 101 103 23 160 26 68 3z
m-5399 -17 c93 -22 116 -33 129 -62 20 -44 61 -225 61 -271 0 -42 0 -43 -82
-96 -105 -68 -186 -109 -199 -100 -6 3 -29 34 -50 67 -34 53 -39 67 -39 121 0
58 18 188 41 304 10 50 12 52 42 52 18 0 61 -7 97 -15z m5569 -28 c19 -77 41
-245 41 -314 0 -61 -3 -72 -41 -130 -23 -35 -45 -63 -51 -63 -26 0 -223 116
-260 154 -25 24 -22 62 15 205 26 100 37 128 57 143 27 19 132 45 191 47 35 1
37 -1 48 -42z m-4264 -527 c274 -18 843 -30 1450 -30 722 0 1117 11 1621 46
l91 7 104 -59 104 -59 -75 -7 c-310 -28 -587 -33 -1875 -33 -1291 0 -1424 2
-1877 32 l-98 6 103 59 102 59 100 -5 c55 -3 168 -10 250 -16z m-260 -140
c385 -22 1171 -32 2035 -26 860 6 1159 13 1481 37 179 13 172 15 327 -89 95
-64 119 -86 81 -78 -151 36 -1075 50 -2664 42 -1212 -7 -1737 -17 -1822 -34
-24 -5 -43 -7 -43 -3 0 10 181 128 230 150 37 17 59 20 125 15 44 -2 157 -9
250 -14z"/>
<path d="M4874 9865 c-8 -20 15 -139 30 -160 7 -9 52 -23 119 -36 135 -26 142
-22 132 64 -7 68 -21 103 -44 112 -18 7 -186 35 -214 35 -10 0 -20 -7 -23 -15z
m126 -20 c52 -8 98 -15 101 -15 19 0 49 -143 32 -153 -14 -9 -206 32 -214 45
-9 14 -29 100 -29 123 0 18 -7 18 110 0z"/>
<path d="M9377 9865 c-53 -8 -95 -19 -107 -30 -11 -10 -23 -43 -31 -86 -19
-109 -14 -111 194 -67 55 11 62 21 81 112 19 94 19 94 -137 71z m119 -57 c-6
-43 -18 -80 -31 -96 -2 -2 -49 -11 -105 -21 -83 -15 -102 -16 -107 -5 -7 20
16 121 32 134 8 7 52 18 97 25 131 20 122 23 114 -37z"/>
<path d="M6060 10080 c-152 -7 -142 -3 -345 -122 -258 -151 -257 -150 -230
-268 42 -179 164 -503 285 -755 86 -179 115 -220 168 -235 102 -29 1258 -48
1872 -31 552 16 654 23 689 48 34 25 173 301 250 497 78 201 161 459 168 523
5 49 4 54 -28 86 -39 38 -238 159 -354 214 -79 38 -81 38 -240 45 -199 8
-2051 7 -2235 -2z m2115 -19 l270 -6 95 -48 c141 -72 330 -189 348 -215 13
-20 13 -30 -4 -100 l-19 -77 -1667 -3 -1667 -2 -16 52 c-19 66 -19 122 0 142
20 19 257 162 354 212 l75 39 250 5 c366 8 1667 9 1981 1z m675 -486 c0 -17
-121 -354 -155 -431 l-24 -54 -1475 0 -1474 0 -51 128 c-46 118 -111 297 -126
350 l-6 22 1655 0 c1454 0 1656 -2 1656 -15z m-202 -535 c-26 -71 -146 -286
-170 -303 -45 -33 -300 -41 -1293 -41 -977 1 -1211 8 -1267 41 -27 15 -47 47
-105 163 -40 80 -72 150 -72 155 -1 7 483 10 1458 10 l1458 0 -9 -25z"/>
<path d="M6817 10039 c-113 -60 -121 -226 -14 -297 l40 -27 328 -3 c362 -4
393 0 445 52 82 82 63 214 -41 273 -39 22 -46 23 -380 22 -319 0 -342 -1 -378
-20z m713 -9 c20 -5 51 -25 70 -45 65 -67 48 -189 -30 -230 -24 -12 -89 -15
-373 -15 -341 0 -344 0 -378 23 -61 41 -86 125 -55 185 18 34 54 68 86 81 33
13 634 14 680 1z"/>
<path d="M6261 9533 c-21 -17 -22 -24 -19 -208 l3 -189 25 -13 c37 -19 1813
-19 1850 0 l25 13 3 188 c2 165 0 191 -14 207 -16 18 -54 19 -934 19 -859 0
-919 -1 -939 -17z m1867 -197 c2 -145 -1 -191 -10 -198 -15 -9 -1818 -11
-1842 -2 -14 5 -16 32 -16 193 0 103 3 191 7 194 3 4 423 6 932 5 l926 -3 3
-189z"/>
<path d="M15070 12964 c-532 -19 -919 -42 -1155 -70 -71 -9 -169 -19 -217 -23
-73 -7 -94 -13 -137 -40 -102 -66 -178 -176 -364 -527 -143 -270 -259 -532
-358 -809 -37 -104 -51 -130 -107 -197 -35 -43 -65 -78 -66 -78 -1 0 0 71 2
158 5 180 -2 208 -62 236 -43 20 -91 20 -197 0 -237 -44 -404 -117 -444 -194
-21 -40 -18 -116 4 -167 37 -81 137 -128 336 -158 55 -8 112 -15 127 -15 15 0
39 -5 54 -10 24 -10 25 -12 12 -28 -28 -31 -47 -78 -58 -145 l-12 -66 -47 -16
c-61 -20 -91 -48 -91 -85 0 -31 35 -66 77 -76 12 -4 23 -10 23 -15 0 -6 -20
-69 -45 -142 -43 -127 -45 -138 -45 -248 0 -62 9 -211 20 -329 18 -196 20
-294 20 -1123 0 -866 1 -911 18 -950 45 -101 67 -106 452 -107 308 0 317 1
360 23 30 14 53 36 67 62 22 39 23 48 23 341 l0 302 288 8 c373 12 3684 12
4045 0 l277 -8 0 -300 c0 -278 1 -302 20 -338 11 -21 34 -49 52 -62 33 -23 36
-23 353 -26 176 -2 339 0 363 3 55 8 114 59 130 113 9 29 12 275 12 913 0 696
3 909 15 1044 43 481 41 528 -25 702 -23 60 -42 112 -43 117 -1 5 13 14 31 19
42 13 82 50 82 77 0 30 -40 66 -98 86 l-50 18 -7 56 c-8 63 -25 110 -55 147
-28 35 -21 38 120 53 214 22 339 69 389 144 21 33 26 51 26 106 0 57 -4 72
-27 101 -49 65 -206 131 -404 169 -124 24 -173 25 -219 6 -60 -26 -69 -57 -62
-238 3 -87 4 -158 2 -158 -1 0 -30 34 -64 75 -55 68 -68 93 -140 277 -105 272
-182 442 -310 693 -199 388 -294 525 -403 579 -29 14 -68 26 -88 26 -20 0
-117 9 -216 20 -202 22 -520 45 -824 61 -203 10 -1176 19 -1360 13z m1185 -34
c427 -16 1087 -65 1142 -85 9 -3 1 -36 -27 -112 -31 -87 -42 -108 -57 -106
-10 1 -72 9 -138 17 -797 102 -2193 109 -3081 16 -105 -11 -212 -24 -238 -29
-34 -6 -48 -5 -50 3 -2 6 -17 49 -34 96 -43 120 -44 113 13 121 187 29 658 64
1045 78 334 12 1117 12 1425 1z m-2535 -132 c25 -57 60 -157 60 -168 0 -4 -25
-20 -55 -35 -73 -38 -156 -113 -216 -198 -37 -53 -57 -97 -83 -181 -67 -214
-140 -537 -166 -733 -12 -89 -10 -281 4 -314 6 -13 -11 -19 -108 -37 -103 -20
-249 -62 -264 -76 -16 -17 13 -13 78 9 92 31 289 70 300 58 10 -10 32 -114 26
-121 -3 -2 -114 1 -248 7 -134 7 -308 13 -388 14 l-145 2 105 110 c58 61 120
129 139 152 27 36 43 46 101 63 46 14 76 29 89 46 11 14 41 80 67 147 134 346
185 471 276 677 98 221 126 308 130 390 1 32 10 54 38 89 49 62 105 110 154
132 67 30 80 26 106 -33z m3824 25 c35 -18 119 -96 148 -136 14 -19 21 -48 24
-94 4 -84 8 -96 127 -363 89 -202 170 -401 281 -692 54 -142 68 -158 155 -188
65 -22 79 -31 118 -80 25 -30 88 -99 141 -152 l97 -98 -223 0 c-123 0 -300 -5
-393 -11 -94 -6 -173 -8 -175 -6 -2 2 2 30 9 63 l14 59 44 -2 c37 -2 197 -39
297 -69 13 -4 22 -2 22 4 0 17 -148 58 -310 86 l-35 6 -1 172 c0 155 -4 190
-33 333 -71 349 -140 598 -194 700 -43 81 -165 203 -239 238 -32 15 -58 32
-58 37 0 5 13 44 29 87 55 149 47 136 88 128 21 -4 51 -14 67 -22z m-1014
-142 c534 -37 809 -73 893 -119 51 -28 170 -147 201 -202 19 -33 19 -33 0 -25
-80 34 -256 86 -339 99 -221 35 -676 61 -1289 76 -718 17 -1768 -18 -2131 -71
-87 -13 -198 -43 -292 -79 -40 -16 -73 -26 -73 -23 0 15 78 108 131 157 77 72
121 94 222 111 184 32 582 68 937 84 244 12 1542 5 1740 -8z m1440 -491 c48
-96 111 -229 140 -295 68 -157 211 -518 206 -523 -10 -9 -82 13 -101 32 -12
12 -43 78 -70 147 -125 325 -200 509 -271 665 -92 204 -134 317 -134 364 0 32
7 23 71 -90 39 -69 111 -204 159 -300z m-4585 340 c-14 -66 -42 -140 -110
-285 -57 -122 -159 -369 -241 -583 -41 -106 -81 -207 -89 -223 -18 -34 -47
-54 -92 -64 l-31 -6 57 158 c73 200 113 296 207 495 104 221 300 586 309 576
2 -2 -3 -32 -10 -68z m3175 -64 c162 -9 363 -20 445 -26 144 -11 351 -37 367
-46 18 -11 71 -135 123 -286 61 -176 205 -668 205 -699 0 -19 -43 -19 -2135
-19 -1174 0 -2135 2 -2135 5 0 17 159 552 208 701 51 152 113 304 125 304 2 0
48 7 103 15 121 18 453 40 824 55 151 6 313 12 360 14 204 8 1240 -4 1510 -18z
m-2840 -91 c0 -3 -11 -28 -25 -54 -13 -27 -49 -123 -79 -213 -58 -171 -206
-677 -206 -703 0 -12 -14 -15 -63 -15 -35 0 -66 2 -69 5 -20 21 99 579 172
808 l30 95 68 26 c147 56 172 63 172 51z m3842 -43 l99 -36 30 -96 c61 -196
153 -607 166 -747 l6 -63 -66 0 -66 0 -11 43 c-84 332 -222 772 -279 890 l-28
58 25 -6 c14 -3 70 -23 124 -43z m-4955 -747 c36 -25 43 -75 33 -244 l-9 -154
-52 -53 c-42 -43 -56 -51 -70 -44 -10 6 -64 15 -121 21 -264 27 -379 81 -409
191 -21 79 15 140 110 187 169 85 458 138 518 96z m6168 -5 c299 -66 414 -148
385 -274 -25 -109 -126 -158 -391 -190 -68 -9 -133 -18 -144 -21 -15 -4 -33 7
-69 44 l-50 51 -4 179 -4 179 25 26 c23 23 34 26 94 26 37 0 109 -9 158 -20z
m-905 -272 c0 -60 -12 -134 -23 -145 -3 -2 -97 2 -209 11 -229 18 -450 30
-873 48 -450 20 -2037 17 -2530 -5 -393 -17 -782 -42 -887 -56 l-57 -8 -11 49
c-5 27 -10 76 -10 108 l0 60 2300 0 2300 0 0 -62z m-1095 -107 c493 -21 1052
-55 1063 -66 2 -2 -1 -33 -9 -69 l-13 -65 -40 -6 c-23 -2 -289 -21 -591 -40
l-551 -35 -1059 0 -1060 0 -585 36 c-322 19 -590 37 -595 39 -10 3 -41 132
-34 139 18 17 647 52 1339 76 316 11 1810 4 2135 -9z m-3676 -214 c197 -12
204 -13 212 -34 10 -28 17 -28 -293 -8 -147 9 -237 11 -253 5 -37 -14 -81 -82
-100 -155 -21 -77 -16 -241 10 -338 22 -82 7 -379 -21 -428 -14 -23 -57 -53
-158 -111 -76 -43 -140 -77 -141 -76 -2 2 -11 99 -20 216 -22 259 -18 289 61
504 50 135 57 165 64 258 4 58 14 122 23 143 l16 37 198 -1 c109 0 290 -6 402
-12z m5560 -22 c8 -16 17 -79 21 -140 6 -88 14 -127 40 -195 65 -173 90 -255
96 -315 6 -60 -11 -377 -24 -442 l-7 -33 -113 64 c-149 86 -172 103 -189 143
-8 20 -18 101 -24 199 -8 134 -7 179 5 237 42 213 22 358 -62 442 l-27 28
-185 -7 c-102 -3 -227 -9 -278 -12 l-92 -7 8 24 c7 18 18 25 43 27 171 14 321
19 529 18 l245 -1 14 -30z m-5144 -5 c72 -5 326 -21 565 -36 423 -26 464 -26
1490 -26 1023 0 1068 1 1470 26 228 15 474 31 545 36 156 12 225 13 225 3 -1
-28 -24 -33 -215 -43 -110 -6 -339 -23 -510 -38 l-310 -27 -1205 0 -1205 0
-330 27 c-181 15 -388 30 -460 33 -205 9 -232 13 -238 36 -6 23 -5 23 178 9z
m-426 -45 c124 -8 228 -18 232 -22 6 -7 49 -188 49 -205 0 -10 -298 -10 -431
-2 l-96 7 -13 101 c-7 56 -16 108 -21 116 -12 22 -10 -49 5 -145 l12 -80 -54
-109 c-29 -59 -51 -111 -48 -114 8 -7 6 -11 67 107 l54 104 95 -7 c52 -3 172
-6 267 -6 l171 0 16 -45 c15 -45 15 -46 -7 -55 -310 -128 -293 -123 -487 -128
-139 -3 -178 -1 -187 10 -16 21 -32 98 -39 191 -6 70 -3 96 14 153 12 38 35
86 52 107 38 44 25 44 349 22z m5311 -27 c48 -66 64 -135 57 -253 -4 -55 -12
-122 -19 -150 l-13 -50 -180 0 -180 0 -145 59 c-80 32 -155 62 -167 67 -20 7
-21 10 -9 51 l13 43 264 6 c145 3 268 4 272 1 4 -2 31 -49 59 -105 66 -131 74
-112 10 22 l-49 102 17 112 c10 62 16 114 14 116 -10 11 -17 -16 -32 -112
l-15 -104 -66 -7 c-104 -9 -461 -7 -461 3 0 24 43 197 52 206 8 9 307 30 480
34 l68 1 30 -42z m-4768 -3 c308 -18 660 -44 665 -49 4 -3 -153 -78 -242 -114
-67 -27 -93 -29 -432 -36 l-221 -5 -22 92 c-12 51 -24 100 -27 110 -5 21 -32
20 279 2z m4155 3 c-2 -7 -12 -50 -22 -96 -10 -45 -23 -89 -29 -97 -17 -24
-568 -6 -641 20 -56 19 -267 117 -263 121 7 7 765 60 897 63 47 1 62 -2 58
-11z m-3530 -135 c-266 -133 -288 -140 -477 -153 -91 -6 -203 -15 -250 -20
-47 -6 -88 -10 -91 -10 -7 0 -32 80 -26 86 2 2 123 7 268 10 176 4 284 11 323
20 32 8 120 43 195 78 157 73 160 74 185 68 13 -4 -26 -28 -127 -79z m2545 8
c62 -33 172 -85 243 -117 l130 -57 255 -19 c140 -10 258 -22 262 -26 16 -16
-127 -405 -169 -460 l-25 -33 -1930 3 -1929 3 -20 25 c-31 39 -65 118 -124
294 -50 146 -53 162 -37 168 9 4 125 16 257 26 278 22 273 21 570 172 l170 87
1117 -4 1116 -3 114 -59z m123 4 c77 -35 165 -71 195 -79 37 -9 149 -16 333
-21 152 -4 277 -10 277 -13 0 -2 -5 -22 -12 -43 -10 -36 -14 -39 -42 -35 -53
9 -135 15 -310 26 -134 9 -181 16 -230 34 -90 35 -314 138 -366 169 -45 27
-45 27 -15 27 17 0 93 -29 170 -65z m-4495 1 c0 -31 -17 -96 -26 -96 -2 0 -21
7 -43 16 -66 26 -64 64 3 95 58 26 66 24 66 -15z m6337 22 c86 -36 82 -91 -8
-113 -23 -6 -28 -2 -38 26 -6 17 -11 47 -11 65 0 38 11 42 57 22z m-5298 -418
c28 -85 67 -189 88 -230 20 -41 39 -78 41 -82 2 -5 -106 -8 -240 -8 -239 0
-413 -8 -403 -18 3 -3 154 -4 336 -3 l330 3 35 -27 c54 -41 154 -84 240 -102
73 -16 209 -17 1679 -18 1473 0 1606 2 1678 17 93 20 171 55 226 98 l39 32
331 -3 c182 -2 333 0 336 3 10 9 -185 18 -417 18 -126 0 -228 1 -228 3 0 1 18
38 40 82 21 44 63 153 92 242 48 147 55 162 73 157 11 -3 83 -31 160 -63 l140
-56 185 -3 c102 -2 188 -7 193 -11 4 -4 12 -78 17 -165 14 -236 10 -230 242
-359 l108 -60 -5 -36 c-2 -20 -7 -67 -11 -104 -5 -59 -8 -68 -22 -62 -39 16
-234 55 -322 64 -395 45 -984 53 -3170 48 -1871 -4 -2112 -8 -2450 -38 -136
-11 -352 -51 -403 -73 -47 -21 -11 -19 85 4 339 81 800 93 3353 87 1877 -5
2119 -8 2470 -37 131 -11 308 -39 400 -63 l50 -14 -3 -39 c-7 -96 -47 -347
-87 -556 -25 -125 -52 -274 -60 -330 -16 -107 -29 -135 -79 -172 -33 -25 -16
-25 -585 -6 l-434 14 -75 58 c-42 33 -109 80 -150 106 l-74 47 375 5 c362 5
377 6 404 26 33 25 41 65 19 99 -22 34 -120 90 -211 120 -76 26 -94 28 -360
36 -380 11 -3535 10 -3810 -1 -238 -10 -288 -19 -394 -71 -141 -70 -179 -142
-97 -187 27 -15 77 -18 403 -22 l372 -5 -92 -57 c-51 -31 -117 -78 -148 -105
l-56 -49 -434 -15 c-239 -7 -461 -14 -495 -14 -103 1 -143 43 -163 173 -7 42
-30 167 -51 277 -64 330 -99 569 -116 801 l-6 91 133 76 c133 75 165 99 189
146 10 20 27 207 29 332 l1 26 173 6 c190 6 206 10 399 87 67 27 126 46 130
42 4 -4 30 -77 57 -162z m3996 -350 c-12 -20 -128 -72 -194 -87 -51 -11 -197
-17 -651 -25 -654 -11 -2486 -3 -2641 12 -110 11 -214 42 -274 83 l-40 27
1903 0 c1294 0 1901 -3 1897 -10z m-5085 -695 c0 -11 18 -115 40 -230 23 -116
54 -283 70 -372 32 -179 44 -210 92 -245 31 -22 42 -23 188 -23 85 0 225 2
310 5 l155 5 3 -255 c4 -321 1 -351 -43 -399 l-33 -36 -342 -3 c-332 -3 -342
-2 -379 19 -73 41 -69 -10 -76 829 -4 519 -3 750 4 740 6 -8 11 -24 11 -35z
m6372 -1483 c-10 -19 -34 -44 -53 -54 -32 -17 -58 -18 -381 -16 l-348 3 -32
33 -33 32 -3 315 -3 316 63 -6 c90 -7 477 -20 512 -17 45 4 95 32 122 68 20
25 30 59 44 148 11 63 40 218 65 345 25 127 49 259 53 293 4 35 8 -272 10
-681 2 -701 1 -747 -16 -779z m-1792 1138 c574 -7 728 -12 783 -24 86 -19 203
-75 241 -115 26 -27 28 -34 18 -55 -8 -17 -23 -27 -49 -32 -21 -4 -208 -8
-415 -8 -263 -1 -378 -4 -378 -12 0 -6 55 -47 123 -92 67 -44 136 -92 152
-106 l30 -25 -1899 -1 -1899 0 56 44 c31 24 82 60 114 81 118 76 153 100 153
105 0 3 -145 4 -323 2 -383 -4 -502 5 -529 38 -16 20 -17 26 -5 44 30 47 178
118 287 138 121 23 2296 34 3540 18z"/>
<path d="M14700 12379 c-581 -20 -673 -30 -780 -84 -100 -51 -128 -97 -195
-323 -104 -353 -104 -421 -3 -473 69 -35 226 -42 817 -35 l543 7 92 36 91 35
200 5 c271 7 418 -6 515 -45 l75 -29 555 -7 c757 -10 826 -2 872 100 25 57 22
73 -49 324 -68 242 -87 293 -125 335 -76 88 -183 122 -422 135 -538 30 -1617
39 -2186 19z m1870 -29 c494 -20 570 -31 678 -104 63 -42 86 -94 161 -358 66
-236 73 -290 40 -332 -50 -63 -21 -61 -722 -64 -394 -2 -650 1 -670 7 -18 5
-63 22 -102 38 l-70 27 -315 1 -315 0 -93 -38 -93 -38 -647 3 c-712 3 -681 0
-732 65 -19 24 -21 37 -17 93 5 65 49 238 108 422 47 147 106 201 264 241 184
47 1728 69 2525 37z"/>
<path d="M12390 11570 c-176 -38 -308 -97 -335 -150 -19 -36 -19 -120 -1 -163
35 -85 130 -121 317 -122 139 0 164 7 193 56 24 41 45 165 46 267 0 75 -2 85
-25 107 -30 31 -73 32 -195 5z m184 -145 c0 -142 -13 -205 -48 -240 -54 -54
-311 -37 -407 28 -58 39 -76 160 -32 209 54 60 300 138 423 135 l65 -2 -1
-130z"/>
<path d="M18555 11565 c-22 -21 -25 -33 -25 -100 0 -161 32 -276 87 -312 37
-24 186 -29 281 -9 140 29 193 76 200 178 6 76 -12 113 -70 151 -75 48 -317
117 -414 117 -24 0 -43 -8 -59 -25z m192 -20 c169 -39 283 -89 314 -138 23
-37 21 -105 -5 -155 -29 -57 -141 -93 -292 -95 -142 -1 -171 20 -194 144 -11
58 -14 242 -3 252 12 12 110 7 180 -8z"/>
<path d="M14622 10678 c-9 -9 -12 -69 -12 -210 l0 -198 26 -10 c16 -6 368 -10
934 -10 566 0 918 4 934 10 l26 10 0 198 c0 141 -3 201 -12 210 -17 17 -1879
17 -1896 0z m1886 -202 c2 -145 -1 -191 -10 -198 -15 -9 -1828 -11 -1852 -2
-14 5 -16 32 -16 193 0 103 3 191 7 194 3 4 425 6 937 5 l931 -3 3 -189z"/>
<path d="M13081 9569 c-129 -5 -253 -14 -275 -20 -45 -12 -109 -72 -104 -98 3
-13 16 -16 83 -13 44 1 287 7 540 13 253 5 468 12 478 15 38 12 3 59 -68 91
-49 21 -291 26 -654 12z m629 -31 c40 -13 80 -36 80 -48 0 -5 -69 -9 -152 -9
-84 -1 -321 -6 -527 -11 -206 -6 -376 -9 -378 -6 -6 6 39 47 63 56 32 13 175
22 474 29 292 8 384 6 440 -11z"/>
<path d="M17421 9562 c-65 -24 -124 -77 -101 -92 8 -5 48 -10 89 -10 131 0
864 -19 949 -25 75 -5 82 -4 82 14 0 25 -35 68 -73 87 -38 20 -205 31 -602 39
-270 6 -294 5 -344 -13z m678 -23 c237 -10 280 -19 303 -62 10 -20 9 -20 -141
-14 -84 4 -323 10 -532 14 -266 4 -379 10 -376 17 5 16 68 45 119 55 47 9 276
6 627 -10z"/>
<path d="M12889 9400 c-92 -4 -134 -11 -152 -23 -30 -19 -41 -64 -59 -230 -9
-93 -9 -121 2 -146 15 -38 58 -70 103 -78 30 -4 44 3 133 70 146 111 174 139
174 176 0 40 -45 153 -74 184 l-23 24 81 7 c45 3 116 6 158 6 42 0 80 5 83 10
7 11 -214 11 -426 0z m89 -46 c26 -18 65 -91 82 -153 14 -53 12 -55 -137 -172
-112 -87 -136 -96 -181 -62 -51 37 -54 58 -37 204 19 152 26 176 57 189 40 16
191 12 216 -6z"/>
<path d="M17815 9400 c3 -5 43 -10 88 -10 45 0 119 -3 163 -6 l82 -7 -24 -21
c-27 -23 -74 -141 -74 -185 0 -20 12 -40 38 -66 52 -52 230 -185 247 -185 49
0 120 55 130 100 7 31 -20 257 -36 308 -18 54 -41 63 -211 72 -211 13 -411 13
-403 0z m547 -40 c43 -12 43 -12 63 -147 23 -158 21 -199 -14 -234 -49 -49
-77 -41 -195 51 -148 115 -150 118 -136 171 21 79 52 139 79 154 31 17 149 19
203 5z"/>
<path d="M17178 9299 c-15 -8 -18 -24 -18 -82 0 -44 5 -78 12 -85 7 -7 44 -12
98 -12 54 0 91 5 98 12 7 7 12 41 12 85 0 61 -3 74 -19 83 -25 13 -161 13
-183 -1z m177 -84 l0 -70 -85 0 -85 0 -3 59 c-5 88 -5 87 90 84 l83 -3 0 -70z"/>
<path d="M13471 8929 c-93 -9 -199 -38 -248 -69 -40 -24 -46 -65 -10 -76 12
-4 1076 -7 2365 -7 2134 -1 2344 1 2359 15 52 53 -100 122 -301 138 -148 12
-4045 11 -4165 -1z m4291 -36 c93 -26 158 -58 158 -78 0 -13 -282 -15 -2349
-15 -1314 0 -2352 4 -2355 9 -13 20 64 61 154 83 94 22 369 25 2315 24 l2000
-2 77 -21z"/>
<path d="M9205 7162 c-146 -50 -308 -206 -370 -356 l-15 -36 -323 0 c-384 0
-627 12 -957 47 -213 22 -302 26 -685 30 -469 5 -1245 -10 -1410 -27 -471 -49
-1008 -213 -1267 -388 -192 -130 -479 -434 -734 -777 -180 -242 -203 -315
-254 -800 -46 -440 -60 -738 -60 -1276 0 -559 20 -950 71 -1344 44 -348 78
-467 172 -605 54 -79 338 -429 432 -534 150 -165 334 -338 426 -399 208 -138
535 -249 918 -312 204 -33 651 -48 1466 -49 575 0 614 1 945 28 288 24 424 30
823 35 l477 6 51 -77 c64 -98 169 -197 251 -237 105 -51 236 -67 279 -33 l22
19 -57 162 c-32 89 -56 163 -55 165 7 4 1314 -14 1584 -23 264 -8 272 -9 334
-36 135 -57 425 -56 558 3 l68 31 545 5 c300 3 736 11 970 17 454 12 928 2
1255 -26 377 -33 571 -40 1240 -40 575 0 711 3 880 18 742 67 1294 203 1587
392 92 60 229 197 295 295 210 313 341 796 427 1571 36 321 47 552 47 984 -1
665 -46 1184 -147 1667 -137 659 -326 985 -684 1180 -214 117 -645 241 -1103
318 -420 70 -651 84 -1412 84 -630 0 -705 -2 -1390 -50 -300 -20 -703 -22
-1500 -6 -967 20 -1057 25 -1130 53 -56 22 -73 24 -250 24 -184 -1 -192 -2
-260 -28 l-70 -28 -930 -14 c-511 -8 -931 -12 -934 -10 -2 3 26 84 62 181 83
219 84 214 -46 214 -61 -1 -109 -7 -142 -18z m155 -6 c0 -2 -35 -95 -79 -207
-43 -112 -98 -257 -121 -321 -50 -137 -40 -132 -192 -98 -112 24 -168 52 -168
84 0 35 34 127 82 218 50 98 171 226 256 271 61 33 222 71 222 53z m58 -5 c10
-6 -14 -79 -102 -315 -63 -170 -118 -312 -124 -318 -5 -5 -19 -8 -30 -6 -18 3
-10 27 93 298 136 359 133 350 142 350 5 0 14 -4 21 -9z m2333 -330 c36 -12
86 -35 110 -53 l44 -33 -86 -3 -86 -3 -35 35 c-28 28 -44 35 -92 41 -73 9
-196 1 -228 -15 -12 -7 -32 -21 -43 -30 -24 -22 -175 -40 -175 -21 0 15 66 57
120 76 111 40 352 43 471 6z m-4626 -1 c110 -6 263 -17 340 -25 230 -24 486
-45 557 -45 l67 0 9 -32 c5 -18 7 -36 5 -40 -2 -5 -84 -8 -181 -8 -695 0
-1819 -60 -2442 -130 -192 -22 -523 -68 -555 -77 -20 -6 -20 -5 -1 15 22 26
15 49 -16 54 -22 3 -145 -4 -273 -16 l-60 -6 149 75 c343 172 523 207 1131
225 327 10 446 12 895 18 96 1 265 -3 375 -8z m9340 -10 c328 -16 586 -46 708
-81 87 -26 306 -114 440 -176 l101 -48 -164 -6 c-91 -3 -173 -9 -182 -13 -27
-12 -22 -42 10 -54 15 -6 90 -34 167 -63 159 -58 230 -92 330 -157 70 -45 232
-197 254 -239 12 -23 11 -23 -52 -23 l-65 0 -55 74 c-101 133 -259 251 -427
315 -333 129 -911 216 -1832 275 l-207 13 -44 44 c-24 24 -85 66 -135 92 -51
27 -92 50 -92 53 0 8 1050 3 1245 -6z m-1239 -26 c70 -31 182 -102 209 -134
l20 -23 -155 7 c-96 4 -156 11 -159 18 -2 6 -19 28 -38 49 -34 38 -99 69 -179
86 -37 8 -34 8 36 14 169 13 204 10 266 -17z m-4082 -28 c-21 -34 -29 -34
-659 -41 -297 -3 -685 -8 -862 -12 -275 -5 -323 -4 -323 8 1 43 -21 42 777 54
417 7 831 13 921 13 l162 2 -16 -24z m511 10 c68 -29 41 -36 -136 -36 -175 0
-194 6 -125 36 43 18 216 18 261 0z m399 -8 c9 -12 16 -26 16 -30 0 -5 -34 -8
-75 -8 -51 0 -75 4 -75 12 0 6 -7 20 -17 30 -15 17 -13 18 60 18 67 0 78 -3
91 -22z m1162 -3 c588 -14 967 -10 1154 11 l55 6 -42 -31 c-23 -16 -44 -39
-48 -51 -7 -21 -10 -21 -158 -15 -203 8 -871 23 -1297 30 -190 3 -445 8 -567
11 l-222 6 -10 30 -10 29 262 -6 c144 -3 541 -12 883 -20z m1689 10 c85 -18
170 -59 192 -91 9 -14 14 -26 12 -27 -2 -2 -43 -1 -90 1 -80 4 -88 6 -100 29
-21 40 -79 62 -176 69 -106 8 -160 -5 -202 -46 -27 -28 -35 -30 -105 -30 -42
0 -76 3 -76 6 0 35 79 77 172 93 87 14 296 12 373 -4z m-6105 -35 c-1 -42 -5
-42 -340 -49 -295 -5 -323 -5 -331 11 -5 9 -9 25 -9 35 0 17 18 18 340 18 296
0 340 -2 340 -15z m6031 -20 c32 -9 78 -45 68 -53 -9 -8 -344 9 -344 17 0 5
16 17 35 27 39 22 178 26 241 9z m2575 -14 c453 -93 799 -211 996 -342 323
-215 511 -654 632 -1479 125 -852 109 -2014 -39 -2795 -153 -806 -360 -1183
-760 -1383 -164 -82 -446 -165 -771 -227 -179 -35 -288 -48 -239 -29 295 112
448 183 497 229 17 17 38 30 48 30 38 0 145 45 213 89 177 116 332 336 426
605 20 57 40 95 54 105 55 38 129 118 152 166 70 142 157 633 195 1100 31 391
41 1043 20 1411 -30 520 -98 996 -181 1267 -29 96 -32 101 -111 183 -74 77
-83 90 -110 171 -71 213 -171 377 -304 501 -98 92 -172 138 -274 173 -42 14
-122 49 -179 78 -57 29 -169 79 -249 112 -81 32 -144 59 -141 59 3 0 60 -11
125 -24z m-5325 -5 c5 -5 35 -70 85 -186 3 -7 -331 -10 -988 -11 -875 0 -1518
-10 -1930 -30 -91 -4 -128 -3 -128 5 0 6 15 11 33 11 49 0 64 16 100 110 l33
85 330 8 c974 22 2446 27 2465 8z m854 -6 c932 -16 2508 -67 2524 -81 12 -11
-26 -88 -77 -159 l-58 -80 -74 2 c-41 0 -262 13 -490 27 -784 48 -980 56
-1925 82 -431 11 -633 20 -641 28 -11 11 -84 178 -84 191 0 4 116 4 258 1 141
-3 397 -8 567 -11z m-8270 -99 c-104 -52 -226 -109 -269 -127 -123 -50 -244
-137 -372 -267 -63 -64 -114 -119 -114 -124 0 -22 28 -1 101 76 197 208 379
315 582 342 116 15 334 29 327 21 -3 -3 -64 -41 -136 -84 -227 -137 -333 -220
-540 -427 -261 -262 -461 -517 -580 -740 -41 -77 -43 -79 -50 -51 -9 34 10
231 32 334 26 124 47 158 252 404 125 151 144 177 123 177 -9 0 -205 -232
-283 -335 -105 -138 -139 -259 -142 -505 -3 -146 -4 -160 -33 -235 -48 -123
-62 -214 -89 -550 -50 -643 -54 -1017 -19 -1545 35 -526 61 -695 126 -821 16
-33 17 -44 7 -94 -23 -118 25 -388 93 -516 17 -31 74 -110 127 -175 53 -66
124 -154 159 -197 58 -71 69 -97 42 -97 -6 0 -32 24 -59 53 -34 36 -52 49 -59
42 -8 -8 32 -54 132 -156 213 -219 327 -295 477 -321 53 -9 81 -19 97 -36 30
-30 128 -75 310 -143 79 -29 141 -54 139 -57 -2 -2 -62 10 -132 28 -322 78
-527 160 -694 278 -79 56 -308 278 -434 422 -129 146 -374 456 -415 525 -35
57 -83 181 -95 244 l-6 35 36 -42 c67 -78 78 -62 115 175 34 219 37 348 14
658 -8 110 -20 357 -26 549 -12 377 -3 800 27 1171 25 318 20 438 -36 757 -7
37 -18 75 -25 85 -13 17 -17 15 -60 -27 -46 -45 -46 -45 -39 -15 12 53 64 178
96 229 121 197 457 592 653 769 186 167 327 244 632 347 98 33 183 60 188 60
6 0 -75 -43 -180 -94z m4108 45 c-5 -33 -1 -44 20 -64 28 -29 118 -59 230 -77
43 -7 74 -17 70 -21 -9 -9 -817 -43 -838 -35 -14 5 -94 155 -109 203 l-7 23
253 3 c139 1 283 3 320 5 l66 2 -5 -39z m-623 -61 c35 -80 71 -142 101 -176
19 -20 18 -20 -59 -43 -42 -12 -116 -41 -164 -63 l-87 -41 -168 91 c-312 167
-327 172 -513 179 -208 8 -747 -20 -1325 -67 -451 -38 -800 -79 -1107 -130
-97 -17 -182 -30 -190 -30 -20 1 183 129 222 140 61 18 506 78 765 104 261 27
684 59 990 75 426 24 1482 53 1496 41 4 -3 21 -39 39 -80z m7680 14 c895 -59
1492 -161 1779 -305 112 -56 229 -145 296 -226 31 -37 60 -75 65 -83 7 -13
-31 -15 -318 -15 -361 0 -380 -2 -872 -86 -403 -68 -693 -138 -784 -187 -67
-36 -122 -102 -143 -171 -9 -31 -19 -59 -22 -63 -6 -7 -1207 27 -2876 82
-1099 37 -1657 69 -2160 125 -215 24 -464 61 -473 70 -3 3 -10 15 -16 27 -6
13 -23 28 -36 35 -22 10 -947 195 -1963 393 -164 32 -300 60 -303 63 -8 7 87
49 185 82 75 25 89 26 130 17 358 -87 1252 -281 1686 -366 790 -155 1304 -200
2565 -227 424 -9 715 -9 1235 0 961 16 1338 35 1490 72 129 32 855 328 896
365 22 20 25 57 5 73 -29 24 -349 62 -738 87 -60 4 -108 9 -108 11 0 3 21 33
46 66 53 71 84 128 84 155 0 28 7 31 63 26 29 -2 158 -11 287 -20z m-8464 -95
c32 -6 88 -22 124 -36 79 -31 421 -215 418 -224 -2 -4 -24 -24 -49 -46 -42
-34 -143 -146 -209 -231 l-25 -32 -225 -25 c-1510 -172 -2933 -488 -3729 -830
-46 -19 -86 -34 -88 -32 -8 9 128 261 198 368 154 232 376 493 581 680 189
171 191 172 403 208 548 93 1293 162 2180 204 160 8 367 6 421 -4z m4401 -16
l411 -6 11 -24 c6 -13 11 -27 11 -30 0 -3 -249 -3 -552 0 -583 6 -1178 -2
-2153 -29 -874 -24 -965 -28 -968 -39 -1 -5 9 -11 23 -13 36 -4 543 -106 755
-152 232 -50 865 -174 1020 -199 516 -86 898 -120 1715 -153 396 -16 2129 -15
2522 1 370 15 648 36 719 55 76 20 159 53 319 124 212 95 327 151 340 167 20
24 -4 41 -65 49 -56 6 -546 46 -571 46 -19 0 -17 10 6 38 l20 24 272 -22 c303
-23 402 -33 499 -50 127 -22 121 -39 -48 -115 -177 -80 -621 -258 -721 -289
-165 -52 -673 -75 -1817 -83 -1434 -10 -2286 29 -2995 138 -347 53 -670 117
-1535 304 -622 135 -760 173 -683 189 12 3 228 12 478 21 1465 50 2184 61
2987 48z m1153 -23 c825 -21 1268 -42 2265 -106 121 -8 124 -9 92 -42 l-26
-27 -193 12 c-779 49 -1809 94 -2511 109 -296 7 -309 8 -323 28 -32 46 -25 48
144 42 86 -4 335 -11 552 -16z m4921 -3 c104 -35 177 -85 284 -192 115 -115
181 -218 245 -382 80 -203 146 -519 156 -738 l4 -100 -34 131 c-112 435 -259
744 -445 933 -128 132 -283 220 -552 315 -66 23 -116 45 -113 49 4 4 93 7 198
7 171 0 198 -3 257 -23z m-5937 -89 c25 -33 213 -342 276 -452 l33 -59 -209 7
c-226 8 -632 29 -864 47 -312 23 -770 91 -1265 189 -456 90 -697 141 -712 149
-6 3 -27 29 -46 57 l-34 52 146 6 c80 3 369 11 641 16 272 6 536 12 585 13 50
2 390 4 757 5 l667 2 25 -32z m242 22 l72 0 92 -217 c51 -120 101 -238 111
-262 11 -24 19 -47 19 -52 0 -10 -143 -10 -179 0 -18 5 -43 38 -93 126 -37 65
-107 179 -153 252 -47 73 -89 141 -92 150 -6 14 2 16 72 10 43 -4 111 -7 151
-7z m361 -12 c6 -7 12 -22 15 -33 16 -60 129 -472 133 -482 3 -10 -18 -13 -88
-13 l-93 0 -116 270 -115 270 127 0 c90 0 130 -4 137 -12z m953 -23 c366 -14
705 -30 1193 -57 247 -13 238 -9 239 -98 0 -57 3 -52 -140 -213 -57 -63 -113
-118 -125 -122 -12 -3 -455 -9 -984 -12 l-961 -6 -12 44 c-30 116 -101 371
-119 428 l-20 64 272 -7 c150 -3 445 -13 657 -21z m-4376 -42 c22 -30 30 -49
23 -51 -13 -3 -347 63 -382 76 -11 4 43 9 120 12 77 3 155 7 172 8 29 2 37 -4
67 -45z m6116 -52 c30 -6 29 -7 -163 -199 l-193 -193 -82 3 -82 3 101 110 c56
61 110 124 120 140 21 33 25 89 9 130 l-10 27 134 -7 c75 -4 149 -10 166 -14z
m435 -32 c143 -11 266 -24 273 -28 25 -14 -501 -250 -625 -281 -66 -16 -286
-40 -372 -40 -22 0 4 30 164 190 l190 190 55 -5 c30 -3 172 -14 315 -26z
m-6795 -169 c1450 -286 1412 -278 1434 -300 20 -19 20 -20 -17 -167 -204 -817
-268 -1884 -171 -2848 18 -183 56 -448 89 -632 24 -130 106 -490 119 -523 16
-39 -13 -48 -419 -140 -562 -127 -1659 -384 -1789 -420 l-110 -29 -35 26
c-101 76 -259 267 -354 430 -217 369 -373 993 -428 1713 -25 326 -14 844 27
1210 70 637 255 1246 469 1545 104 145 263 305 305 305 8 0 404 -77 880 -170z
m9153 -127 c19 -11 101 -194 142 -318 186 -557 278 -1205 277 -1965 0 -418
-22 -748 -73 -1100 -59 -411 -172 -846 -286 -1108 l-45 -102 -237 0 -236 0 52
31 c70 41 105 84 163 204 169 351 298 930 341 1530 16 223 16 875 0 1085 -46
608 -167 1155 -335 1515 -50 106 -90 155 -171 208 l-60 39 230 -7 c127 -4 234
-9 238 -12z m-457 -23 c32 -16 75 -42 94 -59 l35 -29 -45 -12 c-25 -7 -198
-45 -384 -86 -353 -77 -619 -142 -714 -175 l-55 -19 -74 51 c-41 28 -115 70
-166 94 l-92 43 43 11 c195 53 603 131 917 175 241 34 230 33 311 35 60 1 80
-3 130 -29z m642 1 c25 -30 151 -295 187 -394 302 -825 358 -2246 129 -3322
-58 -271 -169 -587 -276 -782 l-40 -73 -73 0 -74 0 33 73 c116 252 235 708
295 1132 102 711 104 1443 5 2173 -55 411 -192 930 -305 1154 -16 32 -29 60
-29 62 0 3 30 3 68 -1 44 -3 71 -11 80 -22z m-10588 -38 c-190 -317 -334 -784
-409 -1323 -47 -342 -56 -476 -56 -915 0 -271 5 -470 13 -560 70 -744 233
-1341 464 -1694 l22 -34 -35 6 c-19 4 -212 31 -429 61 -1281 178 -2186 361
-2940 598 -262 82 -631 216 -653 237 -23 22 -51 244 -84 651 -28 350 -25 1098
5 1485 32 415 56 591 86 622 17 18 314 136 514 204 810 276 1908 502 3222 664
146 18 273 33 283 34 18 1 17 -2 -3 -36z m10144 -185 c153 -316 265 -787 323
-1358 26 -253 26 -1114 0 -1370 -55 -546 -173 -1045 -324 -1370 -52 -112 -7
-110 -423 -15 -534 121 -796 192 -806 220 -3 7 6 30 19 52 14 21 31 55 38 75
14 41 29 50 29 18 0 -11 19 -39 43 -64 51 -53 73 -60 467 -152 326 -77 378
-81 455 -42 28 15 62 39 76 55 89 95 200 470 263 883 33 216 59 494 51 537 -3
19 -29 78 -58 131 l-52 97 -3 221 c-2 136 1 237 7 261 6 22 29 67 50 101 55
85 64 126 56 252 -31 508 -183 1186 -295 1322 -42 50 -139 98 -201 98 -39 0
-594 -122 -729 -160 -58 -16 -96 -45 -118 -90 l-20 -42 -21 48 c-12 26 -33 63
-47 82 -14 18 -24 35 -23 37 18 18 461 127 829 205 107 22 229 49 270 60 41
10 78 19 82 19 5 1 32 -50 62 -111z m-7189 -13 c632 -90 1281 -125 3735 -200
624 -19 1229 -37 1343 -41 l209 -7 -7 -91 c-41 -600 -45 -2650 -5 -3309 7
-115 6 -153 -3 -159 -7 -4 -68 -8 -135 -8 -68 0 -336 -7 -595 -15 -260 -8
-848 -26 -1307 -40 -1700 -51 -2031 -64 -2485 -96 -365 -25 -742 -68 -911
-103 -35 -8 -66 -11 -68 -7 -7 11 -84 353 -110 488 -56 289 -103 674 -127
1048 -14 223 -14 812 0 1045 32 510 116 1093 208 1433 l26 99 31 -6 c17 -4
107 -17 201 -31z m5681 -29 c263 -127 317 -200 384 -516 83 -391 123 -874 123
-1470 1 -507 -29 -920 -94 -1309 -65 -395 -116 -514 -258 -610 -68 -46 -274
-151 -297 -151 -24 0 -115 54 -146 87 -29 31 -63 94 -73 134 -6 24 -3 27 32
32 21 4 128 7 238 7 110 0 217 3 237 6 89 15 11 20 -245 16 l-274 -5 -7 129
c-41 805 -40 2526 3 3309 l6 120 279 -4 c183 -3 277 -1 273 6 -4 6 -116 13
-274 17 -147 4 -269 9 -272 12 -2 2 1 21 7 42 20 64 70 129 130 167 72 46 100
43 228 -19z m2311 -39 c65 -69 77 -93 113 -233 63 -245 117 -614 152 -1049 18
-217 18 -1172 0 -1390 -51 -638 -136 -1132 -217 -1271 -21 -36 -123 -139 -130
-132 -2 2 10 52 26 113 54 205 71 334 74 540 3 139 10 237 29 365 60 414 81
762 73 1225 -7 409 -29 682 -78 985 -14 83 -22 184 -23 300 -3 178 -25 358
-65 523 -10 42 -15 77 -11 77 4 0 30 -24 57 -53z m-991 -15 c52 -26 91 -67
119 -122 24 -49 81 -219 114 -340 62 -230 128 -663 138 -905 7 -166 8 -159
-70 -280 l-32 -50 -3 -250 -3 -250 57 -115 56 -115 -5 -125 c-19 -404 -144
-996 -258 -1221 -44 -87 -124 -139 -215 -139 -77 0 -674 140 -750 176 -48 23
-84 79 -86 135 0 24 13 116 31 203 37 186 73 458 98 746 25 287 25 1153 0
1440 -25 290 -65 595 -101 771 -34 165 -33 201 1 248 11 14 35 34 54 44 19 10
187 54 374 98 367 85 406 89 481 51z m-14158 -422 c43 -252 48 -344 29 -612
-50 -693 -50 -1110 0 -1886 14 -227 15 -290 5 -380 -13 -119 -51 -352 -58
-364 -11 -17 -25 -6 -65 53 -34 51 -43 75 -55 147 -93 584 -115 1717 -48 2492
16 187 51 518 60 561 6 30 94 134 104 122 4 -4 17 -64 28 -133z m318 -3004
c181 -71 616 -212 866 -280 705 -192 1517 -347 2643 -502 l420 -58 40 -55 c22
-31 91 -107 153 -170 62 -63 111 -115 110 -116 -2 -1 -79 -42 -173 -92 -355
-189 -346 -187 -635 -185 -436 3 -1112 49 -1685 113 -290 32 -633 78 -723 97
-81 16 -88 20 -190 101 -59 47 -179 157 -268 245 -218 219 -346 375 -509 624
-73 113 -175 296 -175 316 0 11 12 7 126 -38z m14814 -186 c-38 -297 -142
-638 -254 -828 -124 -212 -281 -352 -450 -404 -64 -19 -83 -20 -250 -14 -100
4 -184 11 -189 15 -4 4 44 24 108 45 431 142 686 390 865 840 72 183 165 485
172 560 1 11 4 -13 6 -54 1 -41 -2 -113 -8 -160z m-14779 -114 c230 -349 474
-622 772 -864 102 -83 175 -130 310 -202 65 -34 116 -67 114 -74 -6 -18 -112
-27 -303 -24 l-180 3 -77 38 c-86 43 -189 122 -286 221 -55 55 -62 67 -52 80
7 9 11 26 8 38 -4 13 -76 109 -162 213 -223 273 -263 365 -271 630 -4 116 -2
137 8 121 7 -10 61 -91 119 -180z m12108 -83 c34 -101 99 -170 197 -207 143
-54 672 -161 1125 -226 183 -26 257 -32 517 -38 l303 -7 -40 -63 c-104 -159
-315 -315 -537 -395 -155 -56 -504 -121 -864 -161 -346 -39 -837 -76 -1006
-76 l-70 0 -13 50 c-7 27 -37 89 -67 136 -30 48 -53 88 -52 90 2 1 82 10 178
19 282 26 531 54 588 66 60 12 88 42 78 84 -8 31 -43 49 -379 197 -520 228
-518 228 -887 248 -733 39 -2325 56 -2950 31 -797 -32 -1141 -65 -1643 -157
-421 -77 -1191 -263 -1770 -428 l-228 -65 -92 23 c-101 26 -204 63 -212 75 -8
13 514 139 2019 485 215 49 242 58 265 83 24 26 39 31 191 56 424 69 1051 111
2215 147 586 18 1055 33 2385 74 234 7 494 13 578 12 l153 -1 18 -52z m806
-72 c152 -44 380 -99 705 -171 151 -33 281 -63 289 -66 34 -12 -79 -94 -165
-120 -40 -12 -66 -11 -234 11 -393 52 -1111 189 -1110 213 0 4 49 30 108 59
59 28 134 71 167 96 l59 45 36 -18 c19 -10 85 -32 145 -49z m-2895 -201 c445
-10 975 -26 1145 -35 258 -14 350 -26 461 -64 70 -23 738 -315 772 -337 25
-16 29 -46 9 -62 -20 -17 -170 -38 -462 -67 -143 -14 -285 -28 -315 -31 -53
-5 -56 -4 -73 26 -11 17 -17 33 -15 34 1 2 89 11 193 20 224 20 427 43 450 52
10 4 15 16 13 33 -3 23 -26 37 -228 133 -385 183 -432 198 -665 217 -654 52
-2663 58 -3590 11 -736 -38 -1320 -143 -2539 -456 -348 -90 -426 -112 -426
-123 0 -16 28 -19 264 -26 130 -5 238 -11 241 -14 2 -4 0 -12 -4 -19 -5 -9
-90 -10 -359 -5 -194 3 -352 10 -352 14 0 32 383 147 1010 303 610 153 1032
242 1400 296 606 88 1799 127 3070 100z m-1330 -73 c0 -11 -40 -127 -187 -544
l-15 -43 -149 0 c-82 0 -149 2 -149 5 0 2 54 105 119 227 65 123 134 252 152
288 l34 65 80 6 c44 3 88 6 98 7 9 1 17 -4 17 -11z m227 -9 c-3 -13 -31 -142
-63 -288 -31 -146 -60 -268 -63 -272 -11 -12 -271 -22 -271 -10 0 6 5 23 11
39 6 15 51 142 100 281 49 139 91 257 94 263 4 5 49 9 102 9 94 0 95 0 90 -22z
m1308 11 c341 -6 632 -14 647 -18 20 -4 59 -46 139 -146 l111 -140 -7 -69 c-9
-91 -10 -94 -58 -100 -161 -21 -1308 -78 -2031 -102 l-209 -7 6 24 c3 13 31
141 62 284 31 143 58 266 60 273 6 16 437 16 1280 1z m-1793 -71 c-21 -40 -92
-173 -157 -294 -116 -218 -118 -222 -154 -228 -56 -9 -1191 -7 -1621 4 -496
12 -1174 32 -1178 35 -2 2 17 32 42 68 53 75 -4 55 494 172 870 203 1297 266
2007 295 385 15 399 16 508 18 l98 2 -39 -72z m2818 -110 c80 -88 164 -182
188 -209 l42 -47 -27 -6 c-16 -2 -73 -7 -128 -11 -55 -3 -122 -8 -149 -11
l-49 -6 7 53 c4 30 9 68 12 85 5 27 -4 43 -73 130 -43 54 -93 118 -111 142
l-34 42 89 0 89 0 144 -162z m92 142 c197 -17 214 -23 740 -269 92 -43 109
-56 81 -65 -26 -7 -258 -33 -467 -51 l-178 -15 -62 67 c-133 144 -306 338
-306 343 0 4 15 5 33 3 17 -1 89 -7 159 -13z m3068 -96 c0 -14 -95 -126 -166
-195 -134 -130 -268 -207 -499 -288 -107 -38 -131 -50 -133 -67 -2 -13 4 -24
15 -29 10 -4 89 -10 176 -13 110 -3 157 -8 154 -16 -8 -29 -325 -169 -558
-247 -105 -35 -239 -52 -534 -68 -204 -12 -1142 -13 -1289 -2 l-89 6 44 24
c69 38 156 109 176 142 10 16 27 32 38 34 11 2 124 8 250 14 706 34 1357 120
1666 221 238 78 482 259 579 428 l35 61 68 1 c37 0 67 -3 67 -6z m-9067 -341
c-16 -21 -40 -55 -52 -75 l-23 -38 -91 0 c-119 0 -349 12 -343 17 6 6 530 139
535 136 2 -1 -10 -19 -26 -40z m-1022 -27 c46 -19 120 -42 164 -52 l80 -18
-50 -50 c-53 -54 -105 -148 -127 -230 l-13 -49 -255 7 c-140 3 -421 11 -625
16 -730 20 -1552 85 -2129 170 -133 19 -142 22 -249 80 -162 85 -166 89 -76
74 41 -7 182 -26 314 -43 718 -91 1489 -150 2027 -154 310 -3 303 -5 693 207
77 42 145 76 151 76 5 0 48 -15 95 -34z m7204 8 c9 -14 14 -28 11 -31 -22 -22
-1609 -111 -2376 -133 -195 -5 -426 -12 -512 -15 -149 -5 -158 -5 -158 13 0
49 -4 49 465 61 776 21 1842 75 2340 120 50 5 118 9 151 10 56 1 63 -1 79 -25z
m64 -92 c43 -55 109 -181 113 -217 l3 -30 -110 -7 c-128 -8 -852 -43 -1200
-58 -469 -20 -1126 -39 -1574 -46 l-453 -7 7 24 c4 13 27 69 52 125 l44 101
297 7 c779 18 1591 57 2517 121 193 14 238 18 267 24 3 0 20 -16 37 -37z
m-5654 -15 c241 -7 850 -12 1478 -12 945 0 1066 -2 1061 -15 -3 -8 -8 -22 -11
-31 -11 -38 -1357 -38 -2778 2 -225 6 -412 13 -413 14 -2 2 4 18 15 35 l18 32
110 -6 c61 -3 295 -12 520 -19z m-827 -67 c64 0 113 -3 109 -6 -3 -3 -36 -13
-74 -20 -134 -29 -143 -52 -78 -207 7 -16 -6 -17 -236 -12 -134 3 -286 8 -337
11 -89 6 -92 7 -86 27 20 66 47 129 75 172 l31 48 240 -6 c133 -4 293 -7 356
-7z m288 -45 c16 -39 172 -468 210 -579 l24 -69 -60 6 c-170 15 -329 157 -451
403 -68 138 -80 183 -54 204 16 14 244 67 293 69 17 1 27 -8 38 -34z m82 -37
c59 -144 213 -588 207 -598 -12 -19 -33 -10 -40 18 -5 22 -186 526 -224 625
-9 23 -8 27 8 27 14 0 27 -19 49 -72z m922 51 c300 -6 881 -9 1293 -7 411 1
747 2 747 0 0 -1 -23 -56 -52 -122 l-52 -120 -645 0 c-778 0 -2102 19 -2115
31 -8 7 -95 225 -96 238 0 2 84 1 188 -2 103 -4 432 -12 732 -18z m-4898 -49
c793 -101 1383 -140 2566 -166 l302 -7 -6 -36 c-4 -20 -8 -37 -9 -39 -2 -2
-74 -7 -161 -13 -88 -5 -247 -16 -354 -24 -348 -27 -540 -35 -840 -35 -383 0
-1242 18 -1392 30 -129 10 -160 19 -453 132 -193 74 -276 115 -283 137 -3 8
-1 11 4 9 5 -3 77 -2 161 2 114 5 158 11 175 23 30 21 22 21 290 -13z m10178
-137 c-28 -36 -121 -105 -190 -142 l-55 -30 -137 6 c-76 3 -135 10 -132 14 3
5 16 9 29 9 36 0 117 33 157 64 19 14 43 42 53 61 21 38 12 36 233 43 l63 2
-21 -27z m-300 -13 c-17 -32 -88 -79 -144 -96 -81 -24 -364 -31 -444 -10 -61
15 -152 67 -152 86 0 6 36 10 79 10 62 0 80 -3 85 -16 3 -8 27 -24 52 -36 40
-17 62 -20 153 -16 117 4 169 21 191 63 16 29 26 32 118 34 70 1 72 0 62 -19z
m-205 -10 c-28 -31 -83 -44 -185 -45 -95 0 -148 14 -157 42 -4 12 4 13 286 21
73 2 74 2 56 -18z m-559 -21 c10 -12 37 -35 58 -50 l39 -29 -29 0 c-16 0 -153
5 -304 10 -183 7 -409 7 -675 0 -714 -17 -1365 -24 -1365 -14 0 6 6 17 13 26
10 14 69 16 462 22 535 7 1491 37 1761 55 11 0 29 -9 40 -20z m-5851 -4 c272
-5 312 -8 323 -22 32 -43 30 -43 -348 -43 l-360 0 6 28 c11 50 12 52 41 47 15
-2 168 -7 338 -10z m2038 -32 c566 -6 588 -7 598 -25 6 -11 9 -22 6 -24 -2 -3
-330 0 -728 6 -398 6 -804 12 -903 13 l-179 2 -9 24 -9 24 318 -6 c175 -4 583
-10 906 -14z m1519 -9 c3 -3 4 -14 1 -25 -5 -17 -14 -19 -79 -19 l-74 0 16 25
c14 22 24 25 73 25 32 0 60 -3 63 -6z m-731 -28 c29 -37 82 -51 194 -51 112 0
165 14 194 51 17 22 25 24 107 24 l89 -1 -36 -33 c-20 -18 -62 -44 -95 -57
-54 -21 -74 -23 -239 -23 -158 1 -187 3 -237 22 -52 19 -148 76 -148 87 0 3
34 5 76 5 69 0 78 -2 95 -24z m359 9 c-19 -23 -77 -35 -172 -35 -85 0 -168 20
-168 41 0 5 79 9 176 9 155 0 175 -2 164 -15z"/>
<path d="M8330 6029 c-118 -22 -235 -114 -298 -236 -134 -261 -273 -802 -337
-1313 -60 -480 -60 -1234 0 -1698 44 -338 104 -634 186 -912 53 -181 125 -382
163 -457 55 -108 188 -201 300 -210 52 -5 103 4 317 55 321 77 758 176 1060
242 270 58 309 70 343 111 53 63 54 86 7 331 -48 248 -101 610 -126 853 -9 88
-19 186 -23 218 l-7 58 -66 22 c-126 43 -146 69 -161 221 -6 55 -15 106 -22
112 -6 6 -49 21 -96 33 -106 29 -204 76 -237 115 -22 26 -25 37 -21 88 3 43
10 64 29 84 30 34 140 86 244 116 44 12 83 27 86 31 4 5 10 59 14 119 12 198
40 242 175 284 44 14 62 24 65 39 2 11 11 94 20 185 30 307 68 559 132 872 40
199 39 229 -9 283 -45 52 -23 47 -1078 248 -627 120 -601 116 -660 106z m688
-135 c1078 -208 1020 -193 1053 -268 l19 -45 -44 -223 c-49 -243 -94 -539
-126 -830 -11 -103 -20 -189 -20 -192 0 -3 -7 -6 -15 -6 -27 0 -139 -56 -162
-81 -34 -37 -50 -87 -57 -174 -15 -176 -13 -172 -53 -180 -60 -11 -198 -64
-246 -95 -25 -16 -53 -43 -62 -61 -23 -44 -22 -130 1 -170 31 -52 146 -108
310 -149 l41 -10 6 -95 c4 -52 13 -109 20 -127 22 -51 70 -89 144 -114 61 -20
68 -26 71 -51 26 -279 39 -391 72 -624 22 -152 56 -357 75 -455 19 -99 35
-197 35 -219 0 -53 -29 -105 -71 -126 -19 -10 -249 -66 -512 -124 -263 -58
-610 -138 -770 -177 -339 -83 -389 -88 -480 -46 -34 16 -82 51 -116 85 -50 50
-63 72 -98 163 -138 354 -246 786 -303 1210 -40 304 -54 539 -54 925 1 502 31
849 110 1260 81 419 227 861 323 976 63 75 184 138 269 139 24 0 312 -52 640
-116z"/>
<path d="M3306 5142 c-49 -156 -57 -227 -98 -867 -8 -124 -13 -410 -13 -755 1
-471 4 -600 23 -850 27 -366 69 -631 107 -669 12 -12 15 -11 24 10 16 36 51
309 51 393 0 41 -7 155 -15 253 -8 98 -19 266 -25 373 -12 207 -15 879 -6
1039 4 53 16 245 27 426 19 285 20 349 10 470 -13 156 -30 246 -48 252 -7 3
-21 -26 -37 -75z m62 -203 c6 -74 8 -159 6 -189 -64 -839 -68 -1421 -13 -2090
l21 -265 -23 -183 c-13 -100 -27 -176 -31 -168 -13 23 -56 276 -67 396 -19
194 -40 592 -47 870 -9 380 19 1144 57 1530 9 95 52 310 68 335 7 13 17 -66
29 -236z"/>
</g>
</svg>
