<?xml version="1.0" standalone="no"?>
<!DOCTYPE svg PUBLIC "-//W3C//DTD SVG 20010904//EN"
 "http://www.w3.org/TR/2001/REC-SVG-20010904/DTD/svg10.dtd">
<svg version="1.0" xmlns="http://www.w3.org/2000/svg"
 width="1080.000000pt" height="976.000000pt" viewBox="0 0 1080.000000 976.000000"
 preserveAspectRatio="xMidYMid meet">

<g transform="translate(0.000000,976.000000) scale(0.100000,-0.100000)"
fill="#000000" stroke="none">
<path d="M6000 9384 c-474 -22 -741 -55 -965 -120 -261 -75 -856 -372 -1294
-647 l-145 -90 -72 11 c-63 10 -108 8 -311 -13 -706 -74 -1146 -162 -1426
-284 -110 -48 -279 -164 -313 -215 -10 -17 -13 -30 -6 -41 6 -12 -1 -46 -25
-113 -18 -54 -33 -105 -33 -115 0 -9 -11 -22 -24 -28 -31 -15 -36 -33 -36
-152 0 -78 3 -99 15 -103 11 -5 15 -24 15 -81 0 -41 -5 -83 -11 -94 -9 -17 -6
-25 17 -46 30 -27 30 -26 -23 -60 -30 -19 2 -39 107 -68 76 -21 148 -29 365
-45 403 -28 419 -28 423 -7 3 14 14 17 65 17 l62 0 35 -61 c101 -177 282 -286
490 -297 115 -5 191 11 300 65 92 46 202 152 245 235 l30 58 68 0 c62 0 67 -2
67 -22 l0 -21 583 6 c320 4 1052 11 1627 17 1279 12 1470 17 1470 36 0 10 16
14 63 14 l63 0 32 -65 c19 -39 60 -94 102 -139 308 -323 829 -210 994 217 l15
37 60 0 c38 0 61 -4 63 -12 4 -10 97 -2 394 34 214 26 415 47 448 47 32 0 64
5 71 11 7 6 34 17 61 25 27 8 64 24 82 35 26 16 31 24 26 44 -4 18 2 35 24 63
35 44 46 86 33 129 -5 18 -5 63 2 115 5 46 7 110 3 142 -7 54 -10 60 -59 98
-29 23 -55 47 -59 54 -4 7 -19 70 -33 141 l-25 129 41 59 c48 68 48 77 -7 199
-28 61 -35 88 -31 117 2 21 2 42 -2 48 -4 6 -34 14 -66 17 -33 3 -197 24 -365
47 l-305 40 -160 75 c-417 196 -853 368 -1097 432 -312 82 -676 119 -1243 125
-192 2 -384 2 -425 0z m1020 -38 c185 -17 271 -28 410 -52 118 -20 340 -76
340 -84 0 -8 -78 -40 -98 -40 -6 0 -50 11 -98 25 -209 61 -484 105 -769 125
-191 13 -836 13 -1020 0 -274 -20 -466 -51 -653 -104 -118 -34 -122 -35 -159
-19 l-38 16 34 14 c58 24 270 71 416 92 121 17 217 26 515 45 149 10 956 -3
1120 -18z m-110 -46 c258 -23 523 -73 710 -132 194 -62 489 -187 865 -368 94
-45 193 -88 220 -95 28 -7 68 -20 91 -28 22 -8 181 -34 352 -58 172 -24 309
-46 304 -50 -4 -4 -72 -33 -152 -64 -80 -31 -160 -62 -178 -70 -28 -13 -139
-15 -717 -15 l-685 0 0 23 c0 12 -11 46 -25 75 -14 30 -25 56 -25 57 0 2 108
5 240 7 211 3 241 5 257 20 42 43 -17 96 -296 271 -366 228 -524 292 -829 337
-261 38 -396 45 -857 45 -476 0 -604 -9 -834 -56 -347 -71 -697 -251 -1159
-596 -163 -122 -202 -164 -229 -249 l-17 -54 -46 0 c-64 0 -419 -18 -610 -30
-353 -24 -676 -69 -918 -129 -87 -21 -152 -30 -252 -34 l-135 -6 60 25 c197
82 590 153 1205 219 187 20 367 44 407 55 112 31 194 74 378 200 472 324 830
519 1105 604 163 50 465 94 755 110 142 7 894 -3 1015 -14z m-800 -59 c0 -12
-68 -19 -256 -25 -280 -10 -546 -55 -749 -126 -220 -78 -569 -279 -863 -499
-68 -51 -131 -91 -140 -89 -22 4 268 219 450 333 179 113 435 243 559 283 200
67 404 103 674 121 174 12 325 12 325 2z m620 -11 c329 -26 662 -92 629 -125
-3 -2 -21 0 -40 6 -219 65 -579 105 -1013 112 -141 2 -181 6 -184 16 -4 12 35
13 234 8 132 -3 300 -11 374 -17z m-751 -87 c-11 -38 -51 -178 -89 -312 -39
-134 -72 -247 -75 -250 -5 -4 -994 -48 -1137 -50 l-38 -1 0 45 c0 114 -89 178
-187 135 -69 -30 -48 -15 127 95 183 114 438 242 566 284 198 65 496 109 796
119 l57 2 -20 -67z m121 56 c0 -10 -106 -550 -117 -596 -5 -21 -11 -23 -77
-23 l-73 0 90 315 90 315 43 0 c25 0 44 -5 44 -11z m103 -16 c-2 -16 -17 -154
-34 -308 -17 -154 -32 -281 -33 -282 -1 -1 -35 -6 -74 -9 -60 -6 -72 -4 -68 7
3 8 30 142 61 299 31 157 58 293 61 303 4 13 16 17 48 17 41 0 42 -1 39 -27z
m587 2 c175 -16 246 -26 377 -52 l83 -16 76 -144 76 -145 -13 -94 c-7 -51 -15
-98 -18 -102 -6 -9 -1208 -48 -1216 -40 -2 2 11 134 30 293 19 160 35 299 35
309 0 18 8 19 203 13 111 -4 276 -14 367 -22z m-1829 1 l34 -15 -60 -26 c-236
-103 -559 -292 -890 -521 l-180 -125 -85 6 c-47 4 -101 10 -120 14 l-34 7 122
77 c261 166 677 388 987 528 83 38 160 68 171 69 12 0 37 -6 55 -14z m2966
-25 c292 -105 973 -400 973 -422 0 -11 -149 -31 -183 -24 -17 4 -151 63 -296
132 -262 124 -457 209 -623 274 -49 19 -88 37 -88 40 0 9 70 38 92 38 9 1 65
-16 125 -38z m-403 -109 c215 -104 611 -355 637 -404 23 -42 2 -46 -263 -54
-167 -5 -248 -4 -248 3 0 17 65 23 243 23 182 0 196 5 164 53 -34 52 -391 282
-573 369 -56 27 -105 55 -108 63 -3 8 -3 15 1 15 3 0 69 -31 147 -68z m-22
-198 l118 -219 -111 -8 c-61 -5 -113 -6 -116 -3 -3 3 1 47 10 98 l16 93 -69
143 c-39 79 -70 145 -70 147 0 2 23 -4 52 -14 l52 -17 118 -220z m37 145 c176
-93 472 -287 511 -334 25 -30 -8 -35 -216 -35 l-200 0 -23 48 c-12 26 -62 119
-109 207 -101 185 -96 175 -86 175 4 0 59 -28 123 -61z m1732 -309 c151 -22
293 -40 317 -40 56 0 47 -12 -30 -43 l-63 -25 -330 48 c-181 26 -343 51 -360
56 -28 7 -25 9 40 25 101 24 124 23 426 -21z m-4687 -14 c29 -30 56 -90 44
-101 -8 -8 -308 -17 -308 -9 0 16 34 61 65 86 83 69 146 76 199 24z m-249 -53
c-15 -23 -25 -52 -25 -74 0 -33 -3 -37 -31 -43 -17 -3 -54 -6 -82 -6 l-50 0
104 79 c57 44 105 80 107 80 1 1 -9 -16 -23 -36z m5344 -151 c12 -23 26 -53
31 -67 9 -23 9 -23 -25 -9 -19 8 -50 14 -69 14 -29 0 -39 7 -69 48 -19 26 -37
62 -40 80 -6 32 -5 33 51 57 31 14 64 29 72 34 12 7 16 -2 21 -53 3 -33 16
-80 28 -104z m-2045 129 c7 -10 -125 -16 -889 -36 -302 -8 -596 -17 -652 -20
-88 -5 -103 -3 -103 10 0 12 13 15 63 16 34 0 321 9 637 18 673 21 937 24 944
12z m46 -83 c17 -35 30 -70 30 -79 0 -18 3 -18 -995 -39 -253 -5 -531 -12
-617 -16 l-156 -6 18 72 c10 39 20 73 22 75 3 3 783 28 1383 44 154 4 281 9
283 9 2 1 16 -26 32 -60z m-1710 38 c0 -15 32 -13 -819 -47 -282 -11 -516 -17
-519 -14 -19 18 23 21 838 54 245 10 457 19 473 20 17 0 27 -4 27 -13z m3525
-23 c4 -21 20 -55 37 -76 17 -21 29 -39 27 -40 -2 -1 -103 -1 -223 1 l-220 3
142 54 c79 30 159 62 180 73 50 26 49 27 57 -15z m-4865 9 c0 -35 -24 -52 -89
-63 -89 -14 -168 -3 -199 28 -13 13 -21 27 -18 31 4 3 68 9 144 12 75 4 143 7
150 8 6 1 12 -6 12 -16z m-1075 -24 c97 -14 119 -28 44 -28 -75 0 -623 -55
-846 -86 -554 -74 -910 -176 -1148 -329 -31 -19 -58 -42 -61 -50 -7 -16 -54
-21 -54 -6 0 6 34 37 76 69 262 205 661 310 1564 412 287 33 319 34 425 18z
m2401 -25 c-3 -21 -10 -54 -16 -74 l-10 -36 -148 -7 c-81 -4 -275 -11 -432
-16 -250 -9 -680 -26 -1218 -48 -185 -8 -179 -11 -141 78 l21 48 106 6 c59 4
124 8 144 10 35 4 37 3 27 -16 -20 -38 -5 -48 72 -48 69 0 73 1 104 34 31 33
36 34 141 45 60 6 354 20 654 31 579 21 667 25 689 28 10 2 12 -7 7 -35z
m-2130 -12 c-9 -13 -131 -60 -200 -76 -33 -8 -173 -26 -311 -40 -712 -73
-1128 -152 -1333 -253 -20 -10 -75 -24 -122 -31 -47 -7 -132 -23 -188 -37 -57
-13 -109 -24 -115 -24 -20 0 93 72 185 117 300 149 765 242 1618 322 316 30
475 37 466 22z m484 -1 c0 -5 -17 -10 -37 -11 -21 -1 -82 -4 -136 -8 -63 -4
-96 -3 -94 4 7 20 267 34 267 15z m42 -1 c12 -7 44 -14 72 -18 l51 -6 -27 -28
c-24 -23 -35 -27 -88 -27 -65 0 -68 3 -48 57 14 38 12 37 40 22z m3351 -75 c3
-4 -6 -30 -20 -58 -24 -48 -572 -876 -597 -904 -10 -10 -23 -10 -70 2 -133 35
-245 39 -606 22 -190 -9 -382 -18 -426 -21 l-82 -6 -7 56 c-3 31 -5 58 -3 60
2 2 230 15 508 29 494 26 596 33 588 42 -4 4 -822 -38 -1010 -52 l-88 -6 0
164 c0 90 5 225 11 299 10 132 34 328 41 334 4 3 794 24 1338 34 206 4 384 8
396 9 11 1 23 -1 27 -4z m1225 -2 c131 -3 142 -4 142 -22 0 -22 109 -162 145
-186 34 -22 42 -39 60 -124 19 -89 8 -119 -45 -133 -19 -5 -172 -23 -340 -41
l-305 -33 -40 37 c-101 92 -190 145 -315 186 -77 25 -99 28 -230 28 -123 1
-157 -3 -224 -22 -271 -78 -469 -284 -541 -562 -19 -74 -34 -190 -25 -190 4 0
10 28 14 63 21 206 123 405 273 530 68 56 212 130 298 153 153 40 352 25 502
-37 76 -32 189 -107 236 -157 l28 -30 -45 -6 c-42 -7 -49 -4 -98 33 -279 210
-674 185 -919 -59 -141 -140 -200 -303 -214 -591 l-7 -136 -606 -7 c-334 -3
-1037 -11 -1562 -16 -525 -5 -1070 -12 -1211 -14 l-257 -5 -6 22 c-3 12 -6 39
-6 60 l0 37 53 0 c88 0 2287 49 2712 60 523 14 533 16 637 117 32 32 62 53 70
50 7 -3 30 -12 51 -21 20 -9 37 -13 37 -8 0 4 -22 16 -50 26 -30 11 -47 22
-43 29 3 6 138 207 298 446 160 240 300 457 311 484 l19 47 530 -2 c292 -1
594 -4 673 -6z m643 -10 c6 -6 39 -183 39 -206 0 -3 -77 -6 -170 -6 -196 0
-205 3 -267 77 -47 56 -93 122 -93 134 0 4 10 9 23 11 40 6 462 -4 468 -10z
m122 -14 c22 -12 22 -49 -2 -79 -39 -50 -54 -90 -42 -115 5 -13 17 -64 26
-114 9 -49 18 -97 21 -105 4 -9 0 -15 -9 -15 -18 0 -20 6 -42 118 -9 45 -13
91 -10 102 3 11 2 20 -3 20 -5 0 -15 35 -22 78 -6 42 -14 90 -17 106 l-6 28
44 -7 c24 -4 52 -11 62 -17z m-3770 -25 c-21 -105 -36 -306 -40 -520 l-5 -261
-82 -6 c-44 -4 -324 -20 -621 -36 -297 -17 -691 -39 -875 -49 -184 -11 -336
-19 -336 -18 -1 1 -8 61 -15 132 -22 228 -13 664 14 692 7 6 1872 83 1937 79
14 0 24 -6 23 -13z m-1987 -110 c-21 -165 -16 -542 11 -740 l6 -43 -42 0 c-22
0 -41 -4 -41 -9 0 -6 16 -7 36 -4 43 7 54 -5 54 -59 0 -35 -1 -36 -42 -43 -66
-11 -197 -69 -185 -82 3 -2 20 5 38 16 46 27 108 48 154 53 l38 3 13 -64 c8
-36 13 -66 11 -67 -1 -1 -81 -4 -178 -8 l-176 -7 -6 118 c-8 150 -27 225 -84
343 -123 254 -398 402 -686 370 -164 -19 -286 -80 -410 -203 -71 -72 -81 -78
-114 -75 l-35 3 47 63 c93 124 271 236 425 268 116 24 302 15 405 -20 121 -41
226 -108 311 -200 129 -138 198 -306 211 -513 3 -56 9 -101 12 -98 11 6 -7
201 -24 273 -9 37 -36 108 -61 157 -77 159 -188 271 -348 352 -209 105 -486
102 -698 -8 -85 -45 -203 -147 -263 -229 l-35 -48 -109 -7 c-141 -9 -156 -3
-147 66 6 41 14 56 59 101 29 29 78 85 109 125 l57 71 128 31 c330 78 633 116
1148 141 121 6 243 12 270 13 28 2 72 4 99 5 l49 2 -7 -47z m5539 -83 l142 0
12 -72 c20 -122 29 -148 53 -148 11 0 42 -17 67 -37 25 -20 48 -38 50 -40 2
-2 2 -5 0 -8 -3 -2 -230 -25 -505 -50 -479 -44 -557 -52 -488 -54 29 -1 840
71 962 86 l52 6 0 -106 c0 -58 -3 -112 -6 -121 -4 -11 -19 -16 -48 -16 -76 -1
-372 -37 -394 -49 -21 -11 -47 -49 -40 -56 4 -4 261 19 345 30 35 5 43 11 52
35 8 26 15 30 45 30 33 0 36 -2 36 -29 0 -24 -5 -29 -31 -35 -32 -6 -317 -37
-716 -77 -123 -13 -223 -26 -223 -29 0 -6 391 32 805 78 94 10 172 17 174 15
10 -7 -9 -12 -95 -26 -117 -19 -152 -38 -284 -153 l-109 -94 -308 -38 -308
-38 -12 126 c-6 70 -19 158 -28 196 -30 119 -94 243 -168 322 l-31 32 30 2
c169 11 722 79 751 92 43 20 50 52 29 145 -21 98 -21 95 15 87 17 -3 96 -6
174 -6z m-7266 -87 c-65 -84 -140 -168 -169 -188 -29 -20 -52 -25 -135 -30
-55 -3 -122 -8 -148 -11 -46 -5 -47 -4 -42 19 8 29 -12 37 -97 37 l-58 0 0 49
c0 28 3 52 8 54 4 3 59 17 123 31 148 33 308 53 433 55 92 1 98 0 85 -16z
m5958 -79 c32 -8 96 -34 143 -57 222 -108 360 -347 377 -649 l6 -96 -57 -7
c-31 -4 -58 -6 -60 -4 -2 2 0 27 4 54 37 217 -58 452 -233 582 -78 58 -145 88
-240 107 -94 20 -152 20 -242 1 -221 -47 -408 -229 -460 -447 -19 -79 -19
-217 -1 -285 l14 -53 -60 0 -61 0 6 133 c11 210 51 345 142 473 97 136 265
236 443 264 71 11 204 4 279 -16z m-5022 -19 c116 -39 180 -79 265 -164 85
-86 137 -175 169 -291 22 -77 41 -245 41 -359 l0 -63 -57 7 c-32 4 -59 8 -61
10 -2 2 5 29 14 61 24 80 24 238 0 319 -59 198 -200 346 -389 410 -262 87
-546 -12 -696 -244 -69 -107 -86 -174 -85 -331 0 -100 4 -146 17 -177 l16 -43
-28 0 c-16 0 -43 -3 -60 -6 l-31 -6 0 124 c0 272 60 445 205 594 87 89 198
149 330 180 94 22 252 13 350 -21z m-1602 -14 c-3 -21 0 -48 6 -60 10 -19 20
-21 87 -21 72 0 74 -1 64 -20 -16 -30 4 -34 128 -27 154 9 116 1 -108 -23
-107 -11 -216 -22 -242 -25 l-47 -6 15 48 c8 26 22 74 32 105 12 41 22 58 37
61 11 2 23 5 27 6 3 0 4 -16 1 -38z m1584 -71 c171 -60 308 -200 364 -372 34
-105 34 -262 0 -367 -48 -145 -158 -274 -293 -342 -83 -42 -159 -59 -263 -59
-169 0 -286 49 -406 169 -161 161 -215 379 -149 593 58 186 218 340 410 393
80 22 255 14 337 -15z m5007 14 c77 -20 177 -72 238 -124 60 -52 139 -170 168
-251 31 -89 38 -250 15 -338 -68 -263 -299 -443 -565 -442 -164 0 -283 47
-400 157 -126 120 -185 258 -184 434 2 172 53 292 178 415 75 74 159 123 257
149 73 20 217 20 293 0z m-6122 -113 c-5 -68 10 -75 150 -69 59 2 108 4 108 2
0 -1 -13 -30 -30 -65 -45 -96 -70 -209 -75 -334 l-4 -110 9 99 c12 126 25 192
61 290 41 113 51 126 99 126 l40 0 -34 -62 c-66 -122 -96 -277 -96 -499 0 -54
-3 -99 -7 -99 -5 0 -149 9 -322 20 -237 15 -337 26 -405 42 l-91 23 300 7
c165 4 325 9 355 12 30 2 -105 2 -300 0 -335 -3 -430 2 -372 20 27 9 30 46 4
69 -16 14 -17 26 -10 103 4 48 5 91 2 95 -7 12 1 11 70 -2 54 -11 57 -13 52
-38 -19 -98 -18 -131 4 -166 l22 -35 221 2 c259 3 239 -14 170 151 -59 140
-68 147 -187 147 -94 -1 -318 -24 -336 -35 -6 -4 -10 13 -9 47 0 56 22 225 30
232 2 2 114 16 249 30 135 15 261 30 280 35 19 5 40 9 45 10 6 1 9 -19 7 -48z
m-618 -153 c-13 -144 -22 -161 -23 -47 -1 58 2 109 6 112 19 19 24 1 17 -65z
m8316 -78 c-6 -11 -16 -20 -23 -20 -7 0 -75 -7 -152 -15 -77 -8 -149 -15 -160
-15 -19 0 -19 0 0 19 16 16 48 23 150 34 72 8 145 15 163 16 30 1 32 -1 22
-19z m-3830 -59 l0 -58 -112 -7 c-345 -20 -1782 -85 -1789 -80 -5 3 -9 25 -9
49 l0 43 88 6 c48 4 452 26 897 51 817 45 904 50 918 53 4 1 7 -24 7 -57z
m-4047 2 c3 -5 -30 -9 -72 -11 -42 -1 -116 -9 -166 -17 -57 -9 -103 -12 -125
-6 l-35 8 38 8 c97 19 352 32 360 18z m42 -47 c16 -24 76 -161 89 -204 l7 -22
-212 2 -212 3 -16 31 c-15 27 -16 43 -7 108 8 65 12 77 30 82 43 10 154 22
228 23 72 1 79 -1 93 -23z m7939 12 c-4 -7 -20 -30 -36 -50 -19 -25 -28 -46
-26 -65 3 -25 -2 -29 -56 -51 -32 -13 -60 -22 -62 -20 -2 2 8 31 21 64 28 67
30 84 13 84 -17 0 -109 -99 -131 -141 -18 -34 -18 -34 15 6 111 133 132 140
75 25 l-32 -65 -113 -2 -114 -3 51 46 c93 83 146 125 183 145 61 31 227 52
212 27z m-2880 -19 c75 -14 126 -29 126 -37 0 -19 -63 -81 -109 -105 -69 -38
-143 -45 -626 -56 -290 -7 -401 -7 -406 1 -8 13 -23 167 -17 173 2 2 176 13
388 23 373 20 542 20 644 1z m-1042 -104 c4 -43 10 -85 12 -92 4 -10 -9 -13
-52 -13 -31 0 -448 -9 -927 -20 -478 -11 -882 -20 -896 -20 -25 0 -28 4 -39
65 -7 36 -11 67 -9 69 5 4 1832 94 1874 92 l30 -1 7 -80z"/>
<path d="M7224 8346 c-17 -8 -34 -21 -37 -29 -3 -9 -21 -17 -43 -19 -70 -6
-75 -68 -5 -68 26 0 43 -6 49 -16 20 -36 161 -36 188 0 6 9 25 16 42 16 41 0
80 19 87 41 10 30 -3 39 -52 39 -36 0 -51 5 -69 25 -19 21 -32 25 -76 25 -29
-1 -67 -7 -84 -14z m142 -10 c10 -8 16 -17 13 -21 -4 -3 -46 -4 -95 -3 l-89 3
35 17 c43 21 109 23 136 4z m124 -56 c0 -26 -12 -28 -211 -35 -171 -7 -196 -2
-169 30 12 14 55 18 288 23 86 2 92 1 92 -18z m-135 -66 c-25 -18 -146 -16
-153 4 -3 9 18 12 85 12 81 -1 86 -2 68 -16z"/>
<path d="M5564 8306 c-17 -8 -34 -21 -37 -30 -4 -10 -18 -16 -40 -16 -38 0
-61 -19 -55 -47 2 -13 14 -19 43 -21 25 -2 44 -11 53 -23 19 -28 151 -28 176
0 10 11 36 21 63 24 48 5 76 28 71 57 -2 10 -18 16 -51 18 -34 2 -54 10 -72
28 -19 19 -34 24 -72 24 -26 -1 -62 -7 -79 -14z m137 -16 l24 -19 -55 -1 c-30
0 -72 -3 -94 -7 -31 -5 -38 -3 -34 8 5 17 62 38 104 38 18 1 42 -8 55 -19z
m125 -41 c3 -6 0 -17 -7 -24 -19 -17 -364 -31 -374 -15 -15 24 19 35 128 41
199 10 246 9 253 -2z m-136 -74 c-34 -20 -134 -20 -150 0 -11 13 -1 15 81 15
87 -1 92 -2 69 -15z"/>
<path d="M8590 7837 c0 -5 16 -29 36 -55 53 -70 100 -176 128 -287 14 -55 25
-88 25 -74 1 46 -48 199 -90 279 -36 70 -98 155 -99 137z"/>
<path d="M2834 7786 c-162 -37 -286 -155 -336 -319 -17 -57 -20 -86 -16 -163
5 -83 10 -103 42 -170 51 -102 123 -174 223 -222 75 -36 82 -37 188 -37 106 0
113 1 186 36 186 89 277 242 267 451 -3 79 -9 103 -36 162 -42 89 -87 144
-157 191 -108 71 -242 98 -361 71z m48 -178 l2 -173 3 173 3 172 45 0 45 0 0
-160 c0 -88 -3 -160 -6 -160 -3 0 -12 7 -20 15 -21 20 -31 19 -44 -6 -9 -16
-8 -24 4 -38 15 -17 14 -20 -19 -46 -36 -27 -36 -27 -42 -6 -4 14 -13 21 -29
21 -29 0 -42 -25 -26 -50 9 -14 -20 -8 -140 32 l-150 50 5 35 c4 20 8 38 11
40 3 3 73 -18 155 -45 83 -28 151 -47 151 -43 0 3 -65 28 -145 54 -89 30 -145
53 -145 62 0 26 88 131 142 168 48 33 149 75 186 76 9 1 13 -41 14 -171z m208
145 c73 -26 150 -83 196 -146 24 -33 44 -65 44 -71 0 -7 -67 -34 -150 -61 -82
-27 -150 -53 -150 -57 0 -4 6 -5 13 -3 112 38 299 96 301 93 2 -2 8 -18 14
-35 13 -40 19 -37 -152 -92 -139 -44 -157 -48 -138 -29 16 16 15 45 0 51 -20
7 -58 -11 -58 -27 0 -7 8 -24 18 -36 l19 -23 159 51 c116 37 161 48 166 39 23
-37 1 -192 -40 -272 -26 -53 -79 -125 -91 -125 -10 0 -104 130 -98 136 3 3 20
-15 38 -40 18 -25 36 -46 40 -46 10 0 64 86 84 135 17 41 34 195 21 195 -28 0
-258 -84 -263 -97 -3 -8 12 -40 37 -75 23 -33 40 -62 37 -64 -5 -5 -82 98 -90
119 -2 7 -7 9 -11 6 -7 -6 129 -207 170 -250 13 -14 24 -28 24 -31 0 -8 -70
-52 -74 -47 -4 6 -189 264 -193 268 -2 2 -6 2 -9 -1 -3 -4 16 -34 42 -67 26
-34 45 -63 42 -66 -3 -3 -24 19 -47 50 -23 30 -48 55 -56 55 -8 0 -33 -25 -56
-55 -23 -31 -44 -53 -47 -50 -3 3 16 32 42 66 26 33 45 63 43 66 -7 6 -68 -72
-141 -180 -33 -48 -63 -87 -66 -87 -16 0 -61 43 -57 54 7 17 156 223 171 235
9 8 12 5 12 -11 -1 -26 27 -36 49 -18 24 20 18 49 -11 61 -32 11 -47 0 -101
-74 -19 -26 -38 -46 -41 -43 -2 3 14 31 38 62 33 44 41 61 33 73 -11 17 -243
102 -257 93 -14 -8 2 -136 24 -195 11 -30 35 -71 53 -92 l32 -37 34 47 c18 25
35 44 38 41 5 -5 -85 -136 -93 -136 -2 0 -18 15 -34 33 -42 46 -88 142 -101
212 -10 55 -8 149 3 160 2 3 73 -18 157 -46 143 -48 153 -50 165 -33 16 22 46
12 46 -16 0 -34 37 -63 75 -57 29 5 32 3 28 -14 -10 -37 49 -70 63 -35 8 22
-14 56 -37 56 -18 0 -19 2 -4 30 22 42 19 56 -19 86 l-34 28 24 19 c24 18 24
21 24 183 l0 164 28 -6 c15 -3 47 -12 72 -21z m-135 -303 c0 -22 -29 -18 -33
3 -3 14 1 18 15 15 10 -2 18 -10 18 -18z m-115 -76 c0 -8 -4 -12 -10 -9 -5 3
-10 1 -10 -5 0 -6 -4 -8 -10 -5 -18 11 -11 35 10 35 11 0 20 -7 20 -16z m132
-1 c37 -33 13 -95 -37 -95 -52 0 -75 67 -33 96 29 20 47 20 70 -1z m98 11 c0
-15 -22 -44 -31 -39 -18 12 -10 45 11 45 11 0 20 -3 20 -6z m-387 -54 c54 -17
101 -38 104 -46 3 -7 -26 -56 -64 -108 -78 -108 -81 -108 -129 -8 -31 65 -47
209 -23 200 8 -3 58 -20 112 -38z m637 18 c-1 -56 -32 -166 -62 -215 -18 -29
-35 -53 -39 -53 -8 0 -137 182 -141 199 -2 9 33 26 102 51 126 46 140 48 140
18z m-441 -101 c12 -15 5 -27 -16 -27 -7 0 -13 9 -13 20 0 23 13 26 29 7z
m141 -6 c7 -14 7 -22 -1 -27 -13 -8 -41 24 -33 37 9 15 23 10 34 -10z m-10
-154 c38 -52 70 -99 70 -105 0 -13 -86 -32 -145 -32 -59 0 -145 19 -145 32 0
16 135 198 147 198 1 0 34 -42 73 -93z m-211 -60 c-17 -25 -29 -49 -25 -55 10
-16 90 -32 161 -32 71 0 151 16 161 32 4 6 -8 30 -25 55 -18 25 -30 47 -28 50
6 6 97 -121 97 -135 0 -6 -26 -21 -57 -33 -80 -31 -214 -31 -295 0 -32 13 -58
27 -58 33 0 14 91 141 97 135 2 -3 -10 -25 -28 -50z"/>
<path d="M2830 7720 c-38 -11 -110 -49 -147 -79 -42 -33 -87 -96 -80 -113 2
-7 59 -31 126 -53 104 -34 123 -37 131 -25 11 18 13 267 3 273 -5 2 -19 1 -33
-3z m20 -140 c0 -99 -3 -128 -12 -125 -81 25 -215 69 -221 72 -25 15 79 117
158 154 33 16 63 29 68 29 4 0 7 -58 7 -130z"/>
<path d="M3003 7704 c-6 -16 2 -262 9 -269 7 -8 252 83 256 94 11 34 -89 130
-180 171 -53 24 -77 25 -85 4z m110 -32 c80 -43 166 -136 135 -147 -7 -2 -60
-20 -116 -40 -57 -19 -106 -35 -108 -35 -2 0 -4 59 -4 131 l0 130 23 -6 c12
-4 44 -19 70 -33z"/>
<path d="M7915 7790 c-127 -20 -242 -96 -315 -210 -162 -253 -32 -601 259
-690 211 -66 441 38 541 245 111 233 7 517 -228 622 -45 20 -164 45 -197 42
-5 -1 -32 -5 -60 -9z m15 -170 c0 -100 4 -160 10 -160 6 0 10 60 10 160 l0
160 40 0 40 0 2 -167 2 -168 3 168 3 167 28 -6 c143 -34 250 -111 305 -220
l16 -31 -154 -49 c-85 -27 -155 -52 -155 -56 0 -8 50 6 199 57 58 19 108 35
112 35 7 0 32 -71 26 -76 -7 -5 -254 -84 -264 -84 -6 0 -16 14 -22 30 -11 33
-19 36 -45 17 -22 -16 -16 -46 12 -64 16 -9 46 -2 167 37 82 27 152 47 157 44
11 -7 10 -130 -3 -184 -17 -75 -102 -220 -129 -220 -11 0 -154 199 -148 206 3
3 32 -32 64 -76 31 -44 62 -79 67 -77 19 6 86 130 96 178 11 52 15 149 6 149
-25 0 -258 -85 -262 -96 -3 -8 2 -25 11 -39 24 -37 18 -44 -9 -10 -14 17 -25
25 -25 19 0 -5 42 -68 94 -140 l94 -129 -27 -22 c-14 -12 -30 -22 -36 -22 -9
0 -165 215 -173 238 -2 5 6 12 18 16 31 10 24 59 -8 63 -22 3 -23 5 -7 22 26
29 16 80 -20 102 -29 17 -33 17 -65 0 -46 -23 -61 -63 -34 -93 13 -15 15 -23
7 -26 -8 -3 -10 -15 -6 -35 5 -24 3 -30 -8 -26 -8 3 -13 17 -12 32 3 45 -24
30 -83 -49 -31 -42 -59 -73 -62 -71 -3 3 19 38 47 77 64 87 67 94 44 104 -59
25 -249 83 -256 78 -13 -8 3 -131 25 -189 10 -29 33 -71 50 -95 l31 -42 28 34
c41 49 36 26 -7 -33 l-37 -49 -29 28 c-67 64 -111 179 -112 295 -1 42 2 79 5
82 3 3 72 -17 154 -44 131 -44 151 -48 174 -37 40 19 38 61 -3 69 -25 4 -45
-27 -27 -44 10 -11 12 -9 9 7 -4 24 25 28 30 4 7 -35 -45 -31 -192 17 l-144
47 9 31 c5 16 12 33 17 38 4 4 68 -12 142 -37 74 -25 143 -45 155 -44 11 0
-49 22 -132 50 -84 27 -153 54 -153 60 0 30 98 140 165 187 30 20 138 61 163
62 9 0 12 -38 12 -160z m100 -250 c24 -24 25 -38 4 -68 -29 -42 -104 -18 -104
34 0 25 34 54 62 54 10 0 27 -9 38 -20z m92 -5 c6 -28 0 -31 -27 -12 -10 8
-15 19 -11 25 12 20 33 13 38 -13z m-387 -34 c55 -18 103 -36 107 -40 5 -4
-25 -53 -64 -110 l-72 -103 -20 24 c-37 45 -67 126 -73 199 -5 60 -4 71 8 67
8 -3 59 -20 114 -37z m631 -23 c-4 -34 -16 -84 -26 -111 -19 -49 -60 -117 -71
-117 -8 0 -144 193 -144 204 0 9 205 84 234 85 11 1 12 -11 7 -61z m-344 -70
c-3 -20 -9 -27 -18 -24 -20 8 -17 -7 4 -20 19 -13 182 -236 182 -251 0 -16
-65 -42 -135 -54 -49 -8 -81 -8 -131 0 -70 13 -144 38 -144 50 0 10 114 174
159 230 20 24 29 42 21 39 -8 -2 -54 -60 -103 -129 -49 -68 -92 -125 -97 -127
-4 -2 -20 8 -36 21 l-28 24 39 54 c152 209 149 205 155 179 11 -47 59 -34 60
15 0 16 7 20 38 21 37 2 38 1 34 -28z m43 12 c9 -15 -16 -43 -27 -32 -10 10 0
42 12 42 5 0 12 -5 15 -10z"/>
<path d="M7845 7707 c-16 -7 -44 -20 -61 -29 -42 -23 -136 -127 -132 -146 4
-19 229 -98 252 -89 14 5 16 27 16 142 0 134 0 135 -22 134 -13 0 -36 -6 -53
-12z m55 -122 c0 -112 -2 -125 -17 -125 -21 0 -205 59 -216 70 -16 14 92 118
155 149 34 17 65 31 70 31 4 0 8 -56 8 -125z"/>
<path d="M8050 7596 c0 -131 4 -156 25 -156 15 0 245 77 253 84 9 9 -47 82
-88 115 -47 38 -136 81 -167 81 -23 0 -23 -2 -23 -124z m114 77 c53 -27 149
-118 143 -136 -4 -13 -223 -88 -231 -79 -3 3 -6 61 -6 129 0 142 -6 136 94 86z"/>
<path d="M7966 7471 c-23 -25 -10 -53 23 -49 33 4 42 42 13 57 -15 8 -23 6
-36 -8z m38 -16 c3 -9 -1 -18 -10 -22 -19 -7 -28 2 -21 22 8 19 23 19 31 0z"/>
<path d="M7918 7118 c-102 -138 -102 -139 -87 -149 64 -41 302 -35 316 7 5 16
-144 214 -162 214 -8 0 -38 -33 -67 -72z m156 -48 l64 -88 -26 -12 c-61 -27
-248 -20 -267 11 -3 4 26 51 66 104 57 76 74 93 85 84 8 -6 43 -51 78 -99z"/>
<path d="M3075 6470 c-215 -13 -458 -41 -493 -57 -18 -8 -46 -33 -62 -53 -67
-85 -170 -295 -256 -522 -26 -68 -52 -129 -59 -137 -8 -8 -23 -11 -38 -7 -20
5 -26 14 -31 50 -11 71 -29 80 -138 72 -116 -8 -173 -33 -205 -91 -40 -71 -27
-116 42 -146 57 -25 212 -37 255 -19 43 18 47 7 13 -37 -43 -55 -60 -91 -68
-148 -4 -29 -21 -73 -40 -105 -19 -31 -36 -67 -40 -81 -3 -14 -1 -97 5 -185 6
-87 11 -362 10 -610 0 -318 3 -459 11 -477 19 -41 48 -47 229 -47 164 0 170 1
197 24 27 24 28 27 31 149 l4 125 41 6 c23 3 384 9 802 12 729 5 1446 -4 1461
-19 4 -4 10 -63 13 -133 8 -171 -2 -164 232 -164 165 0 181 2 199 20 11 11 22
30 24 42 3 13 8 268 11 568 4 300 7 581 8 625 2 75 0 84 -31 131 -19 30 -37
75 -43 110 -12 66 -35 116 -75 163 -32 39 -27 47 22 31 43 -14 170 -8 235 12
55 16 82 52 76 100 -12 90 -84 136 -228 145 -103 7 -122 -3 -134 -65 -9 -46
-21 -62 -50 -62 -19 0 -27 15 -60 103 -93 253 -225 520 -292 589 -15 15 -40
32 -57 37 -38 12 -288 38 -501 51 -180 11 -822 11 -1020 0z m890 -10 c219 -10
529 -35 568 -46 15 -5 83 -124 74 -129 -1 -1 -45 2 -97 6 -447 37 -1328 37
-1822 1 -65 -5 -98 -4 -98 3 0 15 46 112 56 118 15 9 363 38 549 46 269 12
513 12 770 1z m-1348 -62 c-42 -103 -51 -118 -64 -114 -26 10 -73 -48 -115
-144 -22 -52 -78 -200 -124 -329 -48 -138 -89 -238 -99 -244 -42 -23 -85 -71
-85 -93 0 -13 23 -75 51 -137 28 -61 53 -118 56 -124 4 -9 -8 -13 -41 -13 -33
0 -52 -6 -66 -20 -24 -24 -21 -1 -29 -215 l-6 -180 -47 1 c-26 0 -50 2 -52 5
-7 7 -26 252 -26 332 0 64 4 77 34 127 19 30 37 72 41 93 l8 39 42 -89 c55
-112 58 -101 5 16 -43 95 -46 111 -29 144 22 43 81 107 97 107 12 0 23 21 41
78 38 127 128 347 208 511 58 118 87 166 127 207 48 50 85 71 73 42z m1992 -2
c61 -32 173 -235 284 -516 36 -91 75 -198 88 -239 17 -53 30 -76 45 -81 21 -9
71 -66 94 -109 16 -31 9 -63 -39 -160 -22 -44 -36 -81 -32 -81 5 0 26 39 48
87 l41 86 7 -34 c4 -19 23 -61 41 -95 31 -55 34 -69 34 -140 0 -125 -20 -318
-33 -326 -22 -14 -85 -9 -91 8 -3 9 -6 79 -6 157 -1 215 -13 247 -97 247 -24
0 -43 2 -43 4 0 2 25 57 55 123 30 65 55 130 55 145 0 20 -14 39 -55 74 -42
36 -58 59 -71 98 -51 156 -141 401 -180 492 -47 105 -83 154 -115 154 -12 0
-26 18 -43 56 -34 74 -34 74 13 50z m-664 -96 c392 -11 660 -27 687 -41 32
-17 95 -166 208 -490 57 -163 59 -169 37 -169 -12 0 -166 7 -342 16 -452 24
-1453 23 -1899 0 -181 -9 -331 -15 -333 -12 -7 6 35 130 114 346 82 220 116
296 139 308 27 14 310 33 604 41 140 4 293 8 340 9 47 1 247 -2 445 -8z
m-1425 -62 c-31 -55 -105 -242 -175 -450 -59 -175 -85 -230 -85 -184 0 29 177
511 217 590 14 28 52 76 59 76 2 0 -5 -15 -16 -32z m2182 -24 c61 -110 249
-629 225 -622 -6 3 -44 94 -82 204 -83 235 -137 373 -170 432 -14 24 -19 42
-12 40 7 -3 24 -27 39 -54z m-2594 -431 c6 -9 12 -28 12 -43 0 -14 7 -35 15
-47 14 -20 13 -23 -12 -43 -26 -20 -35 -22 -118 -16 -204 14 -215 16 -215 40
0 34 35 81 73 100 39 18 167 36 207 29 14 -2 31 -11 38 -20z m3126 12 c76 -7
120 -29 146 -70 37 -59 29 -72 -47 -79 -223 -20 -236 -19 -265 4 -25 19 -26
23 -14 43 8 12 17 39 20 60 8 41 32 58 76 51 14 -1 52 -6 84 -9z m-3047 -171
c-13 -37 -17 -39 -68 -48 -121 -19 -268 -2 -308 35 -12 12 -21 22 -19 24 2 1
71 -2 155 -8 143 -10 153 -10 178 9 75 52 83 51 62 -12z m2861 25 l36 -32 135
7 c75 4 147 10 160 13 21 5 22 4 12 -15 -14 -26 -54 -39 -156 -52 -56 -7 -91
-7 -110 0 -14 5 -44 10 -66 10 -33 0 -41 4 -49 25 -31 83 -20 95 38 44z m-478
-48 c113 -6 234 -13 269 -17 l65 -6 -80 -42 c-99 -52 -186 -111 -275 -187 -71
-61 -169 -172 -169 -190 0 -6 17 11 38 38 93 117 235 230 409 327 88 49 105
56 123 46 37 -20 100 -82 100 -98 0 -11 -104 -252 -117 -271 -2 -2 -81 -13
-175 -24 -95 -10 -246 -31 -335 -46 -156 -25 -163 -26 -195 -9 -50 26 -437 42
-818 34 -333 -8 -433 -16 -458 -40 -14 -12 -26 -13 -59 -6 -64 15 -452 69
-548 78 l-87 7 -59 130 c-32 72 -59 135 -59 141 0 18 36 58 79 88 l40 28 88
-47 c48 -26 122 -71 162 -99 84 -57 236 -197 272 -251 13 -19 28 -35 32 -35
16 0 -38 66 -122 150 -94 93 -204 173 -325 236 l-78 41 58 6 c33 4 167 11 299
17 132 6 272 12 310 14 152 7 1422 -3 1615 -13z m-2119 -441 c156 -18 361 -48
366 -54 1 -1 -26 -30 -61 -65 l-63 -62 -134 -9 c-76 -5 -165 -17 -205 -29 -60
-16 -83 -18 -143 -10 -40 5 -76 11 -82 14 -12 8 -12 177 1 209 9 25 13 26 82
26 40 0 148 -9 239 -20z m2609 1 c5 -11 10 -64 10 -119 l0 -100 -76 -11 c-79
-12 -90 -10 -193 20 -39 12 -95 19 -150 20 -137 0 -154 6 -222 74 l-60 60 28
7 c29 7 377 55 448 61 22 2 77 4 122 5 72 2 84 0 93 -17z m-847 -50 c26 -13
64 -43 85 -69 33 -40 37 -51 36 -96 -3 -93 -101 -445 -144 -514 -40 -66 -40
-65 -595 -66 -479 -1 -502 0 -540 19 -63 32 -98 111 -161 374 -46 190 -47 227
-5 279 53 68 92 86 201 93 52 4 316 6 585 5 489 -2 490 -2 538 -25z m-1305
-17 c9 -2 1 -16 -22 -40 -21 -21 -38 -51 -42 -72 -12 -64 77 -419 134 -532 20
-40 37 -59 67 -75 39 -19 56 -20 555 -20 573 0 558 -2 601 68 27 45 92 250
124 392 33 148 30 184 -20 235 l-37 38 38 11 39 11 66 -69 c73 -78 72 -77 234
-84 63 -3 129 -13 175 -27 75 -22 134 -23 228 -4 l32 7 0 -71 c0 -75 16 -107
49 -98 75 20 73 21 67 -26 -3 -24 -15 -128 -26 -233 -27 -245 -30 -255 -82
-291 -39 -27 -47 -29 -132 -27 -50 0 -376 6 -725 12 -495 9 -777 9 -1285 -1
-860 -17 -795 -18 -838 11 -20 14 -41 33 -48 44 -10 16 -74 517 -67 524 2 1
22 -3 46 -8 62 -14 71 -3 71 88 l0 76 33 -7 c95 -20 155 -19 228 4 51 15 113
25 199 29 142 8 150 11 222 94 48 55 59 59 116 41z m-864 -846 c4 -9 24 -30
44 -45 36 -27 41 -28 185 -31 l147 -3 0 -117 c0 -171 12 -162 -212 -162 -155
0 -184 2 -200 17 -17 15 -18 39 -17 357 l1 341 23 -170 c12 -93 25 -178 29
-187z m3140 -340 c-15 -16 -35 -18 -200 -18 -226 0 -214 -9 -214 162 l0 117
148 3 c135 3 150 5 180 26 18 13 39 36 46 50 8 15 22 101 32 192 l19 165 3
-339 c2 -305 1 -341 -14 -358z"/>
<path d="M3204 5109 c-213 -8 -227 -12 -287 -78 -31 -34 -37 -49 -37 -84 0
-76 88 -405 131 -489 37 -74 24 -72 584 -72 560 0 547 -1 584 72 46 92 119
356 128 463 6 66 5 66 -32 108 -62 68 -69 70 -327 81 -259 11 -459 11 -744 -1z
m986 -31 c19 -8 52 -34 74 -58 37 -42 38 -44 32 -98 -14 -122 -101 -416 -139
-473 -12 -18 -33 -36 -47 -40 -14 -4 -245 -7 -513 -8 -547 -1 -541 -2 -575 66
-40 78 -132 416 -132 485 0 29 54 98 94 121 34 20 194 25 696 22 399 -1 481
-4 510 -17z"/>
<path d="M3120 4761 c-17 -32 -13 -177 6 -195 14 -14 70 -16 469 -16 399 0
455 2 469 16 20 19 23 183 4 202 -9 9 -128 12 -475 12 -447 0 -463 -1 -473
-19z m925 3 c12 -5 15 -26 15 -100 l0 -94 -465 0 -465 0 0 93 c0 52 3 97 7
101 8 8 887 8 908 0z"/>
<path d="M2131 4886 c11 -12 688 -110 697 -101 7 7 -24 12 -333 55 -159 22
-308 43 -330 46 -22 4 -37 4 -34 0z"/>
<path d="M4935 4874 c-44 -8 -181 -27 -305 -44 -234 -31 -275 -38 -268 -45 9
-9 685 88 697 101 7 7 -39 2 -124 -12z"/>
<path d="M2193 4585 c-27 -19 -48 -73 -63 -165 -16 -100 -11 -132 20 -147 56
-26 574 -35 1645 -30 1021 5 1229 11 1260 37 19 16 19 78 0 170 -17 82 -37
125 -64 140 -11 5 -68 10 -128 10 -106 0 -564 -29 -572 -36 -13 -11 19 -11
169 2 91 7 242 16 335 20 163 6 171 6 196 -15 28 -21 51 -97 64 -206 10 -82 4
-85 -166 -95 -79 -5 -238 -10 -354 -12 l-210 -3 -35 26 c-19 14 -50 31 -69 38
-48 16 -1204 16 -1252 -1 -19 -6 -52 -24 -74 -40 l-40 -28 -300 10 c-165 5
-324 13 -353 16 -69 8 -76 22 -63 117 24 163 41 189 132 195 61 4 525 -22 599
-34 24 -4 30 -2 20 4 -19 13 -414 42 -562 42 -84 0 -119 -4 -135 -15z m2051
-291 c22 -11 41 -25 43 -30 2 -5 -266 -9 -692 -9 -382 0 -695 3 -695 6 0 11
45 37 81 48 21 6 263 9 629 8 580 -2 596 -3 634 -23z"/>
<path d="M2235 4571 c-33 -14 -42 -32 -59 -113 -22 -106 -21 -127 7 -137 37
-14 528 -32 569 -21 41 12 96 47 112 72 8 13 3 33 -24 88 -19 39 -39 75 -45
80 -21 17 -528 45 -560 31z m350 -21 c88 -6 170 -12 182 -15 16 -4 34 -27 58
-76 20 -38 33 -75 29 -80 -3 -6 -27 -24 -52 -40 -45 -28 -49 -29 -176 -29
-174 1 -437 17 -449 29 -12 12 18 166 38 197 15 23 21 24 113 24 53 0 169 -5
257 -10z"/>
<path d="M4670 4568 c-80 -4 -174 -11 -210 -16 l-65 -7 -37 -70 c-21 -38 -37
-79 -35 -90 3 -25 72 -74 120 -85 45 -10 530 8 564 21 25 9 26 12 20 68 -4 32
-14 83 -24 112 -28 84 -33 85 -333 67z m305 -32 c15 -23 44 -142 45 -182 0
-19 -8 -22 -61 -28 -33 -3 -163 -9 -289 -12 l-228 -7 -44 26 c-73 43 -74 46
-33 127 20 39 41 73 48 75 21 8 278 22 414 24 129 1 133 0 148 -23z"/>
<path d="M7258 6469 c-215 -13 -451 -40 -487 -57 -18 -8 -47 -34 -63 -56 -66
-91 -253 -497 -288 -626 -9 -33 -15 -40 -35 -40 -26 0 -45 25 -45 60 0 11 -12
33 -26 47 -24 24 -30 25 -91 19 -158 -16 -221 -49 -244 -126 -25 -83 14 -121
139 -139 158 -21 161 -21 220 37 29 28 65 59 81 68 37 22 44 38 163 359 55
149 108 284 119 302 23 37 84 93 102 93 8 0 -7 -59 -45 -172 -31 -95 -76 -244
-98 -331 l-41 -158 25 -56 c14 -30 26 -56 26 -58 0 -1 -19 -8 -42 -14 -61 -19
-157 -67 -201 -102 -37 -30 -39 -30 -92 -19 -30 6 -55 17 -55 23 0 33 -31 -28
-53 -103 -13 -47 -37 -114 -52 -150 l-28 -65 8 -225 c12 -331 14 -414 14 -753
l1 -308 25 -24 c24 -25 27 -25 199 -25 96 0 182 3 191 6 37 15 45 56 45 237
l0 175 198 8 c108 5 537 9 952 9 415 0 844 -4 953 -9 l197 -8 0 -178 c0 -177
0 -179 26 -209 l26 -31 178 0 c175 0 180 1 207 24 l28 24 2 404 c1 221 7 504
14 628 12 223 12 225 -11 285 -12 33 -33 94 -47 135 -14 41 -33 96 -43 123
l-18 47 46 0 c86 1 203 27 228 51 26 25 32 75 13 112 -36 70 -99 100 -234 112
-84 8 -98 0 -123 -70 -15 -41 -22 -50 -42 -50 -22 0 -28 11 -61 100 -95 263
-237 546 -300 597 -34 28 -48 31 -201 48 -91 11 -248 24 -349 30 -206 11 -816
11 -1011 -1z m1077 -19 c182 -12 354 -31 381 -41 16 -5 28 -27 44 -74 12 -36
20 -69 17 -71 -3 -3 -49 0 -104 6 -458 50 -1299 52 -1747 4 -76 -8 -140 -13
-142 -11 -5 5 40 135 50 144 12 13 341 44 551 52 243 10 732 5 950 -9z m465
-64 c43 -28 78 -91 124 -217 66 -183 164 -444 176 -470 6 -14 27 -34 46 -44
19 -10 60 -45 91 -79 l58 -60 -63 -14 c-63 -14 -64 -14 -90 10 -36 34 -126 82
-189 103 -29 9 -53 20 -53 23 0 4 10 30 22 59 l22 53 -44 162 c-23 90 -67 237
-96 327 -30 90 -54 166 -54 168 0 8 18 1 50 -21z m-623 -96 c228 -10 563 -36
595 -46 11 -3 26 -32 42 -82 41 -131 108 -383 103 -389 -3 -2 -70 0 -149 6
-542 41 -1555 38 -2051 -5 l-78 -7 7 29 c15 62 76 283 99 360 20 66 29 83 47
87 40 10 366 38 543 46 253 12 585 12 842 1z m-1636 -345 c-87 -233 -101 -265
-112 -265 -8 0 3 40 39 142 25 69 144 339 148 335 2 -1 -32 -97 -75 -212z
m2480 55 c63 -144 122 -306 116 -322 -2 -7 -14 9 -26 37 -21 46 -148 382 -158
415 -10 34 24 -32 68 -130z m-2808 -207 c-7 -2 -19 -2 -25 0 -7 3 -2 5 12 5
14 0 19 -2 13 -5z m83 -1 c16 -10 34 -48 34 -70 0 -22 26 -48 53 -53 29 -6
-107 -119 -141 -118 -15 0 -20 3 -12 6 40 13 60 29 75 58 26 57 15 144 -22
173 -18 13 -6 17 13 4z m2209 -13 c250 -11 402 -23 412 -33 7 -6 -24 -93 -36
-100 -4 -3 -48 1 -97 9 -307 50 -857 74 -1319 57 -326 -13 -560 -32 -693 -57
-42 -8 -80 -15 -83 -15 -3 0 -16 23 -29 51 -27 57 -21 69 35 69 17 0 104 5
194 11 432 28 1095 32 1616 8z m778 11 c-26 -11 -38 -46 -37 -113 1 -58 26
-97 75 -114 19 -7 26 -12 17 -12 -31 -1 -62 16 -121 68 l-58 51 30 6 c26 5 33
13 42 48 12 47 35 76 58 75 11 0 8 -3 -6 -9z m95 3 c-10 -2 -26 -2 -35 0 -10
3 -2 5 17 5 19 0 27 -2 18 -5z m-3273 -21 c-60 -21 -95 -66 -95 -123 0 -31 5
-41 28 -54 26 -15 26 -16 2 -9 -59 14 -70 61 -32 129 18 32 92 75 127 75 11
-1 -2 -9 -30 -18z m3338 11 c-7 -2 -19 -2 -25 0 -7 3 -2 5 12 5 14 0 19 -2 13
-5z m-3147 -38 c7 -19 14 -46 14 -61 0 -35 -28 -92 -51 -105 -23 -12 -202 13
-224 31 -28 23 -11 96 30 130 24 20 102 39 163 39 51 1 53 0 68 -34z m3176 11
c41 -20 68 -62 68 -109 0 -31 -4 -37 -32 -46 -46 -15 -184 -32 -203 -25 -39
15 -58 117 -35 180 11 27 11 27 89 21 43 -3 94 -12 113 -21z m34 8 c34 -17 74
-81 74 -121 0 -24 -44 -63 -69 -62 -12 0 -11 2 4 9 41 16 49 36 35 83 -14 50
-25 64 -65 89 -37 22 -25 24 21 2z m-981 -88 c88 -9 198 -23 245 -31 47 -8 89
-15 93 -15 5 0 7 -12 5 -27 -3 -27 -5 -28 -53 -27 -27 1 -108 7 -179 13 -478
41 -1343 37 -1814 -10 -62 -6 -115 -10 -117 -8 -2 2 -6 16 -10 30 -6 25 -4 27
52 37 81 16 303 41 458 51 218 15 1134 6 1320 -13z m-1845 -85 c0 -27 -3 -29
-50 -35 -28 -4 -60 -11 -73 -17 -18 -8 -16 -9 13 -4 111 18 120 18 120 1 0
-13 -13 -16 -82 -17 -46 0 -104 -4 -130 -8 -27 -4 -48 -7 -48 -6 0 16 203 114
238 115 7 0 12 -12 12 -29z m2274 9 c57 -19 161 -74 171 -89 2 -5 -15 -5 -38
0 -23 4 -81 8 -129 9 -75 0 -88 3 -88 16 0 14 8 16 53 10 28 -4 63 -9 77 -12
19 -4 21 -3 11 4 -8 6 -41 14 -73 17 -51 6 -58 10 -58 29 0 19 7 36 15 36 1 0
28 -9 59 -20z m-539 -10 c99 -5 240 -15 313 -21 113 -10 132 -14 130 -28 -3
-14 -32 -17 -213 -22 -245 -7 -260 -11 -252 -70 l5 -39 -620 0 c-492 0 -619 3
-615 13 18 50 18 56 -8 73 -22 15 -60 18 -235 22 -162 4 -210 8 -214 18 -3 7
-2 15 2 18 10 6 247 27 412 35 212 12 1085 12 1295 1z m-2312 -17 c-7 -2 -19
-2 -25 0 -7 3 -2 5 12 5 14 0 19 -2 13 -5z m3384 1 c-3 -3 -12 -4 -19 -1 -8 3
-5 6 6 6 11 1 17 -2 13 -5z m-3314 -11 c-7 -2 -21 -2 -30 0 -10 3 -4 5 12 5
17 0 24 -2 18 -5z m3255 0 c-10 -2 -26 -2 -35 0 -10 3 -2 5 17 5 19 0 27 -2
18 -5z m-2700 -183 c18 -68 31 -124 30 -126 -5 -5 -260 -24 -319 -24 -46 0
-61 4 -66 16 -6 16 12 189 23 217 3 9 13 19 22 23 16 6 244 23 267 19 6 -1 25
-57 43 -125z m380 114 c54 -7 61 -23 33 -81 -16 -34 -31 -49 -64 -63 -44 -19
-297 -93 -302 -88 -8 10 -62 238 -57 243 7 6 318 -2 390 -11z m1736 -11 c-9
-42 -56 -218 -58 -220 -4 -4 -281 75 -309 88 -36 16 -87 113 -69 131 12 12
134 21 360 26 l82 2 -6 -27z m239 11 c26 -2 54 -7 62 -10 20 -8 34 -63 42
-166 l6 -88 -59 0 c-70 0 -292 18 -314 25 -14 4 -12 19 12 118 16 61 30 118
33 125 4 12 77 11 218 -4z m-2753 -5 c27 -6 50 -14 50 -18 0 -5 -4 -31 -10
-60 -5 -28 -14 -125 -19 -216 -6 -91 -15 -173 -20 -183 -10 -19 -150 -77 -160
-66 -3 3 -6 63 -6 132 0 120 2 131 32 202 17 41 39 104 48 140 17 64 23 80 30
80 2 0 27 -5 55 -11z m2986 -56 c9 -38 32 -107 51 -155 31 -82 33 -95 33 -213
l0 -126 -22 7 c-78 24 -130 49 -143 67 -9 14 -17 81 -25 191 -6 94 -16 192
-21 220 -5 27 -8 50 -7 52 6 5 74 22 94 23 19 1 24 -9 40 -66z m-878 -71 c22
-23 56 -37 182 -72 85 -23 157 -44 159 -46 7 -6 -50 -158 -69 -184 l-18 -25
-133 7 c-157 8 -1461 7 -1598 -1 -90 -6 -94 -5 -109 17 -16 24 -75 183 -70
187 2 1 73 22 158 46 123 34 160 48 180 70 l25 27 633 1 634 1 26 -28z m-1650
-189 c43 -132 85 -180 169 -194 68 -11 1554 -11 1632 1 102 14 145 59 184 188
l22 73 35 -5 c19 -3 110 -8 201 -12 l166 -7 6 -95 c4 -57 13 -104 21 -117 9
-14 45 -33 90 -50 l76 -28 0 -63 c0 -35 -2 -64 -5 -64 -2 0 -38 11 -80 25
-147 48 -218 55 -650 66 -463 13 -1894 5 -2100 -11 -131 -10 -255 -36 -332
-70 -49 -22 -53 -17 -53 63 l0 52 72 25 c97 34 110 53 117 172 l6 93 179 7
c98 4 181 10 184 13 3 3 13 5 22 5 11 0 23 -21 38 -67z m1887 -153 c-18 -30
-98 -33 -895 -33 -806 -1 -876 2 -895 33 -4 7 314 10 895 10 581 0 899 -3 895
-10z m-119 -140 c525 -10 594 -17 746 -67 l81 -26 -7 -67 c-5 -59 -45 -268
-62 -327 -5 -18 -10 -21 -24 -13 -25 14 -163 50 -168 45 -6 -5 -4 -6 101 -36
92 -26 97 -39 36 -100 -45 -45 -66 -47 -141 -16 -33 14 -35 18 -41 75 -13 125
-66 212 -150 247 -74 31 -299 38 -1152 38 -1062 0 -1139 -5 -1218 -90 -33 -36
-65 -123 -74 -203 l-6 -59 -45 -16 c-69 -23 -85 -20 -131 30 -22 24 -41 49
-41 55 0 13 49 35 116 51 27 6 54 16 59 21 13 12 -31 2 -117 -27 l-67 -23 -20
87 c-27 116 -54 298 -47 316 7 18 144 61 259 81 166 29 1250 41 2113 24z m142
-270 c95 -5 192 -15 214 -22 55 -16 102 -65 126 -130 24 -65 38 -168 23 -168
-11 0 -12 5 -31 95 -24 112 -70 143 -225 156 -55 5 -401 11 -770 15 -690 7
-1304 -5 -1380 -27 -59 -17 -110 -73 -124 -137 -6 -29 -11 -64 -11 -77 0 -16
-6 -25 -16 -25 -12 0 -14 8 -9 48 13 93 44 169 85 206 50 45 95 56 255 66 195
11 1664 11 1863 0z m-2443 -277 c16 -36 36 -60 64 -79 l42 -27 87 27 c48 14
104 26 125 26 l37 0 2 -82 c4 -208 0 -274 -18 -292 -13 -13 -45 -16 -192 -16
-97 0 -182 4 -188 8 -31 20 -34 54 -33 379 l0 328 25 -110 c14 -60 36 -133 49
-162z m3110 -420 c-15 -23 -18 -23 -197 -23 -155 0 -184 2 -200 17 -16 14 -18
34 -18 198 l0 181 59 -7 c32 -3 88 -16 124 -28 60 -20 68 -21 95 -7 67 34 93
88 129 264 l18 87 3 -329 c2 -282 0 -332 -13 -353z m-627 617 c193 -10 224
-21 260 -91 24 -48 43 -162 24 -144 -6 6 -15 37 -21 70 -13 70 -34 103 -82
127 -65 34 -159 15 -194 -38 l-15 -24 -927 0 -927 0 -38 37 c-31 31 -45 37
-90 40 -96 7 -154 -44 -167 -149 -3 -29 -12 -53 -19 -56 -11 -3 -12 6 -7 44
16 115 66 165 180 179 174 22 1623 26 2023 5z m-1962 -46 c19 -9 41 -26 50
-38 l14 -21 918 -5 c504 -3 926 -2 937 1 11 4 35 20 53 37 99 92 242 22 242
-119 l0 -42 -127 7 c-637 33 -1571 33 -2170 0 l-123 -7 0 40 c0 56 37 124 80
145 44 22 82 23 126 2z"/>
<path d="M7345 6259 c-182 -9 -414 -27 -463 -36 -47 -8 -61 -36 -112 -223 -40
-146 -42 -162 -28 -176 14 -14 40 -15 239 -5 412 21 904 25 1299 10 206 -7
413 -14 460 -14 83 0 85 0 88 25 4 38 -85 342 -107 363 -48 48 -859 81 -1376
56z m760 -9 c351 -15 584 -36 606 -56 23 -21 116 -351 102 -365 -6 -6 -74 -5
-199 3 -246 16 -1420 17 -1669 0 -141 -9 -182 -9 -192 1 -14 15 70 333 96 360
14 15 50 21 196 33 368 31 700 38 1060 24z"/>
<path d="M7300 5225 c0 -100 1 -105 23 -110 12 -3 227 -4 477 -3 l455 3 3 108
3 107 -481 0 -480 0 0 -105z m950 0 l0 -95 -460 -2 c-253 -2 -465 -1 -470 0
-6 2 -10 44 -10 98 l0 94 470 0 470 0 0 -95z"/>
<path d="M4562 3594 c-61 -31 -110 -89 -158 -192 -1 -2 -143 -7 -315 -12 -244
-7 -347 -6 -464 5 -254 23 -437 27 -783 16 -403 -13 -502 -30 -774 -126 -209
-75 -336 -191 -543 -500 -119 -178 -126 -194 -135 -337 -5 -68 -16 -199 -25
-293 -21 -209 -16 -683 9 -860 9 -60 16 -144 16 -185 1 -41 7 -92 15 -113 37
-106 247 -399 385 -538 98 -99 183 -147 356 -198 238 -70 316 -81 618 -93 307
-11 658 -5 887 16 140 13 611 13 717 0 37 -5 45 -10 63 -46 29 -57 107 -138
133 -138 18 0 17 3 -10 19 -58 35 -140 160 -159 242 -6 23 -2 28 26 38 43 15
124 14 136 -2 5 -6 34 -76 63 -154 29 -79 57 -143 62 -143 4 0 -1 22 -12 49
-35 91 -90 239 -90 245 0 44 89 -163 115 -267 4 -15 11 -27 16 -27 12 0 13 0
-21 91 -16 46 -29 84 -27 85 1 1 229 -2 507 -8 639 -12 571 -12 1265 1 779 16
807 16 1115 1 270 -12 708 -7 906 10 56 5 225 30 375 55 587 97 704 144 810
324 165 279 249 1055 184 1686 -34 325 -84 543 -161 704 -81 167 -166 227
-403 287 -159 40 -646 137 -776 155 -95 13 -765 18 -1240 9 -137 -2 -506 2
-820 10 -658 17 -637 17 -1275 3 -267 -5 -487 -9 -489 -7 -2 1 11 39 28 84 17
45 31 90 31 100 0 37 -86 40 -158 4z m105 -26 c-8 -18 -35 -88 -62 -155 l-47
-123 -67 0 c-104 0 -112 21 -56 135 55 111 131 175 208 175 l37 0 -13 -32z
m13 -59 c-50 -135 -84 -212 -96 -216 -7 -2 15 66 49 151 34 85 64 153 69 150
4 -3 -6 -41 -22 -85z m1337 -126 c13 -17 -9 -18 -679 -25 -381 -3 -695 -4
-697 -2 -2 2 -1 10 2 19 6 13 39 15 234 16 125 1 341 5 478 9 138 4 340 6 449
5 181 -3 201 -5 213 -22z m-2532 6 c55 -5 202 -12 327 -15 173 -5 228 -10 232
-20 7 -18 -36 -22 -304 -29 -464 -12 -1001 -47 -1328 -86 -164 -20 -174 -20
-209 -4 -31 15 -46 16 -98 7 -169 -28 -306 -151 -443 -397 -82 -148 -88 -164
-72 -229 11 -45 10 -57 -4 -84 -9 -17 -16 -38 -16 -47 0 -26 -15 -17 -33 20
-19 41 -25 42 -61 14 -14 -11 -26 -18 -26 -14 0 24 110 230 173 324 42 63 75
116 74 118 -7 6 -114 -151 -166 -242 -28 -49 -60 -115 -71 -145 -11 -30 -27
-68 -34 -85 -15 -30 -15 -30 -15 27 -1 68 30 134 135 286 152 220 280 360 387
421 93 53 333 130 507 162 136 25 848 37 1045 18z m3621 -4 c456 -3 483 -4
526 -23 87 -38 74 -46 -68 -39 -71 4 -347 11 -614 17 -924 20 -905 19 -919 43
l-13 20 303 -8 c167 -4 520 -9 785 -10z m1069 5 c306 -10 369 -19 745 -95 443
-90 549 -126 634 -211 183 -182 287 -714 273 -1393 -13 -637 -113 -1074 -282
-1230 -103 -95 -268 -140 -840 -232 -226 -36 -435 -48 -825 -49 l-285 0 45 26
c25 14 52 34 60 44 13 17 39 20 235 30 447 22 880 59 1152 99 67 10 124 14
125 9 6 -16 83 -28 117 -18 162 46 285 268 336 605 14 97 19 176 8 130 -3 -11
-13 -31 -23 -45 -9 -14 -25 -59 -35 -100 -28 -120 -87 -291 -102 -297 -23 -9
-24 1 -3 63 52 149 78 275 117 574 26 194 25 809 0 1025 -24 198 -60 377 -102
500 -34 99 -37 128 -9 91 22 -31 54 -121 85 -245 16 -63 36 -122 45 -132 44
-49 83 -622 65 -954 -20 -360 -21 -384 -12 -330 32 186 37 707 11 985 -19 199
-59 461 -85 560 -49 180 -132 310 -230 359 -56 28 -124 38 -153 22 -16 -9 -55
-5 -174 14 -273 45 -666 84 -1105 110 -245 14 -253 15 -277 40 -13 13 -37 28
-53 32 -26 7 -26 8 17 14 71 10 223 9 525 -1z m-3787 -27 c-3 -16 -20 -18
-162 -21 -121 -2 -161 1 -167 10 -12 19 34 25 194 27 127 1 138 0 135 -16z
m1538 -19 l111 -7 22 -50 c11 -28 20 -52 18 -53 -1 -1 -358 -4 -793 -6 l-791
-3 16 22 c9 12 32 24 54 28 28 5 41 14 52 36 l15 29 373 3 c204 1 471 3 592 5
121 1 270 -1 331 -4z m1009 -15 c237 -6 504 -14 595 -17 187 -8 185 -7 133
-86 l-25 -38 -66 6 c-79 7 -681 25 -1146 34 l-330 7 -23 53 -23 52 228 0 c125
0 421 -5 657 -11z m-2555 -4 c0 -2 -9 -19 -20 -37 -25 -41 -25 -55 -2 -61 9
-2 -36 -7 -101 -11 -109 -8 -119 -7 -133 10 -25 32 -53 91 -47 98 7 7 303 8
303 1z m-315 -24 c3 -11 17 -35 30 -55 l24 -35 -65 -30 c-36 -17 -78 -39 -93
-50 l-27 -20 -50 34 c-27 19 -78 44 -114 56 -62 21 -74 22 -325 16 -273 -7
-522 -24 -840 -58 -175 -18 -506 -63 -565 -75 l-25 -6 25 21 c41 35 149 93
189 102 135 30 716 79 1181 99 135 6 272 12 305 13 33 2 124 4 202 5 132 2
142 1 148 -17z m340 -10 c3 -6 26 -13 50 -17 47 -7 53 -12 33 -32 -14 -14 -96
-16 -117 -3 -12 8 -13 14 -3 35 12 27 26 33 37 17z m3886 -21 c439 -35 933
-101 996 -134 47 -24 177 -169 161 -180 -2 -1 -140 11 -307 28 l-304 30 -64
-22 c-47 -17 -68 -20 -82 -12 -45 23 -162 9 -806 -100 -198 -33 -428 -65 -530
-74 -669 -57 -1536 -41 -2082 40 -87 12 -106 19 -130 42 -24 24 -55 34 -223
71 -107 24 -262 58 -345 76 -210 47 -501 105 -525 105 -30 0 -24 14 13 32 77
37 22 46 857 -142 557 -126 672 -139 1266 -147 803 -11 1120 26 1782 205 228
62 221 76 -43 91 -105 6 -207 11 -227 11 l-36 0 26 56 27 56 161 -6 c89 -4
275 -15 415 -26z m-6091 -50 c0 -6 -12 -15 -26 -20 -58 -23 -171 -106 -253
-188 -96 -95 -169 -189 -254 -324 -57 -90 -67 -94 -67 -23 0 39 51 143 131
265 101 155 198 242 313 282 56 19 156 24 156 8z m3822 -163 c53 -89 95 -163
95 -163 -1 -1 -92 2 -202 7 -355 16 -561 45 -953 134 -108 25 -240 55 -292 67
-78 18 -99 27 -122 52 -25 27 -33 42 -25 48 5 4 626 14 997 16 l405 1 97 -162z
m128 11 c34 -84 65 -159 67 -166 4 -10 -5 -13 -38 -10 l-43 3 -64 105 c-35 58
-79 131 -98 163 l-33 57 73 0 73 0 63 -152z m121 12 c57 -216 56 -192 8 -188
l-42 3 -63 150 c-35 83 -63 156 -64 163 0 10 16 12 63 10 l62 -3 36 -135z
m-2526 115 c59 -16 165 -71 165 -87 0 -4 -12 -8 -27 -8 -46 0 -538 -87 -853
-150 -573 -115 -1175 -282 -1362 -376 -26 -13 -50 -24 -53 -24 -8 0 39 91 82
158 80 125 246 323 291 346 59 30 660 104 1062 131 435 28 613 31 695 10z
m766 -17 c31 -35 38 -53 15 -45 -7 3 -72 18 -142 34 l-129 28 100 6 c55 3 106
6 113 7 7 1 26 -13 43 -30z m2733 13 l159 -6 14 -40 c8 -22 11 -49 8 -60 -9
-36 -107 -127 -145 -136 -92 -21 -644 -59 -850 -59 l-95 0 -42 162 -42 161
417 -8 c229 -4 489 -10 576 -14z m365 -14 c7 -1 -36 -48 -97 -105 -79 -73
-120 -104 -144 -108 l-33 -7 51 54 c63 66 67 78 49 130 -8 23 -15 42 -15 43 0
3 167 -4 189 -7z m296 -13 c193 -7 236 -15 170 -32 -22 -6 -125 -33 -230 -61
-104 -28 -242 -61 -305 -75 l-115 -25 110 105 c108 102 111 104 150 99 22 -2
121 -7 220 -11z m1489 -22 c88 -48 164 -167 211 -329 28 -96 56 -253 46 -253
-4 0 -18 44 -30 98 -47 196 -96 302 -182 397 -48 51 -136 105 -174 105 -9 0
-13 5 -9 11 10 17 81 2 138 -29z m-5079 -68 c458 -94 798 -173 814 -189 13
-13 11 -30 -17 -152 -54 -235 -77 -414 -92 -715 -18 -349 10 -709 77 -1026 45
-213 48 -235 31 -249 -14 -11 -134 -42 -742 -189 l-390 -94 -43 36 c-129 106
-274 419 -339 734 -40 195 -56 359 -56 575 1 306 40 574 118 814 93 282 261
529 351 514 15 -3 145 -29 288 -59z m5122 -37 c53 -57 69 -87 49 -87 -9 0 -23
14 -32 32 -9 17 -40 57 -68 87 -37 40 -43 49 -20 34 16 -12 49 -42 71 -66z
m-5581 -17 c-258 -330 -380 -1057 -280 -1665 53 -326 159 -613 289 -783 53
-71 54 -73 28 -68 -16 3 -149 26 -298 51 -755 127 -1495 304 -1898 453 -61 23
-103 44 -109 56 -6 11 -12 81 -13 155 -2 75 -8 201 -14 281 -13 182 -13 392 0
585 5 83 12 205 14 272 3 66 9 132 14 146 34 89 759 302 1561 458 235 46 701
127 738 128 21 1 18 -6 -32 -69z m5329 -56 c148 -14 273 -28 278 -31 24 -15
82 -202 112 -358 76 -409 84 -992 19 -1435 -30 -205 -109 -480 -138 -480 -6 0
-117 -9 -246 -20 -280 -24 -388 -25 -434 -6 -47 20 -51 31 -23 68 95 127 187
430 229 753 19 151 15 579 -6 740 -43 317 -123 585 -216 720 l-31 45 33 14
c18 7 40 16 48 19 8 3 35 4 60 2 25 -3 166 -16 315 -31z m-500 0 c99 -47 210
-342 266 -706 30 -191 37 -592 15 -782 -42 -359 -140 -676 -245 -786 -36 -38
-41 -40 -99 -40 -67 0 -335 42 -737 115 -137 25 -253 45 -256 45 -3 0 4 44 17
98 79 324 108 613 101 992 -6 311 -25 479 -83 747 -19 91 -33 168 -30 171 6 5
589 105 826 141 159 24 184 25 225 5z m-3375 -138 c367 -50 794 -70 1334 -63
417 6 573 13 836 42 69 7 126 12 128 10 2 -2 16 -58 32 -126 106 -449 127
-950 59 -1424 -17 -120 -82 -442 -91 -450 -2 -2 -55 3 -119 10 -504 59 -1244
67 -1824 20 -164 -13 -233 -21 -452 -51 -64 -8 -59 -18 -101 191 -65 318 -88
592 -79 950 8 319 35 550 94 803 25 103 29 113 47 108 12 -3 73 -12 136 -20z
m-3766 -366 c26 -59 27 -60 16 -167 -28 -266 -28 -742 0 -1001 11 -110 11
-112 -14 -167 -38 -84 -63 -84 -112 0 -32 55 -51 183 -66 446 -17 306 14 775
58 861 20 40 63 88 80 88 6 0 23 -27 38 -60z m-104 -1389 c1 -39 130 -281 197
-370 48 -64 40 -43 -16 43 -49 76 -143 253 -155 293 -7 21 -5 22 23 17 26 -6
33 -2 48 24 l17 29 23 -50 c21 -46 22 -54 11 -107 -11 -56 -11 -60 20 -122
124 -249 257 -407 398 -469 67 -30 184 -38 207 -14 16 16 26 16 160 1 343 -38
664 -59 1242 -82 237 -9 431 -18 433 -19 1 -1 0 -9 -3 -17 -5 -13 -43 -16
-218 -22 -117 -3 -259 -10 -317 -15 -131 -12 -660 -13 -880 -2 -331 18 -669
124 -809 255 -93 87 -310 378 -380 510 -25 48 -31 70 -31 120 1 58 1 60 15 36
8 -14 14 -31 15 -39z m8204 -132 c-36 -211 -99 -370 -184 -462 -57 -62 -119
-97 -171 -97 -55 0 -54 11 5 35 71 29 125 72 179 145 68 89 97 168 168 444 18
68 19 32 3 -65z m-7794 3 c474 -154 1060 -287 1870 -422 101 -17 186 -33 188
-35 8 -7 -91 -64 -142 -82 -139 -49 -1004 3 -1729 103 -45 6 -54 13 -128 93
-95 103 -178 212 -241 318 -69 115 -70 117 -16 94 24 -10 113 -41 198 -69z
m-57 -230 c122 -156 246 -266 377 -332 43 -22 44 -23 20 -32 -35 -13 -143 6
-206 37 -103 50 -247 224 -350 424 -37 71 -47 131 -28 162 3 6 29 -27 56 -73
28 -46 86 -129 131 -186z m5207 138 c386 -21 575 -43 940 -110 306 -56 639
-110 681 -110 20 0 50 5 66 10 25 9 36 7 65 -9 55 -33 106 -34 400 -11 152 12
283 20 293 18 13 -2 7 -16 -33 -73 -52 -74 -99 -116 -155 -140 -105 -44 -916
-120 -1455 -137 l-83 -2 -24 59 c-14 32 -23 60 -21 62 1 2 99 8 217 14 156 8
218 15 229 25 10 10 11 17 3 25 -28 28 -556 170 -773 208 -548 96 -1506 101
-2011 10 -111 -20 -539 -124 -960 -234 -115 -30 -222 -55 -237 -54 -36 0 -132
45 -112 52 8 3 143 35 300 72 677 160 793 191 818 220 21 25 36 30 145 45 154
23 437 49 632 59 226 12 866 12 1075 1z m-924 -192 c-26 -46 -70 -127 -98
-180 l-52 -98 -437 0 c-239 0 -558 3 -707 7 l-272 6 18 27 c48 73 34 67 323
140 345 88 527 125 704 145 133 15 368 30 503 34 l63 1 -45 -82z m138 60 c-13
-43 -123 -330 -127 -334 -3 -3 -36 -4 -74 -2 l-69 3 95 177 96 177 43 1 c40 0
43 -2 36 -22z m101 0 c-3 -13 -22 -93 -43 -178 l-38 -155 -62 -3 c-34 -2 -62
1 -62 6 0 8 98 279 120 330 8 18 18 22 50 22 37 0 40 -2 35 -22z m390 12 c300
-16 598 -49 616 -67 31 -32 109 -138 109 -147 0 -7 -7 -33 -15 -58 l-16 -45
-222 -7 c-424 -13 -921 -25 -923 -23 -2 1 16 82 39 180 l42 177 90 0 c50 0
176 -5 280 -10z m811 -191 l119 -119 -109 0 c-99 0 -108 1 -101 18 4 9 9 35
12 57 4 33 0 47 -19 70 -13 17 -36 46 -51 66 l-27 35 29 -4 c20 -3 63 -38 147
-123z m84 72 c205 -51 510 -142 510 -151 0 -13 -60 -19 -265 -26 l-200 -6
-110 111 c-60 61 -105 111 -99 111 5 0 79 -18 164 -39z m1910 33 c0 -16 -78
-119 -114 -150 -66 -57 -79 -58 -25 -3 28 29 64 76 81 105 16 30 36 54 44 54
8 0 14 -3 14 -6z m-7219 -183 c408 -52 960 -91 1276 -91 162 0 207 11 313 75
l60 36 57 -35 c32 -20 72 -40 89 -46 l31 -11 -31 -62 c-17 -34 -31 -63 -32
-65 -3 -9 -920 33 -1254 59 -448 34 -576 52 -646 87 -71 36 -134 82 -113 82 8
0 121 -13 250 -29z m2229 -26 l-31 -45 -97 0 c-163 0 -164 9 -7 51 77 21 146
38 153 38 8 1 0 -17 -18 -44z m3157 -81 c14 -31 21 -59 17 -64 -12 -11 -1035
-42 -1626 -50 -15 0 -15 5 3 59 19 55 22 59 57 65 20 3 108 6 195 6 165 0 736
16 1042 29 99 4 204 9 233 9 l53 2 26 -56z m-3285 16 c-52 -12 -58 -24 -33
-65 11 -20 21 -38 21 -41 0 -2 -70 -4 -155 -4 -85 0 -155 2 -155 5 0 8 41 88
52 103 8 9 51 12 157 11 95 -1 134 -4 113 -9z m948 -5 l738 -8 -20 -58 -20
-59 -312 0 c-172 0 -488 3 -703 7 l-391 6 -16 34 c-13 27 -21 33 -48 33 -33 0
-68 24 -68 46 0 9 14 12 51 9 27 -1 382 -6 789 -10z m-842 -26 c2 -14 -7 -18
-45 -21 -26 -3 -55 -8 -65 -12 -12 -5 -18 -1 -23 15 -10 30 9 40 75 37 42 -2
56 -7 58 -19z m3190 -81 c-3 -7 -31 -27 -64 -43 l-59 -31 -150 8 c-83 5 -424
3 -763 -3 -337 -7 -615 -9 -618 -6 -3 3 -1 15 6 26 10 19 19 21 119 21 154 0
980 20 1206 29 307 13 327 13 323 -1z m-3358 -18 c49 0 58 -3 63 -20 5 -19 0
-20 -86 -20 -51 0 -129 3 -173 6 -75 6 -81 8 -76 27 5 19 11 20 110 13 58 -3
131 -6 162 -6z m1178 -10 c287 0 522 -4 522 -8 0 -5 -6 -16 -13 -26 -11 -15
-34 -17 -197 -19 -102 -1 -403 2 -668 7 -394 8 -486 12 -498 23 -33 33 -17 36
159 30 94 -4 407 -7 695 -7z"/>
<path d="M9683 1165 c0 -22 2 -30 4 -17 2 12 2 30 0 40 -3 9 -5 -1 -4 -23z"/>
<path d="M4160 3051 c-44 -9 -90 -33 -113 -59 -44 -48 -119 -281 -161 -500
-46 -238 -60 -396 -60 -687 0 -289 13 -434 60 -675 40 -209 112 -440 156 -503
30 -42 94 -70 158 -70 54 1 729 166 802 196 69 29 70 32 20 272 -110 530 -105
1165 15 1671 33 143 29 162 -42 186 -52 17 -703 163 -765 171 -19 3 -51 1 -70
-2z m419 -86 c410 -91 443 -100 458 -122 17 -22 16 -37 -2 -97 -23 -74 -63
-294 -81 -441 -22 -183 -30 -593 -15 -795 14 -190 50 -426 87 -582 14 -60 23
-115 20 -123 -2 -7 -16 -21 -29 -30 -33 -21 -767 -205 -820 -205 -24 0 -62 10
-87 22 -38 19 -50 34 -77 88 -63 130 -132 401 -168 660 -36 257 -31 722 11
1010 32 222 124 554 172 620 26 36 99 70 151 70 24 0 195 -34 380 -75z"/>
<path d="M8495 2884 c-278 -39 -693 -106 -713 -114 -44 -19 -47 -47 -18 -197
95 -504 96 -1016 0 -1503 -29 -153 -29 -153 -1 -185 20 -24 40 -30 183 -55
262 -46 617 -100 660 -100 53 0 79 20 113 89 64 125 119 326 158 571 25 162
25 658 0 840 -46 324 -142 616 -217 655 -34 17 -33 17 -165 -1z m174 -21 c32
-27 99 -191 136 -338 125 -491 108 -1127 -42 -1558 -45 -129 -77 -192 -108
-213 -32 -21 -48 -19 -504 56 -339 56 -357 60 -379 85 -12 15 -20 34 -18 43
13 42 56 301 72 432 23 180 26 652 6 835 -16 144 -48 356 -68 444 -13 56 -13
66 0 86 19 28 4 25 356 79 493 76 514 77 549 49z"/>
<path d="M1460 2458 c-25 -42 -36 -97 -54 -270 -33 -318 -29 -605 10 -907 15
-120 30 -160 66 -185 22 -15 23 -15 42 21 23 44 24 94 7 278 -14 157 -14 624
0 796 16 186 16 229 -4 267 -22 41 -42 41 -67 0z m61 -25 c9 -29 9 -71 -2
-202 -18 -213 -18 -668 0 -886 12 -155 12 -174 -3 -209 -14 -34 -18 -37 -33
-25 -52 44 -78 260 -78 664 0 367 23 604 66 674 23 38 33 34 50 -16z"/>
</g>
</svg>
